999
FreeCAD v1.0 39109 (Git)
  0
SECTION
  2
HEADER
  9
$ACADVER
  1
AC1014
  9
$ACADMAINTVER
 70
     9
  9
$DWGCODEPAGE
  3
ANSI_1252
  9
$TEXTSTYLE
  7
STANDARD
  9
$DIMSTYLE
  2
STANDARD
  9
$DIMTXSTY
  7
STANDARD
  9
$CMLSTYLE
  2
STANDARD
  9
$LUNITS
 70
2
  9
$INSUNITS
 70
4
  9
$PEXTMAX
 10
50
 20
50
 30
50
  9
$PEXTMIN
 10
0
 20
0
 30
0
  9
$HANDSEED
  5
FFFF
  0
ENDSEC
  0
SECTION
  2
CLASSES
  0
CLASS
  1
ACDBDICTIONARYWDFLT
  2
AcDbDictionaryWithDefault
  3
ObjectDBX Classes
 90
        0
280
     0
281
     0
  0
CLASS
  1
XRECORD
  2
AcDbXrecord
  3
ObjectDBX Classes
 90
        0
280
     0
281
     0
  0
CLASS
  1
LWPOLYLINE
  2
AcDbPolyline
  3
ObjectDBX Classes
 90
        0
280
     0
281
     1
  0
ENDSEC
  0
SECTION
  2
TABLES
  0
TABLE
  2
VPORT
  5
20
330
0
100
AcDbSymbolTable
 70
     1
  0
VPORT
  5
21
330
20
100
AcDbSymbolTableRecord
100
AcDbViewportTableRecord
  2
*ACTIVE
 70
     0
  0
ENDTAB
  0
TABLE
  2
LTYPE
  5
22
330
0
100
AcDbSymbolTable
 70
     1
  0
LTYPE
  5
23
330
21
100
AcDbSymbolTableRecord
100
AcDbLinetypeTableRecord
  2
BYBLOCK
 70
     0
  3

 72
    65
 73
     0
 40
0.0
  0
LTYPE
  5
24
330
21
100
AcDbSymbolTableRecord
100
AcDbLinetypeTableRecord
  2
BYLAYER
 70
     0
  3

 72
    65
 73
     0
 40
0.0
  0
LTYPE
  5
25
330
21
100
AcDbSymbolTableRecord
100
AcDbLinetypeTableRecord
  2
CONTINUOUS
 70
     0
  3
Solid line
 72
    65
 73
     0
 40
0.0
  0
ENDTAB
  0
TABLE
  2
LAYER
  5
CBA
330
0
100
AcDbSymbolTable
 70
8
  0
LAYER
  5
CBB
330
CBA
100
AcDbSymbolTableRecord
100
AcDbLayerTableRecord
  2
0
 70
   0
 62
   7
  6
CONTINUOUS
  0
LAYER
  5
CBC
330
CBA
100
AcDbSymbolTableRecord
100
AcDbLayerTableRecord
  2
none
 70
    0
 62
    7
  6
CONTINUOUS
  0
LAYER
  5
CBD
330
CBA
100
AcDbSymbolTableRecord
100
AcDbLayerTableRecord
  2
b_ArmBase_001_
 70
    0
 62
    7
  6
CONTINUOUS
  0
LAYER
  5
CBE
330
CBA
100
AcDbSymbolTableRecord
100
AcDbLayerTableRecord
  2
b_armpart2_001_
 70
    0
 62
    7
  6
CONTINUOUS
  0
LAYER
  5
CBF
330
CBA
100
AcDbSymbolTableRecord
100
AcDbLayerTableRecord
  2
b_Gripperpart_1_001_
 70
    0
 62
    7
  6
CONTINUOUS
  0
LAYER
  5
CC0
330
CBA
100
AcDbSymbolTableRecord
100
AcDbLayerTableRecord
  2
b_servobase_001_
 70
    0
 62
    7
  6
CONTINUOUS
  0
LAYER
  5
CC1
330
CBA
100
AcDbSymbolTableRecord
100
AcDbLayerTableRecord
  2
b_armpart_001_
 70
    0
 62
    7
  6
CONTINUOUS
  0
LAYER
  5
CC2
330
CBA
100
AcDbSymbolTableRecord
100
AcDbLayerTableRecord
  2
b_armpart_1_02_001_
 70
    0
 62
    7
  6
CONTINUOUS
  0
ENDTAB
  0
TABLE
  2
STYLE
  5
70
330
0
100
AcDbSymbolTable
 70
     2
  0
STYLE
  5
71
330
70
100
AcDbSymbolTableRecord
100
AcDbTextStyleTableRecord
  2
STANDARD
 70
     0
 40
0.0
 41
1.0
 50
0.0
 71
     0
 42
2.5
  3
arial.ttf
  4

  0
STYLE
  5
72
330
70
100
AcDbSymbolTableRecord
100
AcDbTextStyleTableRecord
  2
ANNOTATIVE
 70
     0
 40
0.0
 41
1.0
 50
0.0
 71
     0
 42
2.5
  3
arial.ttf
  4

  0
ENDTAB
  0
TABLE
  2
VIEW
  5
73
330
0
100
AcDbSymbolTable
 70
     0
  0
ENDTAB
  0
TABLE
  2
UCS
  5
74
330
0
100
AcDbSymbolTable
 70
     0
  0
ENDTAB
  0
TABLE
  2
APPID
  5
75
330
0
100
AcDbSymbolTable
 70
     2
  0
APPID
  5
76
330
75
100
AcDbSymbolTableRecord
100
AcDbRegAppTableRecord
  2
ACAD
 70
     0
  0
APPID
  5
77
330
75
100
AcDbSymbolTableRecord
100
AcDbRegAppTableRecord
  2
ACADANNOTATIVE
 70
     0
  0
ENDTAB
  0
TABLE
  2
DIMSTYLE
  5
78
330
0
100
AcDbSymbolTable
 70
     2
  0
DIMSTYLE
105
79
330
78
100
AcDbSymbolTableRecord
100
AcDbDimStyleTableRecord
  2
STANDARD
 70
     0
  3

  4

  5

  6

  7

 40
0.0
 41
2.5
 42
0.625
 43
3.75
 44
1.25
 45
0.0
 46
0.0
 47
0.0
 48
0.0
140
2.5
141
2.5
142
0.0
143
0.03937007874016
144
1.0
145
0.0
146
1.0
147
0.625
 71
     0
 72
     0
 73
     0
 74
     0
 75
     0
 76
     0
 77
     1
 78
     8
170
     0
171
     3
172
     1
173
     0
174
     0
175
     0
176
     0
177
     0
178
     0
270
     2
271
     2
272
     2
273
     2
274
     3
340
71
275
     0
280
     0
281
     0
282
     0
283
     0
284
     8
285
     0
286
     0
287
     3
288
     0
  0
ENDTAB
  0
TABLE
  2
BLOCK_RECORD
  5
A01
330
0
100
AcDbSymbolTable
  70
5
  0
BLOCK_RECORD
  5
A02
330
A01
100
AcDbSymbolTableRecord
100
AcDbBlockTableRecord
  2
*MODEL_SPACE
  0
BLOCK_RECORD
  5
A03
330
A01
100
AcDbSymbolTableRecord
100
AcDbBlockTableRecord
  2
*PAPER_SPACE
  0
ENDTAB
  0
ENDSEC
  0
SECTION
  2
BLOCKS
  0
BLOCK
  5
A04
330
A02
100
AcDbEntity
  8
0
100
AcDbBlockBegin
  2
*MODEL_SPACE
 70
   0
 10
0
 20
0
 30
0
  3
*MODEL_SPACE
  1
 
  0
ENDBLK
  5
A05
330
A02
100
AcDbEntity
  8
0
100
AcDbBlockEnd
  0
BLOCK
  5
A06
330
A03
100
AcDbEntity
 67
1
  8
0
100
AcDbBlockBegin
  2
*PAPER_SPACE
 70
   0
 10
0
 20
0
 30
0
  3
*PAPER_SPACE
  1
 
  0
ENDBLK
  5
A07
330
A03
100
AcDbEntity
 67
    1
  8
0
100
AcDbBlockEnd
  0
ENDSEC
  0
SECTION
  2
ENTITIES
  0
LINE
  5
A08
330
A02
100
AcDbEntity
  8
b_ArmBase_001_
100
AcDbLine
 10
185.938900798
 20
106.699073567
 30
1.000053406
 11
185.938900798
 21
106.699073567
 31
3.000053406
  0
LINE
  5
A09
330
A02
100
AcDbEntity
  8
b_ArmBase_001_
100
AcDbLine
 10
185.938900798
 20
-37.588537394
 30
1.000053406
 11
185.938900798
 21
-37.588537394
 31
3.000053406
  0
LINE
  5
A0A
330
A02
100
AcDbEntity
  8
b_ArmBase_001_
100
AcDbLine
 10
185.938900798
 20
106.699073567
 30
1.000053406
 11
185.938900798
 21
-37.588537394
 31
1.000053406
  0
LINE
  5
A0B
330
A02
100
AcDbEntity
  8
b_ArmBase_001_
100
AcDbLine
 10
185.938900798
 20
106.699073567
 30
3.000053406
 11
185.938900798
 21
-37.588537394
 31
3.000053406
  0
LINE
  5
A0C
330
A02
100
AcDbEntity
  8
b_ArmBase_001_
100
AcDbLine
 10
185.938900798
 20
-37.588537394
 30
1.000053406
 11
185.938900798
 21
-37.588537394
 31
3.000053406
  0
LINE
  5
A0D
330
A02
100
AcDbEntity
  8
b_ArmBase_001_
100
AcDbLine
 10
186.906657317
 20
-41.200253894
 30
1.000053406
 11
186.906657317
 21
-41.200253894
 31
3.000053406
  0
ARC
  5
A0E
330
A02
100
AcDbEntity
  8
b_ArmBase_001_
100
AcDbCircle
 10
193.162333798
 20
-37.588537394
 30
1.000053406
 40
7.223433000
100
AcDbArc
 50
180.000000000
 51
-150.000000000
  0
ARC
  5
A0F
330
A02
100
AcDbEntity
  8
b_ArmBase_001_
100
AcDbCircle
 10
193.162333798
 20
-37.588537394
 30
3.000053406
 40
7.223433000
100
AcDbArc
 50
180.000000000
 51
-150.000000000
  0
LINE
  5
A10
330
A02
100
AcDbEntity
  8
b_ArmBase_001_
100
AcDbLine
 10
186.906657317
 20
-41.200253894
 30
1.000053406
 11
186.906657317
 21
-41.200253894
 31
3.000053406
  0
LINE
  5
A11
330
A02
100
AcDbEntity
  8
b_ArmBase_001_
100
AcDbLine
 10
189.891191636
 20
-46.369618971
 30
1.000053406
 11
189.891191636
 21
-46.369618971
 31
3.000053406
  0
LINE
  5
A12
330
A02
100
AcDbEntity
  8
b_ArmBase_001_
100
AcDbLine
 10
186.906657317
 20
-41.200253894
 30
1.000053406
 11
189.891191636
 21
-46.369618971
 31
1.000053406
  0
LINE
  5
A13
330
A02
100
AcDbEntity
  8
b_ArmBase_001_
100
AcDbLine
 10
186.906657317
 20
-41.200253894
 30
3.000053406
 11
189.891191636
 21
-46.369618971
 31
3.000053406
  0
LINE
  5
A14
330
A02
100
AcDbEntity
  8
b_ArmBase_001_
100
AcDbLine
 10
189.891191636
 20
-49.998989971
 30
1.000053406
 11
189.891191636
 21
-49.998989971
 31
3.000053406
  0
LINE
  5
A15
330
A02
100
AcDbEntity
  8
b_ArmBase_001_
100
AcDbLine
 10
189.891191636
 20
-46.369618971
 30
1.000053406
 11
189.891191636
 21
-46.369618971
 31
3.000053406
  0
ARC
  5
A16
330
A02
100
AcDbEntity
  8
b_ArmBase_001_
100
AcDbCircle
 10
186.748064150
 20
-48.184304471
 30
1.000053406
 40
3.629371000
100
AcDbArc
 50
-30.000000000
 51
30.000000000
  0
ARC
  5
A17
330
A02
100
AcDbEntity
  8
b_ArmBase_001_
100
AcDbCircle
 10
186.748064150
 20
-48.184304471
 30
3.000053406
 40
3.629371000
100
AcDbArc
 50
-30.000000000
 51
30.000000000
  0
LINE
  5
A18
330
A02
100
AcDbEntity
  8
b_ArmBase_001_
100
AcDbLine
 10
189.891191636
 20
-49.998989971
 30
1.000053406
 11
189.891191636
 21
-49.998989971
 31
3.000053406
  0
LINE
  5
A19
330
A02
100
AcDbEntity
  8
b_ArmBase_001_
100
AcDbLine
 10
162.068191862
 20
-98.189839198
 30
1.000053406
 11
162.068191862
 21
-98.189839198
 31
3.000053406
  0
LINE
  5
A1A
330
A02
100
AcDbEntity
  8
b_ArmBase_001_
100
AcDbLine
 10
189.891191636
 20
-49.998989971
 30
1.000053406
 11
162.068191862
 21
-98.189839198
 31
1.000053406
  0
LINE
  5
A1B
330
A02
100
AcDbEntity
  8
b_ArmBase_001_
100
AcDbLine
 10
189.891191636
 20
-49.998989971
 30
3.000053406
 11
162.068191862
 21
-98.189839198
 31
3.000053406
  0
LINE
  5
A1C
330
A02
100
AcDbEntity
  8
b_ArmBase_001_
100
AcDbLine
 10
158.680318669
 20
-100.145828698
 30
1.000053406
 11
158.680318669
 21
-100.145828698
 31
3.000053406
  0
LINE
  5
A1D
330
A02
100
AcDbEntity
  8
b_ArmBase_001_
100
AcDbLine
 10
162.068191862
 20
-98.189839198
 30
1.000053406
 11
162.068191862
 21
-98.189839198
 31
3.000053406
  0
ARC
  5
A1E
330
A02
100
AcDbEntity
  8
b_ArmBase_001_
100
AcDbCircle
 10
158.680318669
 20
-96.233849698
 30
1.000053406
 40
3.911979000
100
AcDbArc
 50
-90.000000000
 51
-30.000000000
  0
ARC
  5
A1F
330
A02
100
AcDbEntity
  8
b_ArmBase_001_
100
AcDbCircle
 10
158.680318669
 20
-96.233849698
 30
3.000053406
 40
3.911979000
100
AcDbArc
 50
-90.000000000
 51
-30.000000000
  0
LINE
  5
A20
330
A02
100
AcDbEntity
  8
b_ArmBase_001_
100
AcDbLine
 10
158.680318669
 20
-100.145828698
 30
1.000053406
 11
158.680318669
 21
-100.145828698
 31
3.000053406
  0
LINE
  5
A21
330
A02
100
AcDbEntity
  8
b_ArmBase_001_
100
AcDbLine
 10
103.532963270
 20
-100.145828698
 30
1.000053406
 11
103.532963270
 21
-100.145828698
 31
3.000053406
  0
LINE
  5
A22
330
A02
100
AcDbEntity
  8
b_ArmBase_001_
100
AcDbLine
 10
158.680318669
 20
-100.145828698
 30
1.000053406
 11
103.532963270
 21
-100.145828698
 31
1.000053406
  0
LINE
  5
A23
330
A02
100
AcDbEntity
  8
b_ArmBase_001_
100
AcDbLine
 10
158.680318669
 20
-100.145828698
 30
3.000053406
 11
103.532963270
 21
-100.145828698
 31
3.000053406
  0
LINE
  5
A24
330
A02
100
AcDbEntity
  8
b_ArmBase_001_
100
AcDbLine
 10
99.641869562
 20
-97.899304698
 30
1.000053406
 11
99.641869562
 21
-97.899304698
 31
3.000053406
  0
LINE
  5
A25
330
A02
100
AcDbEntity
  8
b_ArmBase_001_
100
AcDbLine
 10
103.532963270
 20
-100.145828698
 30
1.000053406
 11
103.532963270
 21
-100.145828698
 31
3.000053406
  0
ARC
  5
A26
330
A02
100
AcDbEntity
  8
b_ArmBase_001_
100
AcDbCircle
 10
103.532963270
 20
-95.652780698
 30
1.000053406
 40
4.493048000
100
AcDbArc
 50
-150.000000000
 51
-90.000000000
  0
ARC
  5
A27
330
A02
100
AcDbEntity
  8
b_ArmBase_001_
100
AcDbCircle
 10
103.532963270
 20
-95.652780698
 30
3.000053406
 40
4.493048000
100
AcDbArc
 50
-150.000000000
 51
-90.000000000
  0
LINE
  5
A28
330
A02
100
AcDbEntity
  8
b_ArmBase_001_
100
AcDbLine
 10
99.641869562
 20
-97.899304698
 30
1.000053406
 11
99.641869562
 21
-97.899304698
 31
3.000053406
  0
LINE
  5
A29
330
A02
100
AcDbEntity
  8
b_ArmBase_001_
100
AcDbLine
 10
72.080424471
 20
-50.161481471
 30
1.000053406
 11
72.080424471
 21
-50.161481471
 31
3.000053406
  0
LINE
  5
A2A
330
A02
100
AcDbEntity
  8
b_ArmBase_001_
100
AcDbLine
 10
99.641869562
 20
-97.899304698
 30
1.000053406
 11
72.080424471
 21
-50.161481471
 31
1.000053406
  0
LINE
  5
A2B
330
A02
100
AcDbEntity
  8
b_ArmBase_001_
100
AcDbLine
 10
99.641869562
 20
-97.899304698
 30
3.000053406
 11
72.080424471
 21
-50.161481471
 31
3.000053406
  0
LINE
  5
A2C
330
A02
100
AcDbEntity
  8
b_ArmBase_001_
100
AcDbLine
 10
72.080424471
 20
-46.207127471
 30
1.000053406
 11
72.080424471
 21
-46.207127471
 31
3.000053406
  0
LINE
  5
A2D
330
A02
100
AcDbEntity
  8
b_ArmBase_001_
100
AcDbLine
 10
72.080424471
 20
-50.161481471
 30
1.000053406
 11
72.080424471
 21
-50.161481471
 31
3.000053406
  0
ARC
  5
A2E
330
A02
100
AcDbEntity
  8
b_ArmBase_001_
100
AcDbCircle
 10
75.504995491
 20
-48.184304471
 30
1.000053406
 40
3.954354000
100
AcDbArc
 50
150.000000000
 51
-150.000000000
  0
ARC
  5
A2F
330
A02
100
AcDbEntity
  8
b_ArmBase_001_
100
AcDbCircle
 10
75.504995491
 20
-48.184304471
 30
3.000053406
 40
3.954354000
100
AcDbArc
 50
150.000000000
 51
-150.000000000
  0
LINE
  5
A30
330
A02
100
AcDbEntity
  8
b_ArmBase_001_
100
AcDbLine
 10
72.080424471
 20
-46.207127471
 30
1.000053406
 11
72.080424471
 21
-46.207127471
 31
3.000053406
  0
LINE
  5
A31
330
A02
100
AcDbEntity
  8
b_ArmBase_001_
100
AcDbLine
 10
75.044737596
 20
-41.072786529
 30
1.000053406
 11
75.044737596
 21
-41.072786529
 31
3.000053406
  0
LINE
  5
A32
330
A02
100
AcDbEntity
  8
b_ArmBase_001_
100
AcDbLine
 10
72.080424471
 20
-46.207127471
 30
1.000053406
 11
75.044737596
 21
-41.072786529
 31
1.000053406
  0
LINE
  5
A33
330
A02
100
AcDbEntity
  8
b_ArmBase_001_
100
AcDbLine
 10
72.080424471
 20
-46.207127471
 30
3.000053406
 11
75.044737596
 21
-41.072786529
 31
3.000053406
  0
LINE
  5
A34
330
A02
100
AcDbEntity
  8
b_ArmBase_001_
100
AcDbLine
 10
75.044737596
 20
-41.072786529
 30
1.000053406
 11
75.044737596
 21
-41.072786529
 31
3.000053406
  0
LINE
  5
A35
330
A02
100
AcDbEntity
  8
b_ArmBase_001_
100
AcDbLine
 10
75.938900798
 20
-37.735724029
 30
1.000053406
 11
75.938900798
 21
-37.735724029
 31
3.000053406
  0
ARC
  5
A36
330
A02
100
AcDbEntity
  8
b_ArmBase_001_
100
AcDbCircle
 10
69.264775798
 20
-37.735724029
 30
1.000053406
 40
6.674125000
100
AcDbArc
 50
-30.000000000
 51
0.000000000
  0
ARC
  5
A37
330
A02
100
AcDbEntity
  8
b_ArmBase_001_
100
AcDbCircle
 10
69.264775798
 20
-37.735724029
 30
3.000053406
 40
6.674125000
100
AcDbArc
 50
-30.000000000
 51
0.000000000
  0
LINE
  5
A38
330
A02
100
AcDbEntity
  8
b_ArmBase_001_
100
AcDbLine
 10
75.938900798
 20
-37.735724029
 30
1.000053406
 11
75.938900798
 21
-37.735724029
 31
3.000053406
  0
LINE
  5
A39
330
A02
100
AcDbEntity
  8
b_ArmBase_001_
100
AcDbLine
 10
75.938900798
 20
106.195398567
 30
1.000053406
 11
75.938900798
 21
106.195398567
 31
3.000053406
  0
LINE
  5
A3A
330
A02
100
AcDbEntity
  8
b_ArmBase_001_
100
AcDbLine
 10
75.938900798
 20
-37.735724029
 30
1.000053406
 11
75.938900798
 21
106.195398567
 31
1.000053406
  0
LINE
  5
A3B
330
A02
100
AcDbEntity
  8
b_ArmBase_001_
100
AcDbLine
 10
75.938900798
 20
-37.735724029
 30
3.000053406
 11
75.938900798
 21
106.195398567
 31
3.000053406
  0
LINE
  5
A3C
330
A02
100
AcDbEntity
  8
b_ArmBase_001_
100
AcDbLine
 10
80.219451798
 20
110.475949567
 30
1.000053406
 11
80.219451798
 21
110.475949567
 31
3.000053406
  0
LINE
  5
A3D
330
A02
100
AcDbEntity
  8
b_ArmBase_001_
100
AcDbLine
 10
75.938900798
 20
106.195398567
 30
1.000053406
 11
75.938900798
 21
106.195398567
 31
3.000053406
  0
ARC
  5
A3E
330
A02
100
AcDbEntity
  8
b_ArmBase_001_
100
AcDbCircle
 10
80.219451798
 20
106.195398567
 30
1.000053406
 40
4.280551000
100
AcDbArc
 50
90.000000000
 51
180.000000000
  0
ARC
  5
A3F
330
A02
100
AcDbEntity
  8
b_ArmBase_001_
100
AcDbCircle
 10
80.219451798
 20
106.195398567
 30
3.000053406
 40
4.280551000
100
AcDbArc
 50
90.000000000
 51
180.000000000
  0
LINE
  5
A40
330
A02
100
AcDbEntity
  8
b_ArmBase_001_
100
AcDbLine
 10
80.219451798
 20
110.475949567
 30
1.000053406
 11
80.219451798
 21
110.475949567
 31
3.000053406
  0
LINE
  5
A41
330
A02
100
AcDbEntity
  8
b_ArmBase_001_
100
AcDbLine
 10
182.162024798
 20
110.475949567
 30
1.000053406
 11
182.162024798
 21
110.475949567
 31
3.000053406
  0
LINE
  5
A42
330
A02
100
AcDbEntity
  8
b_ArmBase_001_
100
AcDbLine
 10
80.219451798
 20
110.475949567
 30
1.000053406
 11
182.162024798
 21
110.475949567
 31
1.000053406
  0
LINE
  5
A43
330
A02
100
AcDbEntity
  8
b_ArmBase_001_
100
AcDbLine
 10
80.219451798
 20
110.475949567
 30
3.000053406
 11
182.162024798
 21
110.475949567
 31
3.000053406
  0
LINE
  5
A44
330
A02
100
AcDbEntity
  8
b_ArmBase_001_
100
AcDbLine
 10
185.938900798
 20
106.699073567
 30
1.000053406
 11
185.938900798
 21
106.699073567
 31
3.000053406
  0
LINE
  5
A45
330
A02
100
AcDbEntity
  8
b_ArmBase_001_
100
AcDbLine
 10
182.162024798
 20
110.475949567
 30
1.000053406
 11
182.162024798
 21
110.475949567
 31
3.000053406
  0
ARC
  5
A46
330
A02
100
AcDbEntity
  8
b_ArmBase_001_
100
AcDbCircle
 10
182.162024798
 20
106.699073567
 30
1.000053406
 40
3.776876000
100
AcDbArc
 50
0.000000000
 51
90.000000000
  0
ARC
  5
A47
330
A02
100
AcDbEntity
  8
b_ArmBase_001_
100
AcDbCircle
 10
182.162024798
 20
106.699073567
 30
3.000053406
 40
3.776876000
100
AcDbArc
 50
0.000000000
 51
90.000000000
  0
LINE
  5
A48
330
A02
100
AcDbEntity
  8
b_ArmBase_001_
100
AcDbLine
 10
185.938900798
 20
106.699073567
 30
1.000053406
 11
185.938900798
 21
-37.588537394
 31
1.000053406
  0
ARC
  5
A49
330
A02
100
AcDbEntity
  8
b_ArmBase_001_
100
AcDbCircle
 10
193.162333798
 20
-37.588537394
 30
1.000053406
 40
7.223433000
100
AcDbArc
 50
180.000000000
 51
-150.000000000
  0
LINE
  5
A4A
330
A02
100
AcDbEntity
  8
b_ArmBase_001_
100
AcDbLine
 10
186.906657317
 20
-41.200253894
 30
1.000053406
 11
189.891191636
 21
-46.369618971
 31
1.000053406
  0
ARC
  5
A4B
330
A02
100
AcDbEntity
  8
b_ArmBase_001_
100
AcDbCircle
 10
186.748064150
 20
-48.184304471
 30
1.000053406
 40
3.629371000
100
AcDbArc
 50
-30.000000000
 51
30.000000000
  0
LINE
  5
A4C
330
A02
100
AcDbEntity
  8
b_ArmBase_001_
100
AcDbLine
 10
189.891191636
 20
-49.998989971
 30
1.000053406
 11
162.068191862
 21
-98.189839198
 31
1.000053406
  0
ARC
  5
A4D
330
A02
100
AcDbEntity
  8
b_ArmBase_001_
100
AcDbCircle
 10
158.680318669
 20
-96.233849698
 30
1.000053406
 40
3.911979000
100
AcDbArc
 50
-90.000000000
 51
-30.000000000
  0
LINE
  5
A4E
330
A02
100
AcDbEntity
  8
b_ArmBase_001_
100
AcDbLine
 10
158.680318669
 20
-100.145828698
 30
1.000053406
 11
103.532963270
 21
-100.145828698
 31
1.000053406
  0
ARC
  5
A4F
330
A02
100
AcDbEntity
  8
b_ArmBase_001_
100
AcDbCircle
 10
103.532963270
 20
-95.652780698
 30
1.000053406
 40
4.493048000
100
AcDbArc
 50
-150.000000000
 51
-90.000000000
  0
LINE
  5
A50
330
A02
100
AcDbEntity
  8
b_ArmBase_001_
100
AcDbLine
 10
99.641869562
 20
-97.899304698
 30
1.000053406
 11
72.080424471
 21
-50.161481471
 31
1.000053406
  0
ARC
  5
A51
330
A02
100
AcDbEntity
  8
b_ArmBase_001_
100
AcDbCircle
 10
75.504995491
 20
-48.184304471
 30
1.000053406
 40
3.954354000
100
AcDbArc
 50
150.000000000
 51
-150.000000000
  0
LINE
  5
A52
330
A02
100
AcDbEntity
  8
b_ArmBase_001_
100
AcDbLine
 10
72.080424471
 20
-46.207127471
 30
1.000053406
 11
75.044737596
 21
-41.072786529
 31
1.000053406
  0
ARC
  5
A53
330
A02
100
AcDbEntity
  8
b_ArmBase_001_
100
AcDbCircle
 10
69.264775798
 20
-37.735724029
 30
1.000053406
 40
6.674125000
100
AcDbArc
 50
-30.000000000
 51
0.000000000
  0
LINE
  5
A54
330
A02
100
AcDbEntity
  8
b_ArmBase_001_
100
AcDbLine
 10
75.938900798
 20
-37.735724029
 30
1.000053406
 11
75.938900798
 21
106.195398567
 31
1.000053406
  0
ARC
  5
A55
330
A02
100
AcDbEntity
  8
b_ArmBase_001_
100
AcDbCircle
 10
80.219451798
 20
106.195398567
 30
1.000053406
 40
4.280551000
100
AcDbArc
 50
90.000000000
 51
180.000000000
  0
LINE
  5
A56
330
A02
100
AcDbEntity
  8
b_ArmBase_001_
100
AcDbLine
 10
80.219451798
 20
110.475949567
 30
1.000053406
 11
182.162024798
 21
110.475949567
 31
1.000053406
  0
ARC
  5
A57
330
A02
100
AcDbEntity
  8
b_ArmBase_001_
100
AcDbCircle
 10
182.162024798
 20
106.699073567
 30
1.000053406
 40
3.776876000
100
AcDbArc
 50
0.000000000
 51
90.000000000
  0
LINE
  5
A58
330
A02
100
AcDbEntity
  8
b_ArmBase_001_
100
AcDbLine
 10
185.938900798
 20
106.699073567
 30
3.000053406
 11
185.938900798
 21
-37.588537394
 31
3.000053406
  0
ARC
  5
A59
330
A02
100
AcDbEntity
  8
b_ArmBase_001_
100
AcDbCircle
 10
193.162333798
 20
-37.588537394
 30
3.000053406
 40
7.223433000
100
AcDbArc
 50
180.000000000
 51
-150.000000000
  0
LINE
  5
A5A
330
A02
100
AcDbEntity
  8
b_ArmBase_001_
100
AcDbLine
 10
186.906657317
 20
-41.200253894
 30
3.000053406
 11
189.891191636
 21
-46.369618971
 31
3.000053406
  0
ARC
  5
A5B
330
A02
100
AcDbEntity
  8
b_ArmBase_001_
100
AcDbCircle
 10
186.748064150
 20
-48.184304471
 30
3.000053406
 40
3.629371000
100
AcDbArc
 50
-30.000000000
 51
30.000000000
  0
LINE
  5
A5C
330
A02
100
AcDbEntity
  8
b_ArmBase_001_
100
AcDbLine
 10
189.891191636
 20
-49.998989971
 30
3.000053406
 11
162.068191862
 21
-98.189839198
 31
3.000053406
  0
ARC
  5
A5D
330
A02
100
AcDbEntity
  8
b_ArmBase_001_
100
AcDbCircle
 10
158.680318669
 20
-96.233849698
 30
3.000053406
 40
3.911979000
100
AcDbArc
 50
-90.000000000
 51
-30.000000000
  0
LINE
  5
A5E
330
A02
100
AcDbEntity
  8
b_ArmBase_001_
100
AcDbLine
 10
158.680318669
 20
-100.145828698
 30
3.000053406
 11
103.532963270
 21
-100.145828698
 31
3.000053406
  0
ARC
  5
A5F
330
A02
100
AcDbEntity
  8
b_ArmBase_001_
100
AcDbCircle
 10
103.532963270
 20
-95.652780698
 30
3.000053406
 40
4.493048000
100
AcDbArc
 50
-150.000000000
 51
-90.000000000
  0
LINE
  5
A60
330
A02
100
AcDbEntity
  8
b_ArmBase_001_
100
AcDbLine
 10
99.641869562
 20
-97.899304698
 30
3.000053406
 11
72.080424471
 21
-50.161481471
 31
3.000053406
  0
ARC
  5
A61
330
A02
100
AcDbEntity
  8
b_ArmBase_001_
100
AcDbCircle
 10
75.504995491
 20
-48.184304471
 30
3.000053406
 40
3.954354000
100
AcDbArc
 50
150.000000000
 51
-150.000000000
  0
LINE
  5
A62
330
A02
100
AcDbEntity
  8
b_ArmBase_001_
100
AcDbLine
 10
72.080424471
 20
-46.207127471
 30
3.000053406
 11
75.044737596
 21
-41.072786529
 31
3.000053406
  0
ARC
  5
A63
330
A02
100
AcDbEntity
  8
b_ArmBase_001_
100
AcDbCircle
 10
69.264775798
 20
-37.735724029
 30
3.000053406
 40
6.674125000
100
AcDbArc
 50
-30.000000000
 51
0.000000000
  0
LINE
  5
A64
330
A02
100
AcDbEntity
  8
b_ArmBase_001_
100
AcDbLine
 10
75.938900798
 20
-37.735724029
 30
3.000053406
 11
75.938900798
 21
106.195398567
 31
3.000053406
  0
ARC
  5
A65
330
A02
100
AcDbEntity
  8
b_ArmBase_001_
100
AcDbCircle
 10
80.219451798
 20
106.195398567
 30
3.000053406
 40
4.280551000
100
AcDbArc
 50
90.000000000
 51
180.000000000
  0
LINE
  5
A66
330
A02
100
AcDbEntity
  8
b_ArmBase_001_
100
AcDbLine
 10
80.219451798
 20
110.475949567
 30
3.000053406
 11
182.162024798
 21
110.475949567
 31
3.000053406
  0
ARC
  5
A67
330
A02
100
AcDbEntity
  8
b_ArmBase_001_
100
AcDbCircle
 10
182.162024798
 20
106.699073567
 30
3.000053406
 40
3.776876000
100
AcDbArc
 50
0.000000000
 51
90.000000000
  0
LINE
  5
A68
330
A02
100
AcDbEntity
  8
b_armpart2_001_
100
AcDbLine
 10
42.977689369
 20
98.960511435
 30
1.000053406
 11
42.977689369
 21
98.960511435
 31
3.000053406
  0
LINE
  5
A69
330
A02
100
AcDbEntity
  8
b_armpart2_001_
100
AcDbLine
 10
42.977689369
 20
-19.386176565
 30
1.000053406
 11
42.977689369
 21
-19.386176565
 31
3.000053406
  0
LINE
  5
A6A
330
A02
100
AcDbEntity
  8
b_armpart2_001_
100
AcDbLine
 10
42.977689369
 20
98.960511435
 30
1.000053406
 11
42.977689369
 21
-19.386176565
 31
1.000053406
  0
LINE
  5
A6B
330
A02
100
AcDbEntity
  8
b_armpart2_001_
100
AcDbLine
 10
42.977689369
 20
98.960511435
 30
3.000053406
 11
42.977689369
 21
-19.386176565
 31
3.000053406
  0
LINE
  5
A6C
330
A02
100
AcDbEntity
  8
b_armpart2_001_
100
AcDbLine
 10
42.977689369
 20
-19.386176565
 30
1.000053406
 11
42.977689369
 21
-19.386176565
 31
3.000053406
  0
LINE
  5
A6D
330
A02
100
AcDbEntity
  8
b_armpart2_001_
100
AcDbLine
 10
53.981620369
 20
-30.390107565
 30
1.000053406
 11
53.981620369
 21
-30.390107565
 31
3.000053406
  0
ARC
  5
A6E
330
A02
100
AcDbEntity
  8
b_armpart2_001_
100
AcDbCircle
 10
53.981620369
 20
-19.386176565
 30
1.000053406
 40
11.003931000
100
AcDbArc
 50
180.000000000
 51
-90.000000000
  0
ARC
  5
A6F
330
A02
100
AcDbEntity
  8
b_armpart2_001_
100
AcDbCircle
 10
53.981620369
 20
-19.386176565
 30
3.000053406
 40
11.003931000
100
AcDbArc
 50
180.000000000
 51
-90.000000000
  0
LINE
  5
A70
330
A02
100
AcDbEntity
  8
b_armpart2_001_
100
AcDbLine
 10
53.981620369
 20
-30.390107565
 30
1.000053406
 11
53.981620369
 21
-30.390107565
 31
3.000053406
  0
LINE
  5
A71
330
A02
100
AcDbEntity
  8
b_armpart2_001_
100
AcDbLine
 10
61.800755369
 20
-30.390107565
 30
1.000053406
 11
61.800755369
 21
-30.390107565
 31
3.000053406
  0
LINE
  5
A72
330
A02
100
AcDbEntity
  8
b_armpart2_001_
100
AcDbLine
 10
53.981620369
 20
-30.390107565
 30
1.000053406
 11
61.800755369
 21
-30.390107565
 31
1.000053406
  0
LINE
  5
A73
330
A02
100
AcDbEntity
  8
b_armpart2_001_
100
AcDbLine
 10
53.981620369
 20
-30.390107565
 30
3.000053406
 11
61.800755369
 21
-30.390107565
 31
3.000053406
  0
LINE
  5
A74
330
A02
100
AcDbEntity
  8
b_armpart2_001_
100
AcDbLine
 10
61.800755369
 20
-30.390107565
 30
1.000053406
 11
61.800755369
 21
-30.390107565
 31
3.000053406
  0
LINE
  5
A75
330
A02
100
AcDbEntity
  8
b_armpart2_001_
100
AcDbLine
 10
72.977689369
 20
-19.213173565
 30
1.000053406
 11
72.977689369
 21
-19.213173565
 31
3.000053406
  0
ARC
  5
A76
330
A02
100
AcDbEntity
  8
b_armpart2_001_
100
AcDbCircle
 10
61.800755369
 20
-19.213173565
 30
1.000053406
 40
11.176934000
100
AcDbArc
 50
-90.000000000
 51
0.000000000
  0
ARC
  5
A77
330
A02
100
AcDbEntity
  8
b_armpart2_001_
100
AcDbCircle
 10
61.800755369
 20
-19.213173565
 30
3.000053406
 40
11.176934000
100
AcDbArc
 50
-90.000000000
 51
0.000000000
  0
LINE
  5
A78
330
A02
100
AcDbEntity
  8
b_armpart2_001_
100
AcDbLine
 10
72.977689369
 20
-19.213173565
 30
1.000053406
 11
72.977689369
 21
-19.213173565
 31
3.000053406
  0
LINE
  5
A79
330
A02
100
AcDbEntity
  8
b_armpart2_001_
100
AcDbLine
 10
72.977689369
 20
99.752159435
 30
1.000053406
 11
72.977689369
 21
99.752159435
 31
3.000053406
  0
LINE
  5
A7A
330
A02
100
AcDbEntity
  8
b_armpart2_001_
100
AcDbLine
 10
72.977689369
 20
-19.213173565
 30
1.000053406
 11
72.977689369
 21
99.752159435
 31
1.000053406
  0
LINE
  5
A7B
330
A02
100
AcDbEntity
  8
b_armpart2_001_
100
AcDbLine
 10
72.977689369
 20
-19.213173565
 30
3.000053406
 11
72.977689369
 21
99.752159435
 31
3.000053406
  0
LINE
  5
A7C
330
A02
100
AcDbEntity
  8
b_armpart2_001_
100
AcDbLine
 10
72.977689369
 20
99.752159435
 30
1.000053406
 11
72.977689369
 21
99.752159435
 31
3.000053406
  0
LINE
  5
A7D
330
A02
100
AcDbEntity
  8
b_armpart2_001_
100
AcDbLine
 10
63.119956369
 20
109.609892435
 30
1.000053406
 11
63.119956369
 21
109.609892435
 31
3.000053406
  0
ARC
  5
A7E
330
A02
100
AcDbEntity
  8
b_armpart2_001_
100
AcDbCircle
 10
63.119956369
 20
99.752159435
 30
1.000053406
 40
9.857733000
100
AcDbArc
 50
0.000000000
 51
90.000000000
  0
ARC
  5
A7F
330
A02
100
AcDbEntity
  8
b_armpart2_001_
100
AcDbCircle
 10
63.119956369
 20
99.752159435
 30
3.000053406
 40
9.857733000
100
AcDbArc
 50
0.000000000
 51
90.000000000
  0
LINE
  5
A80
330
A02
100
AcDbEntity
  8
b_armpart2_001_
100
AcDbLine
 10
63.119956369
 20
109.609892435
 30
1.000053406
 11
63.119956369
 21
109.609892435
 31
3.000053406
  0
LINE
  5
A81
330
A02
100
AcDbEntity
  8
b_armpart2_001_
100
AcDbLine
 10
53.627070369
 20
109.609892435
 30
1.000053406
 11
53.627070369
 21
109.609892435
 31
3.000053406
  0
LINE
  5
A82
330
A02
100
AcDbEntity
  8
b_armpart2_001_
100
AcDbLine
 10
63.119956369
 20
109.609892435
 30
1.000053406
 11
53.627070369
 21
109.609892435
 31
1.000053406
  0
LINE
  5
A83
330
A02
100
AcDbEntity
  8
b_armpart2_001_
100
AcDbLine
 10
63.119956369
 20
109.609892435
 30
3.000053406
 11
53.627070369
 21
109.609892435
 31
3.000053406
  0
LINE
  5
A84
330
A02
100
AcDbEntity
  8
b_armpart2_001_
100
AcDbLine
 10
53.627070369
 20
109.609892435
 30
1.000053406
 11
53.627070369
 21
109.609892435
 31
3.000053406
  0
LINE
  5
A85
330
A02
100
AcDbEntity
  8
b_armpart2_001_
100
AcDbLine
 10
42.977689369
 20
98.960511435
 30
1.000053406
 11
42.977689369
 21
98.960511435
 31
3.000053406
  0
ARC
  5
A86
330
A02
100
AcDbEntity
  8
b_armpart2_001_
100
AcDbCircle
 10
53.627070369
 20
98.960511435
 30
1.000053406
 40
10.649381000
100
AcDbArc
 50
90.000000000
 51
180.000000000
  0
ARC
  5
A87
330
A02
100
AcDbEntity
  8
b_armpart2_001_
100
AcDbCircle
 10
53.627070369
 20
98.960511435
 30
3.000053406
 40
10.649381000
100
AcDbArc
 50
90.000000000
 51
180.000000000
  0
LINE
  5
A88
330
A02
100
AcDbEntity
  8
b_armpart2_001_
100
AcDbLine
 10
55.477689369
 20
77.927116435
 30
1.000053406
 11
55.477689369
 21
77.927116435
 31
3.000053406
  0
LINE
  5
A89
330
A02
100
AcDbEntity
  8
b_armpart2_001_
100
AcDbLine
 10
55.477689369
 20
1.227826435
 30
1.000053406
 11
55.477689369
 21
1.227826435
 31
3.000053406
  0
LINE
  5
A8A
330
A02
100
AcDbEntity
  8
b_armpart2_001_
100
AcDbLine
 10
55.477689369
 20
77.927116435
 30
1.000053406
 11
55.477689369
 21
1.227826435
 31
1.000053406
  0
LINE
  5
A8B
330
A02
100
AcDbEntity
  8
b_armpart2_001_
100
AcDbLine
 10
55.477689369
 20
77.927116435
 30
3.000053406
 11
55.477689369
 21
1.227826435
 31
3.000053406
  0
LINE
  5
A8C
330
A02
100
AcDbEntity
  8
b_armpart2_001_
100
AcDbLine
 10
55.477689369
 20
1.227826435
 30
1.000053406
 11
55.477689369
 21
1.227826435
 31
3.000053406
  0
LINE
  5
A8D
330
A02
100
AcDbEntity
  8
b_armpart2_001_
100
AcDbLine
 10
57.095623369
 20
-0.390107565
 30
1.000053406
 11
57.095623369
 21
-0.390107565
 31
3.000053406
  0
ARC
  5
A8E
330
A02
100
AcDbEntity
  8
b_armpart2_001_
100
AcDbCircle
 10
57.095623369
 20
1.227826435
 30
1.000053406
 40
1.617934000
100
AcDbArc
 50
180.000000000
 51
-90.000000000
  0
ARC
  5
A8F
330
A02
100
AcDbEntity
  8
b_armpart2_001_
100
AcDbCircle
 10
57.095623369
 20
1.227826435
 30
3.000053406
 40
1.617934000
100
AcDbArc
 50
180.000000000
 51
-90.000000000
  0
LINE
  5
A90
330
A02
100
AcDbEntity
  8
b_armpart2_001_
100
AcDbLine
 10
57.095623369
 20
-0.390107565
 30
1.000053406
 11
57.095623369
 21
-0.390107565
 31
3.000053406
  0
LINE
  5
A91
330
A02
100
AcDbEntity
  8
b_armpart2_001_
100
AcDbLine
 10
58.610145369
 20
-0.390107565
 30
1.000053406
 11
58.610145369
 21
-0.390107565
 31
3.000053406
  0
LINE
  5
A92
330
A02
100
AcDbEntity
  8
b_armpart2_001_
100
AcDbLine
 10
57.095623369
 20
-0.390107565
 30
1.000053406
 11
58.610145369
 21
-0.390107565
 31
1.000053406
  0
LINE
  5
A93
330
A02
100
AcDbEntity
  8
b_armpart2_001_
100
AcDbLine
 10
57.095623369
 20
-0.390107565
 30
3.000053406
 11
58.610145369
 21
-0.390107565
 31
3.000053406
  0
LINE
  5
A94
330
A02
100
AcDbEntity
  8
b_armpart2_001_
100
AcDbLine
 10
58.610145369
 20
-0.390107565
 30
1.000053406
 11
58.610145369
 21
-0.390107565
 31
3.000053406
  0
LINE
  5
A95
330
A02
100
AcDbEntity
  8
b_armpart2_001_
100
AcDbLine
 10
60.477689369
 20
1.477436435
 30
1.000053406
 11
60.477689369
 21
1.477436435
 31
3.000053406
  0
ARC
  5
A96
330
A02
100
AcDbEntity
  8
b_armpart2_001_
100
AcDbCircle
 10
58.610145369
 20
1.477436435
 30
1.000053406
 40
1.867544000
100
AcDbArc
 50
-90.000000000
 51
0.000000000
  0
ARC
  5
A97
330
A02
100
AcDbEntity
  8
b_armpart2_001_
100
AcDbCircle
 10
58.610145369
 20
1.477436435
 30
3.000053406
 40
1.867544000
100
AcDbArc
 50
-90.000000000
 51
0.000000000
  0
LINE
  5
A98
330
A02
100
AcDbEntity
  8
b_armpart2_001_
100
AcDbLine
 10
60.477689369
 20
1.477436435
 30
1.000053406
 11
60.477689369
 21
1.477436435
 31
3.000053406
  0
LINE
  5
A99
330
A02
100
AcDbEntity
  8
b_armpart2_001_
100
AcDbLine
 10
60.477689369
 20
78.068752435
 30
1.000053406
 11
60.477689369
 21
78.068752435
 31
3.000053406
  0
LINE
  5
A9A
330
A02
100
AcDbEntity
  8
b_armpart2_001_
100
AcDbLine
 10
60.477689369
 20
1.477436435
 30
1.000053406
 11
60.477689369
 21
78.068752435
 31
1.000053406
  0
LINE
  5
A9B
330
A02
100
AcDbEntity
  8
b_armpart2_001_
100
AcDbLine
 10
60.477689369
 20
1.477436435
 30
3.000053406
 11
60.477689369
 21
78.068752435
 31
3.000053406
  0
LINE
  5
A9C
330
A02
100
AcDbEntity
  8
b_armpart2_001_
100
AcDbLine
 10
60.477689369
 20
78.068752435
 30
1.000053406
 11
60.477689369
 21
78.068752435
 31
3.000053406
  0
LINE
  5
A9D
330
A02
100
AcDbEntity
  8
b_armpart2_001_
100
AcDbLine
 10
58.936549369
 20
79.609892435
 30
1.000053406
 11
58.936549369
 21
79.609892435
 31
3.000053406
  0
ARC
  5
A9E
330
A02
100
AcDbEntity
  8
b_armpart2_001_
100
AcDbCircle
 10
58.936549369
 20
78.068752435
 30
1.000053406
 40
1.541140000
100
AcDbArc
 50
0.000000000
 51
90.000000000
  0
ARC
  5
A9F
330
A02
100
AcDbEntity
  8
b_armpart2_001_
100
AcDbCircle
 10
58.936549369
 20
78.068752435
 30
3.000053406
 40
1.541140000
100
AcDbArc
 50
0.000000000
 51
90.000000000
  0
LINE
  5
AA0
330
A02
100
AcDbEntity
  8
b_armpart2_001_
100
AcDbLine
 10
58.936549369
 20
79.609892435
 30
1.000053406
 11
58.936549369
 21
79.609892435
 31
3.000053406
  0
LINE
  5
AA1
330
A02
100
AcDbEntity
  8
b_armpart2_001_
100
AcDbLine
 10
57.160465369
 20
79.609892435
 30
1.000053406
 11
57.160465369
 21
79.609892435
 31
3.000053406
  0
LINE
  5
AA2
330
A02
100
AcDbEntity
  8
b_armpart2_001_
100
AcDbLine
 10
58.936549369
 20
79.609892435
 30
1.000053406
 11
57.160465369
 21
79.609892435
 31
1.000053406
  0
LINE
  5
AA3
330
A02
100
AcDbEntity
  8
b_armpart2_001_
100
AcDbLine
 10
58.936549369
 20
79.609892435
 30
3.000053406
 11
57.160465369
 21
79.609892435
 31
3.000053406
  0
LINE
  5
AA4
330
A02
100
AcDbEntity
  8
b_armpart2_001_
100
AcDbLine
 10
57.160465369
 20
79.609892435
 30
1.000053406
 11
57.160465369
 21
79.609892435
 31
3.000053406
  0
LINE
  5
AA5
330
A02
100
AcDbEntity
  8
b_armpart2_001_
100
AcDbLine
 10
55.477689369
 20
77.927116435
 30
1.000053406
 11
55.477689369
 21
77.927116435
 31
3.000053406
  0
ARC
  5
AA6
330
A02
100
AcDbEntity
  8
b_armpart2_001_
100
AcDbCircle
 10
57.160465369
 20
77.927116435
 30
1.000053406
 40
1.682776000
100
AcDbArc
 50
90.000000000
 51
180.000000000
  0
ARC
  5
AA7
330
A02
100
AcDbEntity
  8
b_armpart2_001_
100
AcDbCircle
 10
57.160465369
 20
77.927116435
 30
3.000053406
 40
1.682776000
100
AcDbArc
 50
90.000000000
 51
180.000000000
  0
LINE
  5
AA8
330
A02
100
AcDbEntity
  8
b_armpart2_001_
100
AcDbLine
 10
57.977689369
 20
90.109892435
 30
1.000053406
 11
57.977689369
 21
90.109892435
 31
3.000053406
  0
LINE
  5
AA9
330
A02
100
AcDbEntity
  8
b_armpart2_001_
100
AcDbLine
 10
57.977689369
 20
90.109892435
 30
1.000053406
 11
57.977689369
 21
90.109892435
 31
3.000053406
  0
CIRCLE
  5
AAA
330
A02
100
AcDbEntity
  8
b_armpart2_001_
100
AcDbCircle
 10
57.977689369
 20
94.609892435
 30
1.000053406
 40
4.500000000
  0
CIRCLE
  5
AAB
330
A02
100
AcDbEntity
  8
b_armpart2_001_
100
AcDbCircle
 10
57.977689369
 20
94.609892435
 30
3.000053406
 40
4.500000000
  0
LINE
  5
AAC
330
A02
100
AcDbEntity
  8
b_armpart2_001_
100
AcDbLine
 10
57.977689369
 20
-19.890107565
 30
1.000053406
 11
57.977689369
 21
-19.890107565
 31
3.000053406
  0
LINE
  5
AAD
330
A02
100
AcDbEntity
  8
b_armpart2_001_
100
AcDbLine
 10
57.977689369
 20
-19.890107565
 30
1.000053406
 11
57.977689369
 21
-19.890107565
 31
3.000053406
  0
CIRCLE
  5
AAE
330
A02
100
AcDbEntity
  8
b_armpart2_001_
100
AcDbCircle
 10
57.977689369
 20
-15.390107565
 30
1.000053406
 40
4.500000000
  0
CIRCLE
  5
AAF
330
A02
100
AcDbEntity
  8
b_armpart2_001_
100
AcDbCircle
 10
57.977689369
 20
-15.390107565
 30
3.000053406
 40
4.500000000
  0
LINE
  5
AB0
330
A02
100
AcDbEntity
  8
b_armpart2_001_
100
AcDbLine
 10
42.977689369
 20
98.960511435
 30
1.000053406
 11
42.977689369
 21
-19.386176565
 31
1.000053406
  0
ARC
  5
AB1
330
A02
100
AcDbEntity
  8
b_armpart2_001_
100
AcDbCircle
 10
53.981620369
 20
-19.386176565
 30
1.000053406
 40
11.003931000
100
AcDbArc
 50
180.000000000
 51
-90.000000000
  0
LINE
  5
AB2
330
A02
100
AcDbEntity
  8
b_armpart2_001_
100
AcDbLine
 10
53.981620369
 20
-30.390107565
 30
1.000053406
 11
61.800755369
 21
-30.390107565
 31
1.000053406
  0
ARC
  5
AB3
330
A02
100
AcDbEntity
  8
b_armpart2_001_
100
AcDbCircle
 10
61.800755369
 20
-19.213173565
 30
1.000053406
 40
11.176934000
100
AcDbArc
 50
-90.000000000
 51
0.000000000
  0
LINE
  5
AB4
330
A02
100
AcDbEntity
  8
b_armpart2_001_
100
AcDbLine
 10
72.977689369
 20
-19.213173565
 30
1.000053406
 11
72.977689369
 21
99.752159435
 31
1.000053406
  0
ARC
  5
AB5
330
A02
100
AcDbEntity
  8
b_armpart2_001_
100
AcDbCircle
 10
63.119956369
 20
99.752159435
 30
1.000053406
 40
9.857733000
100
AcDbArc
 50
0.000000000
 51
90.000000000
  0
LINE
  5
AB6
330
A02
100
AcDbEntity
  8
b_armpart2_001_
100
AcDbLine
 10
63.119956369
 20
109.609892435
 30
1.000053406
 11
53.627070369
 21
109.609892435
 31
1.000053406
  0
ARC
  5
AB7
330
A02
100
AcDbEntity
  8
b_armpart2_001_
100
AcDbCircle
 10
53.627070369
 20
98.960511435
 30
1.000053406
 40
10.649381000
100
AcDbArc
 50
90.000000000
 51
180.000000000
  0
LINE
  5
AB8
330
A02
100
AcDbEntity
  8
b_armpart2_001_
100
AcDbLine
 10
55.477689369
 20
77.927116435
 30
1.000053406
 11
55.477689369
 21
1.227826435
 31
1.000053406
  0
ARC
  5
AB9
330
A02
100
AcDbEntity
  8
b_armpart2_001_
100
AcDbCircle
 10
57.095623369
 20
1.227826435
 30
1.000053406
 40
1.617934000
100
AcDbArc
 50
180.000000000
 51
-90.000000000
  0
LINE
  5
ABA
330
A02
100
AcDbEntity
  8
b_armpart2_001_
100
AcDbLine
 10
57.095623369
 20
-0.390107565
 30
1.000053406
 11
58.610145369
 21
-0.390107565
 31
1.000053406
  0
ARC
  5
ABB
330
A02
100
AcDbEntity
  8
b_armpart2_001_
100
AcDbCircle
 10
58.610145369
 20
1.477436435
 30
1.000053406
 40
1.867544000
100
AcDbArc
 50
-90.000000000
 51
0.000000000
  0
LINE
  5
ABC
330
A02
100
AcDbEntity
  8
b_armpart2_001_
100
AcDbLine
 10
60.477689369
 20
1.477436435
 30
1.000053406
 11
60.477689369
 21
78.068752435
 31
1.000053406
  0
ARC
  5
ABD
330
A02
100
AcDbEntity
  8
b_armpart2_001_
100
AcDbCircle
 10
58.936549369
 20
78.068752435
 30
1.000053406
 40
1.541140000
100
AcDbArc
 50
0.000000000
 51
90.000000000
  0
LINE
  5
ABE
330
A02
100
AcDbEntity
  8
b_armpart2_001_
100
AcDbLine
 10
58.936549369
 20
79.609892435
 30
1.000053406
 11
57.160465369
 21
79.609892435
 31
1.000053406
  0
ARC
  5
ABF
330
A02
100
AcDbEntity
  8
b_armpart2_001_
100
AcDbCircle
 10
57.160465369
 20
77.927116435
 30
1.000053406
 40
1.682776000
100
AcDbArc
 50
90.000000000
 51
180.000000000
  0
CIRCLE
  5
AC0
330
A02
100
AcDbEntity
  8
b_armpart2_001_
100
AcDbCircle
 10
57.977689369
 20
94.609892435
 30
1.000053406
 40
4.500000000
  0
CIRCLE
  5
AC1
330
A02
100
AcDbEntity
  8
b_armpart2_001_
100
AcDbCircle
 10
57.977689369
 20
-15.390107565
 30
1.000053406
 40
4.500000000
  0
LINE
  5
AC2
330
A02
100
AcDbEntity
  8
b_armpart2_001_
100
AcDbLine
 10
42.977689369
 20
98.960511435
 30
3.000053406
 11
42.977689369
 21
-19.386176565
 31
3.000053406
  0
ARC
  5
AC3
330
A02
100
AcDbEntity
  8
b_armpart2_001_
100
AcDbCircle
 10
53.981620369
 20
-19.386176565
 30
3.000053406
 40
11.003931000
100
AcDbArc
 50
180.000000000
 51
-90.000000000
  0
LINE
  5
AC4
330
A02
100
AcDbEntity
  8
b_armpart2_001_
100
AcDbLine
 10
53.981620369
 20
-30.390107565
 30
3.000053406
 11
61.800755369
 21
-30.390107565
 31
3.000053406
  0
ARC
  5
AC5
330
A02
100
AcDbEntity
  8
b_armpart2_001_
100
AcDbCircle
 10
61.800755369
 20
-19.213173565
 30
3.000053406
 40
11.176934000
100
AcDbArc
 50
-90.000000000
 51
0.000000000
  0
LINE
  5
AC6
330
A02
100
AcDbEntity
  8
b_armpart2_001_
100
AcDbLine
 10
72.977689369
 20
-19.213173565
 30
3.000053406
 11
72.977689369
 21
99.752159435
 31
3.000053406
  0
ARC
  5
AC7
330
A02
100
AcDbEntity
  8
b_armpart2_001_
100
AcDbCircle
 10
63.119956369
 20
99.752159435
 30
3.000053406
 40
9.857733000
100
AcDbArc
 50
0.000000000
 51
90.000000000
  0
LINE
  5
AC8
330
A02
100
AcDbEntity
  8
b_armpart2_001_
100
AcDbLine
 10
63.119956369
 20
109.609892435
 30
3.000053406
 11
53.627070369
 21
109.609892435
 31
3.000053406
  0
ARC
  5
AC9
330
A02
100
AcDbEntity
  8
b_armpart2_001_
100
AcDbCircle
 10
53.627070369
 20
98.960511435
 30
3.000053406
 40
10.649381000
100
AcDbArc
 50
90.000000000
 51
180.000000000
  0
LINE
  5
ACA
330
A02
100
AcDbEntity
  8
b_armpart2_001_
100
AcDbLine
 10
55.477689369
 20
77.927116435
 30
3.000053406
 11
55.477689369
 21
1.227826435
 31
3.000053406
  0
ARC
  5
ACB
330
A02
100
AcDbEntity
  8
b_armpart2_001_
100
AcDbCircle
 10
57.095623369
 20
1.227826435
 30
3.000053406
 40
1.617934000
100
AcDbArc
 50
180.000000000
 51
-90.000000000
  0
LINE
  5
ACC
330
A02
100
AcDbEntity
  8
b_armpart2_001_
100
AcDbLine
 10
57.095623369
 20
-0.390107565
 30
3.000053406
 11
58.610145369
 21
-0.390107565
 31
3.000053406
  0
ARC
  5
ACD
330
A02
100
AcDbEntity
  8
b_armpart2_001_
100
AcDbCircle
 10
58.610145369
 20
1.477436435
 30
3.000053406
 40
1.867544000
100
AcDbArc
 50
-90.000000000
 51
0.000000000
  0
LINE
  5
ACE
330
A02
100
AcDbEntity
  8
b_armpart2_001_
100
AcDbLine
 10
60.477689369
 20
1.477436435
 30
3.000053406
 11
60.477689369
 21
78.068752435
 31
3.000053406
  0
ARC
  5
ACF
330
A02
100
AcDbEntity
  8
b_armpart2_001_
100
AcDbCircle
 10
58.936549369
 20
78.068752435
 30
3.000053406
 40
1.541140000
100
AcDbArc
 50
0.000000000
 51
90.000000000
  0
LINE
  5
AD0
330
A02
100
AcDbEntity
  8
b_armpart2_001_
100
AcDbLine
 10
58.936549369
 20
79.609892435
 30
3.000053406
 11
57.160465369
 21
79.609892435
 31
3.000053406
  0
ARC
  5
AD1
330
A02
100
AcDbEntity
  8
b_armpart2_001_
100
AcDbCircle
 10
57.160465369
 20
77.927116435
 30
3.000053406
 40
1.682776000
100
AcDbArc
 50
90.000000000
 51
180.000000000
  0
CIRCLE
  5
AD2
330
A02
100
AcDbEntity
  8
b_armpart2_001_
100
AcDbCircle
 10
57.977689369
 20
94.609892435
 30
3.000053406
 40
4.500000000
  0
CIRCLE
  5
AD3
330
A02
100
AcDbEntity
  8
b_armpart2_001_
100
AcDbCircle
 10
57.977689369
 20
-15.390107565
 30
3.000053406
 40
4.500000000
  0
LINE
  5
AD4
330
A02
100
AcDbEntity
  8
b_Gripperpart_1_001_
100
AcDbLine
 10
2.536969388
 20
75.199205985
 30
1.000053406
 11
2.536969388
 21
75.199205985
 31
3.000053406
  0
LINE
  5
AD5
330
A02
100
AcDbEntity
  8
b_Gripperpart_1_001_
100
AcDbLine
 10
-17.678954612
 20
75.199205985
 30
1.000053406
 11
-17.678954612
 21
75.199205985
 31
3.000053406
  0
LINE
  5
AD6
330
A02
100
AcDbEntity
  8
b_Gripperpart_1_001_
100
AcDbLine
 10
2.536969388
 20
75.199205985
 30
1.000053406
 11
-17.678954612
 21
75.199205985
 31
1.000053406
  0
LINE
  5
AD7
330
A02
100
AcDbEntity
  8
b_Gripperpart_1_001_
100
AcDbLine
 10
2.536969388
 20
75.199205985
 30
3.000053406
 11
-17.678954612
 21
75.199205985
 31
3.000053406
  0
LINE
  5
AD8
330
A02
100
AcDbEntity
  8
b_Gripperpart_1_001_
100
AcDbLine
 10
-17.678954612
 20
75.199205985
 30
1.000053406
 11
-17.678954612
 21
75.199205985
 31
3.000053406
  0
LINE
  5
AD9
330
A02
100
AcDbEntity
  8
b_Gripperpart_1_001_
100
AcDbLine
 10
-22.439386612
 20
70.438773985
 30
1.000053406
 11
-22.439386612
 21
70.438773985
 31
3.000053406
  0
ARC
  5
ADA
330
A02
100
AcDbEntity
  8
b_Gripperpart_1_001_
100
AcDbCircle
 10
-17.678954612
 20
70.438773985
 30
1.000053406
 40
4.760432000
100
AcDbArc
 50
90.000000000
 51
180.000000000
  0
ARC
  5
ADB
330
A02
100
AcDbEntity
  8
b_Gripperpart_1_001_
100
AcDbCircle
 10
-17.678954612
 20
70.438773985
 30
3.000053406
 40
4.760432000
100
AcDbArc
 50
90.000000000
 51
180.000000000
  0
LINE
  5
ADC
330
A02
100
AcDbEntity
  8
b_Gripperpart_1_001_
100
AcDbLine
 10
-22.439386612
 20
70.438773985
 30
1.000053406
 11
-22.439386612
 21
70.438773985
 31
3.000053406
  0
LINE
  5
ADD
330
A02
100
AcDbEntity
  8
b_Gripperpart_1_001_
100
AcDbLine
 10
-22.439386612
 20
-14.791250015
 30
1.000053406
 11
-22.439386612
 21
-14.791250015
 31
3.000053406
  0
LINE
  5
ADE
330
A02
100
AcDbEntity
  8
b_Gripperpart_1_001_
100
AcDbLine
 10
-22.439386612
 20
70.438773985
 30
1.000053406
 11
-22.439386612
 21
-14.791250015
 31
1.000053406
  0
LINE
  5
ADF
330
A02
100
AcDbEntity
  8
b_Gripperpart_1_001_
100
AcDbLine
 10
-22.439386612
 20
70.438773985
 30
3.000053406
 11
-22.439386612
 21
-14.791250015
 31
3.000053406
  0
LINE
  5
AE0
330
A02
100
AcDbEntity
  8
b_Gripperpart_1_001_
100
AcDbLine
 10
-22.439386612
 20
-14.791250015
 30
1.000053406
 11
-22.439386612
 21
-14.791250015
 31
3.000053406
  0
LINE
  5
AE1
330
A02
100
AcDbEntity
  8
b_Gripperpart_1_001_
100
AcDbLine
 10
-17.429842612
 20
-19.800794015
 30
1.000053406
 11
-17.429842612
 21
-19.800794015
 31
3.000053406
  0
ARC
  5
AE2
330
A02
100
AcDbEntity
  8
b_Gripperpart_1_001_
100
AcDbCircle
 10
-17.429842612
 20
-14.791250015
 30
1.000053406
 40
5.009544000
100
AcDbArc
 50
180.000000000
 51
-90.000000000
  0
ARC
  5
AE3
330
A02
100
AcDbEntity
  8
b_Gripperpart_1_001_
100
AcDbCircle
 10
-17.429842612
 20
-14.791250015
 30
3.000053406
 40
5.009544000
100
AcDbArc
 50
180.000000000
 51
-90.000000000
  0
LINE
  5
AE4
330
A02
100
AcDbEntity
  8
b_Gripperpart_1_001_
100
AcDbLine
 10
-17.429842612
 20
-19.800794015
 30
1.000053406
 11
-17.429842612
 21
-19.800794015
 31
3.000053406
  0
LINE
  5
AE5
330
A02
100
AcDbEntity
  8
b_Gripperpart_1_001_
100
AcDbLine
 10
1.925446388
 20
-19.800794015
 30
1.000053406
 11
1.925446388
 21
-19.800794015
 31
3.000053406
  0
LINE
  5
AE6
330
A02
100
AcDbEntity
  8
b_Gripperpart_1_001_
100
AcDbLine
 10
-17.429842612
 20
-19.800794015
 30
1.000053406
 11
1.925446388
 21
-19.800794015
 31
1.000053406
  0
LINE
  5
AE7
330
A02
100
AcDbEntity
  8
b_Gripperpart_1_001_
100
AcDbLine
 10
-17.429842612
 20
-19.800794015
 30
3.000053406
 11
1.925446388
 21
-19.800794015
 31
3.000053406
  0
LINE
  5
AE8
330
A02
100
AcDbEntity
  8
b_Gripperpart_1_001_
100
AcDbLine
 10
1.925446388
 20
-19.800794015
 30
1.000053406
 11
1.925446388
 21
-19.800794015
 31
3.000053406
  0
LINE
  5
AE9
330
A02
100
AcDbEntity
  8
b_Gripperpart_1_001_
100
AcDbLine
 10
7.560613388
 20
-14.165627015
 30
1.000053406
 11
7.560613388
 21
-14.165627015
 31
3.000053406
  0
ARC
  5
AEA
330
A02
100
AcDbEntity
  8
b_Gripperpart_1_001_
100
AcDbCircle
 10
1.925446388
 20
-14.165627015
 30
1.000053406
 40
5.635167000
100
AcDbArc
 50
-90.000000000
 51
0.000000000
  0
ARC
  5
AEB
330
A02
100
AcDbEntity
  8
b_Gripperpart_1_001_
100
AcDbCircle
 10
1.925446388
 20
-14.165627015
 30
3.000053406
 40
5.635167000
100
AcDbArc
 50
-90.000000000
 51
0.000000000
  0
LINE
  5
AEC
330
A02
100
AcDbEntity
  8
b_Gripperpart_1_001_
100
AcDbLine
 10
7.560613388
 20
-14.165627015
 30
1.000053406
 11
7.560613388
 21
-14.165627015
 31
3.000053406
  0
LINE
  5
AED
330
A02
100
AcDbEntity
  8
b_Gripperpart_1_001_
100
AcDbLine
 10
7.560613388
 20
70.175561985
 30
1.000053406
 11
7.560613388
 21
70.175561985
 31
3.000053406
  0
LINE
  5
AEE
330
A02
100
AcDbEntity
  8
b_Gripperpart_1_001_
100
AcDbLine
 10
7.560613388
 20
-14.165627015
 30
1.000053406
 11
7.560613388
 21
70.175561985
 31
1.000053406
  0
LINE
  5
AEF
330
A02
100
AcDbEntity
  8
b_Gripperpart_1_001_
100
AcDbLine
 10
7.560613388
 20
-14.165627015
 30
3.000053406
 11
7.560613388
 21
70.175561985
 31
3.000053406
  0
LINE
  5
AF0
330
A02
100
AcDbEntity
  8
b_Gripperpart_1_001_
100
AcDbLine
 10
7.560613388
 20
70.175561985
 30
1.000053406
 11
7.560613388
 21
70.175561985
 31
3.000053406
  0
LINE
  5
AF1
330
A02
100
AcDbEntity
  8
b_Gripperpart_1_001_
100
AcDbLine
 10
2.536969388
 20
75.199205985
 30
1.000053406
 11
2.536969388
 21
75.199205985
 31
3.000053406
  0
ARC
  5
AF2
330
A02
100
AcDbEntity
  8
b_Gripperpart_1_001_
100
AcDbCircle
 10
2.536969388
 20
70.175561985
 30
1.000053406
 40
5.023644000
100
AcDbArc
 50
-0.000000000
 51
90.000000000
  0
ARC
  5
AF3
330
A02
100
AcDbEntity
  8
b_Gripperpart_1_001_
100
AcDbCircle
 10
2.536969388
 20
70.175561985
 30
3.000053406
 40
5.023644000
100
AcDbArc
 50
-0.000000000
 51
90.000000000
  0
LINE
  5
AF4
330
A02
100
AcDbEntity
  8
b_Gripperpart_1_001_
100
AcDbLine
 10
2.560613388
 20
25.199585992
 30
1.000053406
 11
2.560613388
 21
25.199585992
 31
3.000053406
  0
LINE
  5
AF5
330
A02
100
AcDbEntity
  8
b_Gripperpart_1_001_
100
AcDbLine
 10
2.560613388
 20
65.199585992
 30
1.000053406
 11
2.560613388
 21
65.199585992
 31
3.000053406
  0
LINE
  5
AF6
330
A02
100
AcDbEntity
  8
b_Gripperpart_1_001_
100
AcDbLine
 10
2.560613388
 20
25.199585992
 30
1.000053406
 11
2.560613388
 21
65.199585992
 31
1.000053406
  0
LINE
  5
AF7
330
A02
100
AcDbEntity
  8
b_Gripperpart_1_001_
100
AcDbLine
 10
2.560613388
 20
25.199585992
 30
3.000053406
 11
2.560613388
 21
65.199585992
 31
3.000053406
  0
LINE
  5
AF8
330
A02
100
AcDbEntity
  8
b_Gripperpart_1_001_
100
AcDbLine
 10
2.560613388
 20
65.199585992
 30
1.000053406
 11
2.560613388
 21
65.199585992
 31
3.000053406
  0
LINE
  5
AF9
330
A02
100
AcDbEntity
  8
b_Gripperpart_1_001_
100
AcDbLine
 10
-17.439386612
 20
65.199585992
 30
1.000053406
 11
-17.439386612
 21
65.199585992
 31
3.000053406
  0
LINE
  5
AFA
330
A02
100
AcDbEntity
  8
b_Gripperpart_1_001_
100
AcDbLine
 10
2.560613388
 20
65.199585992
 30
1.000053406
 11
-17.439386612
 21
65.199585992
 31
1.000053406
  0
LINE
  5
AFB
330
A02
100
AcDbEntity
  8
b_Gripperpart_1_001_
100
AcDbLine
 10
2.560613388
 20
65.199585992
 30
3.000053406
 11
-17.439386612
 21
65.199585992
 31
3.000053406
  0
LINE
  5
AFC
330
A02
100
AcDbEntity
  8
b_Gripperpart_1_001_
100
AcDbLine
 10
-17.439386612
 20
65.199585992
 30
1.000053406
 11
-17.439386612
 21
65.199585992
 31
3.000053406
  0
LINE
  5
AFD
330
A02
100
AcDbEntity
  8
b_Gripperpart_1_001_
100
AcDbLine
 10
-17.439386612
 20
25.199585992
 30
1.000053406
 11
-17.439386612
 21
25.199585992
 31
3.000053406
  0
LINE
  5
AFE
330
A02
100
AcDbEntity
  8
b_Gripperpart_1_001_
100
AcDbLine
 10
-17.439386612
 20
65.199585992
 30
1.000053406
 11
-17.439386612
 21
25.199585992
 31
1.000053406
  0
LINE
  5
AFF
330
A02
100
AcDbEntity
  8
b_Gripperpart_1_001_
100
AcDbLine
 10
-17.439386612
 20
65.199585992
 30
3.000053406
 11
-17.439386612
 21
25.199585992
 31
3.000053406
  0
LINE
  5
B00
330
A02
100
AcDbEntity
  8
b_Gripperpart_1_001_
100
AcDbLine
 10
-17.439386612
 20
25.199585992
 30
1.000053406
 11
-17.439386612
 21
25.199585992
 31
3.000053406
  0
LINE
  5
B01
330
A02
100
AcDbEntity
  8
b_Gripperpart_1_001_
100
AcDbLine
 10
2.560613388
 20
25.199585992
 30
1.000053406
 11
2.560613388
 21
25.199585992
 31
3.000053406
  0
LINE
  5
B02
330
A02
100
AcDbEntity
  8
b_Gripperpart_1_001_
100
AcDbLine
 10
-17.439386612
 20
25.199585992
 30
1.000053406
 11
2.560613388
 21
25.199585992
 31
1.000053406
  0
LINE
  5
B03
330
A02
100
AcDbEntity
  8
b_Gripperpart_1_001_
100
AcDbLine
 10
-17.439386612
 20
25.199585992
 30
3.000053406
 11
2.560613388
 21
25.199585992
 31
3.000053406
  0
LINE
  5
B04
330
A02
100
AcDbEntity
  8
b_Gripperpart_1_001_
100
AcDbLine
 10
2.536969388
 20
75.199205985
 30
1.000053406
 11
-17.678954612
 21
75.199205985
 31
1.000053406
  0
ARC
  5
B05
330
A02
100
AcDbEntity
  8
b_Gripperpart_1_001_
100
AcDbCircle
 10
-17.678954612
 20
70.438773985
 30
1.000053406
 40
4.760432000
100
AcDbArc
 50
90.000000000
 51
180.000000000
  0
LINE
  5
B06
330
A02
100
AcDbEntity
  8
b_Gripperpart_1_001_
100
AcDbLine
 10
-22.439386612
 20
70.438773985
 30
1.000053406
 11
-22.439386612
 21
-14.791250015
 31
1.000053406
  0
ARC
  5
B07
330
A02
100
AcDbEntity
  8
b_Gripperpart_1_001_
100
AcDbCircle
 10
-17.429842612
 20
-14.791250015
 30
1.000053406
 40
5.009544000
100
AcDbArc
 50
180.000000000
 51
-90.000000000
  0
LINE
  5
B08
330
A02
100
AcDbEntity
  8
b_Gripperpart_1_001_
100
AcDbLine
 10
-17.429842612
 20
-19.800794015
 30
1.000053406
 11
1.925446388
 21
-19.800794015
 31
1.000053406
  0
ARC
  5
B09
330
A02
100
AcDbEntity
  8
b_Gripperpart_1_001_
100
AcDbCircle
 10
1.925446388
 20
-14.165627015
 30
1.000053406
 40
5.635167000
100
AcDbArc
 50
-90.000000000
 51
0.000000000
  0
LINE
  5
B0A
330
A02
100
AcDbEntity
  8
b_Gripperpart_1_001_
100
AcDbLine
 10
7.560613388
 20
-14.165627015
 30
1.000053406
 11
7.560613388
 21
70.175561985
 31
1.000053406
  0
ARC
  5
B0B
330
A02
100
AcDbEntity
  8
b_Gripperpart_1_001_
100
AcDbCircle
 10
2.536969388
 20
70.175561985
 30
1.000053406
 40
5.023644000
100
AcDbArc
 50
-0.000000000
 51
90.000000000
  0
LINE
  5
B0C
330
A02
100
AcDbEntity
  8
b_Gripperpart_1_001_
100
AcDbLine
 10
2.560613388
 20
25.199585992
 30
1.000053406
 11
2.560613388
 21
65.199585992
 31
1.000053406
  0
LINE
  5
B0D
330
A02
100
AcDbEntity
  8
b_Gripperpart_1_001_
100
AcDbLine
 10
2.560613388
 20
65.199585992
 30
1.000053406
 11
-17.439386612
 21
65.199585992
 31
1.000053406
  0
LINE
  5
B0E
330
A02
100
AcDbEntity
  8
b_Gripperpart_1_001_
100
AcDbLine
 10
-17.439386612
 20
65.199585992
 30
1.000053406
 11
-17.439386612
 21
25.199585992
 31
1.000053406
  0
LINE
  5
B0F
330
A02
100
AcDbEntity
  8
b_Gripperpart_1_001_
100
AcDbLine
 10
-17.439386612
 20
25.199585992
 30
1.000053406
 11
2.560613388
 21
25.199585992
 31
1.000053406
  0
LINE
  5
B10
330
A02
100
AcDbEntity
  8
b_Gripperpart_1_001_
100
AcDbLine
 10
2.536969388
 20
75.199205985
 30
3.000053406
 11
-17.678954612
 21
75.199205985
 31
3.000053406
  0
ARC
  5
B11
330
A02
100
AcDbEntity
  8
b_Gripperpart_1_001_
100
AcDbCircle
 10
-17.678954612
 20
70.438773985
 30
3.000053406
 40
4.760432000
100
AcDbArc
 50
90.000000000
 51
180.000000000
  0
LINE
  5
B12
330
A02
100
AcDbEntity
  8
b_Gripperpart_1_001_
100
AcDbLine
 10
-22.439386612
 20
70.438773985
 30
3.000053406
 11
-22.439386612
 21
-14.791250015
 31
3.000053406
  0
ARC
  5
B13
330
A02
100
AcDbEntity
  8
b_Gripperpart_1_001_
100
AcDbCircle
 10
-17.429842612
 20
-14.791250015
 30
3.000053406
 40
5.009544000
100
AcDbArc
 50
180.000000000
 51
-90.000000000
  0
LINE
  5
B14
330
A02
100
AcDbEntity
  8
b_Gripperpart_1_001_
100
AcDbLine
 10
-17.429842612
 20
-19.800794015
 30
3.000053406
 11
1.925446388
 21
-19.800794015
 31
3.000053406
  0
ARC
  5
B15
330
A02
100
AcDbEntity
  8
b_Gripperpart_1_001_
100
AcDbCircle
 10
1.925446388
 20
-14.165627015
 30
3.000053406
 40
5.635167000
100
AcDbArc
 50
-90.000000000
 51
0.000000000
  0
LINE
  5
B16
330
A02
100
AcDbEntity
  8
b_Gripperpart_1_001_
100
AcDbLine
 10
7.560613388
 20
-14.165627015
 30
3.000053406
 11
7.560613388
 21
70.175561985
 31
3.000053406
  0
ARC
  5
B17
330
A02
100
AcDbEntity
  8
b_Gripperpart_1_001_
100
AcDbCircle
 10
2.536969388
 20
70.175561985
 30
3.000053406
 40
5.023644000
100
AcDbArc
 50
-0.000000000
 51
90.000000000
  0
LINE
  5
B18
330
A02
100
AcDbEntity
  8
b_Gripperpart_1_001_
100
AcDbLine
 10
2.560613388
 20
25.199585992
 30
3.000053406
 11
2.560613388
 21
65.199585992
 31
3.000053406
  0
LINE
  5
B19
330
A02
100
AcDbEntity
  8
b_Gripperpart_1_001_
100
AcDbLine
 10
2.560613388
 20
65.199585992
 30
3.000053406
 11
-17.439386612
 21
65.199585992
 31
3.000053406
  0
LINE
  5
B1A
330
A02
100
AcDbEntity
  8
b_Gripperpart_1_001_
100
AcDbLine
 10
-17.439386612
 20
65.199585992
 30
3.000053406
 11
-17.439386612
 21
25.199585992
 31
3.000053406
  0
LINE
  5
B1B
330
A02
100
AcDbEntity
  8
b_Gripperpart_1_001_
100
AcDbLine
 10
-17.439386612
 20
25.199585992
 30
3.000053406
 11
2.560613388
 21
25.199585992
 31
3.000053406
  0
LINE
  5
B1C
330
A02
100
AcDbEntity
  8
b_servobase_001_
100
AcDbLine
 10
96.891630830
 20
-105.798223119
 30
1.000053406
 11
96.891630830
 21
-105.798223119
 31
3.000053406
  0
LINE
  5
B1D
330
A02
100
AcDbEntity
  8
b_servobase_001_
100
AcDbLine
 10
71.210431527
 20
-60.679067203
 30
1.000053406
 11
71.210431527
 21
-60.679067203
 31
3.000053406
  0
LINE
  5
B1E
330
A02
100
AcDbEntity
  8
b_servobase_001_
100
AcDbLine
 10
96.891630830
 20
-105.798223119
 30
1.000053406
 11
71.210431527
 21
-60.679067203
 31
1.000053406
  0
LINE
  5
B1F
330
A02
100
AcDbEntity
  8
b_servobase_001_
100
AcDbLine
 10
96.891630830
 20
-105.798223119
 30
3.000053406
 11
71.210431527
 21
-60.679067203
 31
3.000053406
  0
LINE
  5
B20
330
A02
100
AcDbEntity
  8
b_servobase_001_
100
AcDbLine
 10
71.210431527
 20
-60.679067203
 30
1.000053406
 11
71.210431527
 21
-60.679067203
 31
3.000053406
  0
LINE
  5
B21
330
A02
100
AcDbEntity
  8
b_servobase_001_
100
AcDbLine
 10
64.531914571
 20
-56.795816510
 30
1.000053406
 11
64.531914571
 21
-56.795816510
 31
3.000053406
  0
ARC
  5
B22
330
A02
100
AcDbEntity
  8
b_servobase_001_
100
AcDbCircle
 10
64.531914571
 20
-64.480386654
 30
1.000053406
 40
7.684570144
100
AcDbArc
 50
29.647933247
 51
90.000000000
  0
ARC
  5
B23
330
A02
100
AcDbEntity
  8
b_servobase_001_
100
AcDbCircle
 10
64.531914571
 20
-64.480386654
 30
3.000053406
 40
7.684570144
100
AcDbArc
 50
29.647933247
 51
90.000000000
  0
LINE
  5
B24
330
A02
100
AcDbEntity
  8
b_servobase_001_
100
AcDbLine
 10
64.531914571
 20
-56.795816510
 30
1.000053406
 11
64.531914571
 21
-56.795816510
 31
3.000053406
  0
LINE
  5
B25
330
A02
100
AcDbEntity
  8
b_servobase_001_
100
AcDbLine
 10
11.567587513
 20
-56.795816510
 30
1.000053406
 11
11.567587513
 21
-56.795816510
 31
3.000053406
  0
LINE
  5
B26
330
A02
100
AcDbEntity
  8
b_servobase_001_
100
AcDbLine
 10
64.531914571
 20
-56.795816510
 30
1.000053406
 11
11.567587513
 21
-56.795816510
 31
1.000053406
  0
LINE
  5
B27
330
A02
100
AcDbEntity
  8
b_servobase_001_
100
AcDbLine
 10
64.531914571
 20
-56.795816510
 30
3.000053406
 11
11.567587513
 21
-56.795816510
 31
3.000053406
  0
LINE
  5
B28
330
A02
100
AcDbEntity
  8
b_servobase_001_
100
AcDbLine
 10
11.567587513
 20
-56.795816510
 30
1.000053406
 11
11.567587513
 21
-56.795816510
 31
3.000053406
  0
LINE
  5
B29
330
A02
100
AcDbEntity
  8
b_servobase_001_
100
AcDbLine
 10
5.828361776
 20
-60.133334880
 30
1.000053406
 11
5.828361776
 21
-60.133334880
 31
3.000053406
  0
ARC
  5
B2A
330
A02
100
AcDbEntity
  8
b_servobase_001_
100
AcDbCircle
 10
11.567587513
 20
-63.399187044
 30
1.000053406
 40
6.603370534
100
AcDbArc
 50
90.000000000
 51
150.358368755
  0
ARC
  5
B2B
330
A02
100
AcDbEntity
  8
b_servobase_001_
100
AcDbCircle
 10
11.567587513
 20
-63.399187044
 30
3.000053406
 40
6.603370534
100
AcDbArc
 50
90.000000000
 51
150.358368755
  0
LINE
  5
B2C
330
A02
100
AcDbEntity
  8
b_servobase_001_
100
AcDbLine
 10
5.828361776
 20
-60.133334880
 30
1.000053406
 11
5.828361776
 21
-60.133334880
 31
3.000053406
  0
LINE
  5
B2D
330
A02
100
AcDbEntity
  8
b_servobase_001_
100
AcDbLine
 10
-19.787001317
 20
-105.148339771
 30
1.000053406
 11
-19.787001317
 21
-105.148339771
 31
3.000053406
  0
LINE
  5
B2E
330
A02
100
AcDbEntity
  8
b_servobase_001_
100
AcDbLine
 10
5.828361776
 20
-60.133334880
 30
1.000053406
 11
-19.787001317
 21
-105.148339771
 31
1.000053406
  0
LINE
  5
B2F
330
A02
100
AcDbEntity
  8
b_servobase_001_
100
AcDbLine
 10
5.828361776
 20
-60.133334880
 30
3.000053406
 11
-19.787001317
 21
-105.148339771
 31
3.000053406
  0
LINE
  5
B30
330
A02
100
AcDbEntity
  8
b_servobase_001_
100
AcDbLine
 10
-19.787001317
 20
-105.148339771
 30
1.000053406
 11
-19.787001317
 21
-105.148339771
 31
3.000053406
  0
LINE
  5
B31
330
A02
100
AcDbEntity
  8
b_servobase_001_
100
AcDbLine
 10
-19.766344203
 20
-111.635701500
 30
1.000053406
 11
-19.766344203
 21
-111.635701500
 31
3.000053406
  0
ARC
  5
B32
330
A02
100
AcDbEntity
  8
b_servobase_001_
100
AcDbCircle
 10
-14.118400459
 20
-108.374003515
 30
1.000053406
 40
6.522111797
100
AcDbArc
 50
150.358368755
 51
-149.993486538
  0
ARC
  5
B33
330
A02
100
AcDbEntity
  8
b_servobase_001_
100
AcDbCircle
 10
-14.118400459
 20
-108.374003515
 30
3.000053406
 40
6.522111797
100
AcDbArc
 50
150.358368755
 51
-149.993486538
  0
LINE
  5
B34
330
A02
100
AcDbEntity
  8
b_servobase_001_
100
AcDbLine
 10
-19.766344203
 20
-111.635701500
 30
1.000053406
 11
-19.766344203
 21
-111.635701500
 31
3.000053406
  0
LINE
  5
B35
330
A02
100
AcDbEntity
  8
b_servobase_001_
100
AcDbLine
 10
6.315098782
 20
-156.798228325
 30
1.000053406
 11
6.315098782
 21
-156.798228325
 31
3.000053406
  0
LINE
  5
B36
330
A02
100
AcDbEntity
  8
b_servobase_001_
100
AcDbLine
 10
-19.766344203
 20
-111.635701500
 30
1.000053406
 11
6.315098782
 21
-156.798228325
 31
1.000053406
  0
LINE
  5
B37
330
A02
100
AcDbEntity
  8
b_servobase_001_
100
AcDbLine
 10
-19.766344203
 20
-111.635701500
 30
3.000053406
 11
6.315098782
 21
-156.798228325
 31
3.000053406
  0
LINE
  5
B38
330
A02
100
AcDbEntity
  8
b_servobase_001_
100
AcDbLine
 10
6.315098782
 20
-156.798228325
 30
1.000053406
 11
6.315098782
 21
-156.798228325
 31
3.000053406
  0
LINE
  5
B39
330
A02
100
AcDbEntity
  8
b_servobase_001_
100
AcDbLine
 10
12.461672336
 20
-160.346475573
 30
1.000053406
 11
12.461672336
 21
-160.346475573
 31
3.000053406
  0
ARC
  5
B3A
330
A02
100
AcDbEntity
  8
b_servobase_001_
100
AcDbCircle
 10
12.461650112
 20
-153.248583535
 30
1.000053406
 40
7.097892039
100
AcDbArc
 50
-149.993486538
 51
-89.999820607
  0
ARC
  5
B3B
330
A02
100
AcDbEntity
  8
b_servobase_001_
100
AcDbCircle
 10
12.461650112
 20
-153.248583535
 30
3.000053406
 40
7.097892039
100
AcDbArc
 50
-149.993486538
 51
-89.999820607
  0
LINE
  5
B3C
330
A02
100
AcDbEntity
  8
b_servobase_001_
100
AcDbLine
 10
12.461672336
 20
-160.346475573
 30
1.000053406
 11
12.461672336
 21
-160.346475573
 31
3.000053406
  0
LINE
  5
B3D
330
A02
100
AcDbEntity
  8
b_servobase_001_
100
AcDbLine
 10
65.042551220
 20
-160.346310942
 30
1.000053406
 11
65.042551220
 21
-160.346310942
 31
3.000053406
  0
LINE
  5
B3E
330
A02
100
AcDbEntity
  8
b_servobase_001_
100
AcDbLine
 10
12.461672336
 20
-160.346475573
 30
1.000053406
 11
65.042551220
 21
-160.346310942
 31
1.000053406
  0
LINE
  5
B3F
330
A02
100
AcDbEntity
  8
b_servobase_001_
100
AcDbLine
 10
12.461672336
 20
-160.346475573
 30
3.000053406
 11
65.042551220
 21
-160.346310942
 31
3.000053406
  0
LINE
  5
B40
330
A02
100
AcDbEntity
  8
b_servobase_001_
100
AcDbLine
 10
65.042551220
 20
-160.346310942
 30
1.000053406
 11
65.042551220
 21
-160.346310942
 31
3.000053406
  0
LINE
  5
B41
330
A02
100
AcDbEntity
  8
b_servobase_001_
100
AcDbLine
 10
70.024401773
 20
-157.470029645
 30
1.000053406
 11
70.024401773
 21
-157.470029645
 31
3.000053406
  0
ARC
  5
B42
330
A02
100
AcDbEntity
  8
b_servobase_001_
100
AcDbCircle
 10
65.042533209
 20
-154.593742771
 30
1.000053406
 40
5.752568172
100
AcDbArc
 50
-89.999820607
 51
-30.000032066
  0
ARC
  5
B43
330
A02
100
AcDbEntity
  8
b_servobase_001_
100
AcDbCircle
 10
65.042533209
 20
-154.593742771
 30
3.000053406
 40
5.752568172
100
AcDbArc
 50
-89.999820607
 51
-30.000032066
  0
LINE
  5
B44
330
A02
100
AcDbEntity
  8
b_servobase_001_
100
AcDbLine
 10
70.024401773
 20
-157.470029645
 30
1.000053406
 11
70.024401773
 21
-157.470029645
 31
3.000053406
  0
LINE
  5
B45
330
A02
100
AcDbEntity
  8
b_servobase_001_
100
AcDbLine
 10
96.875763831
 20
-110.962166417
 30
1.000053406
 11
96.875763831
 21
-110.962166417
 31
3.000053406
  0
LINE
  5
B46
330
A02
100
AcDbEntity
  8
b_servobase_001_
100
AcDbLine
 10
70.024401773
 20
-157.470029645
 30
1.000053406
 11
96.875763831
 21
-110.962166417
 31
1.000053406
  0
LINE
  5
B47
330
A02
100
AcDbEntity
  8
b_servobase_001_
100
AcDbLine
 10
70.024401773
 20
-157.470029645
 30
3.000053406
 11
96.875763831
 21
-110.962166417
 31
3.000053406
  0
LINE
  5
B48
330
A02
100
AcDbEntity
  8
b_servobase_001_
100
AcDbLine
 10
96.875763831
 20
-110.962166417
 30
1.000053406
 11
96.875763831
 21
-110.962166417
 31
3.000053406
  0
LINE
  5
B49
330
A02
100
AcDbEntity
  8
b_servobase_001_
100
AcDbLine
 10
96.891630830
 20
-105.798223119
 30
1.000053406
 11
96.891630830
 21
-105.798223119
 31
3.000053406
  0
ARC
  5
B4A
330
A02
100
AcDbEntity
  8
b_servobase_001_
100
AcDbCircle
 10
92.379693305
 20
-108.366355533
 30
1.000053406
 40
5.191616735
100
AcDbArc
 50
-30.000032066
 51
29.647933247
  0
ARC
  5
B4B
330
A02
100
AcDbEntity
  8
b_servobase_001_
100
AcDbCircle
 10
92.379693305
 20
-108.366355533
 30
3.000053406
 40
5.191616735
100
AcDbArc
 50
-30.000032066
 51
29.647933247
  0
LINE
  5
B4C
330
A02
100
AcDbEntity
  8
b_servobase_001_
100
AcDbLine
 10
42.863842010
 20
-108.384742737
 30
1.000053406
 11
42.863842010
 21
-108.384742737
 31
3.000053406
  0
LINE
  5
B4D
330
A02
100
AcDbEntity
  8
b_servobase_001_
100
AcDbLine
 10
42.863842010
 20
-108.384742737
 30
1.000053406
 11
42.863842010
 21
-108.384742737
 31
3.000053406
  0
CIRCLE
  5
B4E
330
A02
100
AcDbEntity
  8
b_servobase_001_
100
AcDbCircle
 10
38.363842010
 20
-108.384742737
 30
1.000053406
 40
4.500000000
  0
CIRCLE
  5
B4F
330
A02
100
AcDbEntity
  8
b_servobase_001_
100
AcDbCircle
 10
38.363842010
 20
-108.384742737
 30
3.000053406
 40
4.500000000
  0
LINE
  5
B50
330
A02
100
AcDbEntity
  8
b_servobase_001_
100
AcDbLine
 10
96.891630830
 20
-105.798223119
 30
1.000053406
 11
71.210431527
 21
-60.679067203
 31
1.000053406
  0
ARC
  5
B51
330
A02
100
AcDbEntity
  8
b_servobase_001_
100
AcDbCircle
 10
64.531914571
 20
-64.480386654
 30
1.000053406
 40
7.684570144
100
AcDbArc
 50
29.647933247
 51
90.000000000
  0
LINE
  5
B52
330
A02
100
AcDbEntity
  8
b_servobase_001_
100
AcDbLine
 10
64.531914571
 20
-56.795816510
 30
1.000053406
 11
11.567587513
 21
-56.795816510
 31
1.000053406
  0
ARC
  5
B53
330
A02
100
AcDbEntity
  8
b_servobase_001_
100
AcDbCircle
 10
11.567587513
 20
-63.399187044
 30
1.000053406
 40
6.603370534
100
AcDbArc
 50
90.000000000
 51
150.358368755
  0
LINE
  5
B54
330
A02
100
AcDbEntity
  8
b_servobase_001_
100
AcDbLine
 10
5.828361776
 20
-60.133334880
 30
1.000053406
 11
-19.787001317
 21
-105.148339771
 31
1.000053406
  0
ARC
  5
B55
330
A02
100
AcDbEntity
  8
b_servobase_001_
100
AcDbCircle
 10
-14.118400459
 20
-108.374003515
 30
1.000053406
 40
6.522111797
100
AcDbArc
 50
150.358368755
 51
-149.993486538
  0
LINE
  5
B56
330
A02
100
AcDbEntity
  8
b_servobase_001_
100
AcDbLine
 10
-19.766344203
 20
-111.635701500
 30
1.000053406
 11
6.315098782
 21
-156.798228325
 31
1.000053406
  0
ARC
  5
B57
330
A02
100
AcDbEntity
  8
b_servobase_001_
100
AcDbCircle
 10
12.461650112
 20
-153.248583535
 30
1.000053406
 40
7.097892039
100
AcDbArc
 50
-149.993486538
 51
-89.999820607
  0
LINE
  5
B58
330
A02
100
AcDbEntity
  8
b_servobase_001_
100
AcDbLine
 10
12.461672336
 20
-160.346475573
 30
1.000053406
 11
65.042551220
 21
-160.346310942
 31
1.000053406
  0
ARC
  5
B59
330
A02
100
AcDbEntity
  8
b_servobase_001_
100
AcDbCircle
 10
65.042533209
 20
-154.593742771
 30
1.000053406
 40
5.752568172
100
AcDbArc
 50
-89.999820607
 51
-30.000032066
  0
LINE
  5
B5A
330
A02
100
AcDbEntity
  8
b_servobase_001_
100
AcDbLine
 10
70.024401773
 20
-157.470029645
 30
1.000053406
 11
96.875763831
 21
-110.962166417
 31
1.000053406
  0
ARC
  5
B5B
330
A02
100
AcDbEntity
  8
b_servobase_001_
100
AcDbCircle
 10
92.379693305
 20
-108.366355533
 30
1.000053406
 40
5.191616735
100
AcDbArc
 50
-30.000032066
 51
29.647933247
  0
CIRCLE
  5
B5C
330
A02
100
AcDbEntity
  8
b_servobase_001_
100
AcDbCircle
 10
38.363842010
 20
-108.384742737
 30
1.000053406
 40
4.500000000
  0
LINE
  5
B5D
330
A02
100
AcDbEntity
  8
b_servobase_001_
100
AcDbLine
 10
96.891630830
 20
-105.798223119
 30
3.000053406
 11
71.210431527
 21
-60.679067203
 31
3.000053406
  0
ARC
  5
B5E
330
A02
100
AcDbEntity
  8
b_servobase_001_
100
AcDbCircle
 10
64.531914571
 20
-64.480386654
 30
3.000053406
 40
7.684570144
100
AcDbArc
 50
29.647933247
 51
90.000000000
  0
LINE
  5
B5F
330
A02
100
AcDbEntity
  8
b_servobase_001_
100
AcDbLine
 10
64.531914571
 20
-56.795816510
 30
3.000053406
 11
11.567587513
 21
-56.795816510
 31
3.000053406
  0
ARC
  5
B60
330
A02
100
AcDbEntity
  8
b_servobase_001_
100
AcDbCircle
 10
11.567587513
 20
-63.399187044
 30
3.000053406
 40
6.603370534
100
AcDbArc
 50
90.000000000
 51
150.358368755
  0
LINE
  5
B61
330
A02
100
AcDbEntity
  8
b_servobase_001_
100
AcDbLine
 10
5.828361776
 20
-60.133334880
 30
3.000053406
 11
-19.787001317
 21
-105.148339771
 31
3.000053406
  0
ARC
  5
B62
330
A02
100
AcDbEntity
  8
b_servobase_001_
100
AcDbCircle
 10
-14.118400459
 20
-108.374003515
 30
3.000053406
 40
6.522111797
100
AcDbArc
 50
150.358368755
 51
-149.993486538
  0
LINE
  5
B63
330
A02
100
AcDbEntity
  8
b_servobase_001_
100
AcDbLine
 10
-19.766344203
 20
-111.635701500
 30
3.000053406
 11
6.315098782
 21
-156.798228325
 31
3.000053406
  0
ARC
  5
B64
330
A02
100
AcDbEntity
  8
b_servobase_001_
100
AcDbCircle
 10
12.461650112
 20
-153.248583535
 30
3.000053406
 40
7.097892039
100
AcDbArc
 50
-149.993486538
 51
-89.999820607
  0
LINE
  5
B65
330
A02
100
AcDbEntity
  8
b_servobase_001_
100
AcDbLine
 10
12.461672336
 20
-160.346475573
 30
3.000053406
 11
65.042551220
 21
-160.346310942
 31
3.000053406
  0
ARC
  5
B66
330
A02
100
AcDbEntity
  8
b_servobase_001_
100
AcDbCircle
 10
65.042533209
 20
-154.593742771
 30
3.000053406
 40
5.752568172
100
AcDbArc
 50
-89.999820607
 51
-30.000032066
  0
LINE
  5
B67
330
A02
100
AcDbEntity
  8
b_servobase_001_
100
AcDbLine
 10
70.024401773
 20
-157.470029645
 30
3.000053406
 11
96.875763831
 21
-110.962166417
 31
3.000053406
  0
ARC
  5
B68
330
A02
100
AcDbEntity
  8
b_servobase_001_
100
AcDbCircle
 10
92.379693305
 20
-108.366355533
 30
3.000053406
 40
5.191616735
100
AcDbArc
 50
-30.000032066
 51
29.647933247
  0
CIRCLE
  5
B69
330
A02
100
AcDbEntity
  8
b_servobase_001_
100
AcDbCircle
 10
38.363842010
 20
-108.384742737
 30
3.000053406
 40
4.500000000
  0
LINE
  5
B6A
330
A02
100
AcDbEntity
  8
b_armpart_001_
100
AcDbLine
 10
-55.292128156
 20
-49.545612480
 30
0.000000000
 11
-55.292128156
 21
-49.545612480
 31
2.000000000
  0
LINE
  5
B6B
330
A02
100
AcDbEntity
  8
b_armpart_001_
100
AcDbLine
 10
-55.292128156
 20
70.243032520
 30
0.000000000
 11
-55.292128156
 21
70.243032520
 31
2.000000000
  0
LINE
  5
B6C
330
A02
100
AcDbEntity
  8
b_armpart_001_
100
AcDbLine
 10
-55.292128156
 20
-49.545612480
 30
0.000000000
 11
-55.292128156
 21
70.243032520
 31
0.000000000
  0
LINE
  5
B6D
330
A02
100
AcDbEntity
  8
b_armpart_001_
100
AcDbLine
 10
-55.292128156
 20
-49.545612480
 30
2.000000000
 11
-55.292128156
 21
70.243032520
 31
2.000000000
  0
LINE
  5
B6E
330
A02
100
AcDbEntity
  8
b_armpart_001_
100
AcDbLine
 10
-50.299137156
 20
75.236023520
 30
0.000000000
 11
-50.299137156
 21
75.236023520
 31
2.000000000
  0
LINE
  5
B6F
330
A02
100
AcDbEntity
  8
b_armpart_001_
100
AcDbLine
 10
-55.292128156
 20
70.243032520
 30
0.000000000
 11
-55.292128156
 21
70.243032520
 31
2.000000000
  0
ARC
  5
B70
330
A02
100
AcDbEntity
  8
b_armpart_001_
100
AcDbCircle
 10
-50.299137156
 20
70.243032520
 30
0.000000000
 40
4.992991000
100
AcDbArc
 50
90.000000000
 51
180.000000000
  0
ARC
  5
B71
330
A02
100
AcDbEntity
  8
b_armpart_001_
100
AcDbCircle
 10
-50.299137156
 20
70.243032520
 30
2.000000000
 40
4.992991000
100
AcDbArc
 50
90.000000000
 51
180.000000000
  0
LINE
  5
B72
330
A02
100
AcDbEntity
  8
b_armpart_001_
100
AcDbLine
 10
-50.299137156
 20
75.236023520
 30
0.000000000
 11
-50.299137156
 21
75.236023520
 31
2.000000000
  0
LINE
  5
B73
330
A02
100
AcDbEntity
  8
b_armpart_001_
100
AcDbLine
 10
-30.333879156
 20
75.236023520
 30
0.000000000
 11
-30.333879156
 21
75.236023520
 31
2.000000000
  0
LINE
  5
B74
330
A02
100
AcDbEntity
  8
b_armpart_001_
100
AcDbLine
 10
-50.299137156
 20
75.236023520
 30
0.000000000
 11
-30.333879156
 21
75.236023520
 31
0.000000000
  0
LINE
  5
B75
330
A02
100
AcDbEntity
  8
b_armpart_001_
100
AcDbLine
 10
-50.299137156
 20
75.236023520
 30
2.000000000
 11
-30.333879156
 21
75.236023520
 31
2.000000000
  0
LINE
  5
B76
330
A02
100
AcDbEntity
  8
b_armpart_001_
100
AcDbLine
 10
-25.292128156
 20
70.194272520
 30
0.000000000
 11
-25.292128156
 21
70.194272520
 31
2.000000000
  0
LINE
  5
B77
330
A02
100
AcDbEntity
  8
b_armpart_001_
100
AcDbLine
 10
-30.333879156
 20
75.236023520
 30
0.000000000
 11
-30.333879156
 21
75.236023520
 31
2.000000000
  0
ARC
  5
B78
330
A02
100
AcDbEntity
  8
b_armpart_001_
100
AcDbCircle
 10
-30.333879156
 20
70.194272520
 30
0.000000000
 40
5.041751000
100
AcDbArc
 50
0.000000000
 51
90.000000000
  0
ARC
  5
B79
330
A02
100
AcDbEntity
  8
b_armpart_001_
100
AcDbCircle
 10
-30.333879156
 20
70.194272520
 30
2.000000000
 40
5.041751000
100
AcDbArc
 50
0.000000000
 51
90.000000000
  0
LINE
  5
B7A
330
A02
100
AcDbEntity
  8
b_armpart_001_
100
AcDbLine
 10
-25.292128156
 20
70.194272520
 30
0.000000000
 11
-25.292128156
 21
70.194272520
 31
2.000000000
  0
LINE
  5
B7B
330
A02
100
AcDbEntity
  8
b_armpart_001_
100
AcDbLine
 10
-25.292128156
 20
-19.908774480
 30
0.000000000
 11
-25.292128156
 21
-19.908774480
 31
2.000000000
  0
LINE
  5
B7C
330
A02
100
AcDbEntity
  8
b_armpart_001_
100
AcDbLine
 10
-25.292128156
 20
70.194272520
 30
0.000000000
 11
-25.292128156
 21
-19.908774480
 31
0.000000000
  0
LINE
  5
B7D
330
A02
100
AcDbEntity
  8
b_armpart_001_
100
AcDbLine
 10
-25.292128156
 20
70.194272520
 30
2.000000000
 11
-25.292128156
 21
-19.908774480
 31
2.000000000
  0
LINE
  5
B7E
330
A02
100
AcDbEntity
  8
b_armpart_001_
100
AcDbLine
 10
-25.292128156
 20
-19.908774480
 30
0.000000000
 11
-25.292128156
 21
-19.908774480
 31
2.000000000
  0
LINE
  5
B7F
330
A02
100
AcDbEntity
  8
b_armpart_001_
100
AcDbLine
 10
-20.436926156
 20
-24.763976480
 30
0.000000000
 11
-20.436926156
 21
-24.763976480
 31
2.000000000
  0
ARC
  5
B80
330
A02
100
AcDbEntity
  8
b_armpart_001_
100
AcDbCircle
 10
-20.436926156
 20
-19.908774480
 30
0.000000000
 40
4.855202000
100
AcDbArc
 50
180.000000000
 51
-90.000000000
  0
ARC
  5
B81
330
A02
100
AcDbEntity
  8
b_armpart_001_
100
AcDbCircle
 10
-20.436926156
 20
-19.908774480
 30
2.000000000
 40
4.855202000
100
AcDbArc
 50
180.000000000
 51
-90.000000000
  0
LINE
  5
B82
330
A02
100
AcDbEntity
  8
b_armpart_001_
100
AcDbLine
 10
-20.436926156
 20
-24.763976480
 30
0.000000000
 11
-20.436926156
 21
-24.763976480
 31
2.000000000
  0
LINE
  5
B83
330
A02
100
AcDbEntity
  8
b_armpart_001_
100
AcDbLine
 10
34.296752844
 20
-24.763976480
 30
0.000000000
 11
34.296752844
 21
-24.763976480
 31
2.000000000
  0
LINE
  5
B84
330
A02
100
AcDbEntity
  8
b_armpart_001_
100
AcDbLine
 10
-20.436926156
 20
-24.763976480
 30
0.000000000
 11
34.296752844
 21
-24.763976480
 31
0.000000000
  0
LINE
  5
B85
330
A02
100
AcDbEntity
  8
b_armpart_001_
100
AcDbLine
 10
-20.436926156
 20
-24.763976480
 30
2.000000000
 11
34.296752844
 21
-24.763976480
 31
2.000000000
  0
LINE
  5
B86
330
A02
100
AcDbEntity
  8
b_armpart_001_
100
AcDbLine
 10
39.707871844
 20
-30.175095480
 30
0.000000000
 11
39.707871844
 21
-30.175095480
 31
2.000000000
  0
LINE
  5
B87
330
A02
100
AcDbEntity
  8
b_armpart_001_
100
AcDbLine
 10
34.296752844
 20
-24.763976480
 30
0.000000000
 11
34.296752844
 21
-24.763976480
 31
2.000000000
  0
ARC
  5
B88
330
A02
100
AcDbEntity
  8
b_armpart_001_
100
AcDbCircle
 10
34.296752844
 20
-30.175095480
 30
0.000000000
 40
5.411119000
100
AcDbArc
 50
0.000000000
 51
90.000000000
  0
ARC
  5
B89
330
A02
100
AcDbEntity
  8
b_armpart_001_
100
AcDbCircle
 10
34.296752844
 20
-30.175095480
 30
2.000000000
 40
5.411119000
100
AcDbArc
 50
0.000000000
 51
90.000000000
  0
LINE
  5
B8A
330
A02
100
AcDbEntity
  8
b_armpart_001_
100
AcDbLine
 10
39.707871844
 20
-30.175095480
 30
0.000000000
 11
39.707871844
 21
-30.175095480
 31
2.000000000
  0
LINE
  5
B8B
330
A02
100
AcDbEntity
  8
b_armpart_001_
100
AcDbLine
 10
39.707871844
 20
-49.097936480
 30
0.000000000
 11
39.707871844
 21
-49.097936480
 31
2.000000000
  0
LINE
  5
B8C
330
A02
100
AcDbEntity
  8
b_armpart_001_
100
AcDbLine
 10
39.707871844
 20
-30.175095480
 30
0.000000000
 11
39.707871844
 21
-49.097936480
 31
0.000000000
  0
LINE
  5
B8D
330
A02
100
AcDbEntity
  8
b_armpart_001_
100
AcDbLine
 10
39.707871844
 20
-30.175095480
 30
2.000000000
 11
39.707871844
 21
-49.097936480
 31
2.000000000
  0
LINE
  5
B8E
330
A02
100
AcDbEntity
  8
b_armpart_001_
100
AcDbLine
 10
34.041831844
 20
-54.763976480
 30
0.000000000
 11
34.041831844
 21
-54.763976480
 31
2.000000000
  0
LINE
  5
B8F
330
A02
100
AcDbEntity
  8
b_armpart_001_
100
AcDbLine
 10
39.707871844
 20
-49.097936480
 30
0.000000000
 11
39.707871844
 21
-49.097936480
 31
2.000000000
  0
ARC
  5
B90
330
A02
100
AcDbEntity
  8
b_armpart_001_
100
AcDbCircle
 10
34.041831844
 20
-49.097936480
 30
0.000000000
 40
5.666040000
100
AcDbArc
 50
-90.000000000
 51
0.000000000
  0
ARC
  5
B91
330
A02
100
AcDbEntity
  8
b_armpart_001_
100
AcDbCircle
 10
34.041831844
 20
-49.097936480
 30
2.000000000
 40
5.666040000
100
AcDbArc
 50
-90.000000000
 51
0.000000000
  0
LINE
  5
B92
330
A02
100
AcDbEntity
  8
b_armpart_001_
100
AcDbLine
 10
34.041831844
 20
-54.763976480
 30
0.000000000
 11
34.041831844
 21
-54.763976480
 31
2.000000000
  0
LINE
  5
B93
330
A02
100
AcDbEntity
  8
b_armpart_001_
100
AcDbLine
 10
-50.073764156
 20
-54.763976480
 30
0.000000000
 11
-50.073764156
 21
-54.763976480
 31
2.000000000
  0
LINE
  5
B94
330
A02
100
AcDbEntity
  8
b_armpart_001_
100
AcDbLine
 10
34.041831844
 20
-54.763976480
 30
0.000000000
 11
-50.073764156
 21
-54.763976480
 31
0.000000000
  0
LINE
  5
B95
330
A02
100
AcDbEntity
  8
b_armpart_001_
100
AcDbLine
 10
34.041831844
 20
-54.763976480
 30
2.000000000
 11
-50.073764156
 21
-54.763976480
 31
2.000000000
  0
LINE
  5
B96
330
A02
100
AcDbEntity
  8
b_armpart_001_
100
AcDbLine
 10
-55.292128156
 20
-49.545612480
 30
0.000000000
 11
-55.292128156
 21
-49.545612480
 31
2.000000000
  0
LINE
  5
B97
330
A02
100
AcDbEntity
  8
b_armpart_001_
100
AcDbLine
 10
-50.073764156
 20
-54.763976480
 30
0.000000000
 11
-50.073764156
 21
-54.763976480
 31
2.000000000
  0
ARC
  5
B98
330
A02
100
AcDbEntity
  8
b_armpart_001_
100
AcDbCircle
 10
-50.073764156
 20
-49.545612480
 30
0.000000000
 40
5.218364000
100
AcDbArc
 50
180.000000000
 51
-90.000000000
  0
ARC
  5
B99
330
A02
100
AcDbEntity
  8
b_armpart_001_
100
AcDbCircle
 10
-50.073764156
 20
-49.545612480
 30
2.000000000
 40
5.218364000
100
AcDbArc
 50
180.000000000
 51
-90.000000000
  0
LINE
  5
B9A
330
A02
100
AcDbEntity
  8
b_armpart_001_
100
AcDbLine
 10
-37.792128156
 20
-46.135480480
 30
0.000000000
 11
-37.792128156
 21
-46.135480480
 31
2.000000000
  0
LINE
  5
B9B
330
A02
100
AcDbEntity
  8
b_armpart_001_
100
AcDbLine
 10
-37.792128156
 20
1.598628520
 30
0.000000000
 11
-37.792128156
 21
1.598628520
 31
2.000000000
  0
LINE
  5
B9C
330
A02
100
AcDbEntity
  8
b_armpart_001_
100
AcDbLine
 10
-37.792128156
 20
-46.135480480
 30
0.000000000
 11
-37.792128156
 21
1.598628520
 31
0.000000000
  0
LINE
  5
B9D
330
A02
100
AcDbEntity
  8
b_armpart_001_
100
AcDbLine
 10
-37.792128156
 20
-46.135480480
 30
2.000000000
 11
-37.792128156
 21
1.598628520
 31
2.000000000
  0
LINE
  5
B9E
330
A02
100
AcDbEntity
  8
b_armpart_001_
100
AcDbLine
 10
-37.792128156
 20
1.598628520
 30
0.000000000
 11
-37.792128156
 21
1.598628520
 31
2.000000000
  0
LINE
  5
B9F
330
A02
100
AcDbEntity
  8
b_armpart_001_
100
AcDbLine
 10
-38.929523156
 20
2.736023520
 30
0.000000000
 11
-38.929523156
 21
2.736023520
 31
2.000000000
  0
ARC
  5
BA0
330
A02
100
AcDbEntity
  8
b_armpart_001_
100
AcDbCircle
 10
-38.929523156
 20
1.598628520
 30
0.000000000
 40
1.137395000
100
AcDbArc
 50
0.000000000
 51
90.000000000
  0
ARC
  5
BA1
330
A02
100
AcDbEntity
  8
b_armpart_001_
100
AcDbCircle
 10
-38.929523156
 20
1.598628520
 30
2.000000000
 40
1.137395000
100
AcDbArc
 50
0.000000000
 51
90.000000000
  0
LINE
  5
BA2
330
A02
100
AcDbEntity
  8
b_armpart_001_
100
AcDbLine
 10
-38.929523156
 20
2.736023520
 30
0.000000000
 11
-38.929523156
 21
2.736023520
 31
2.000000000
  0
LINE
  5
BA3
330
A02
100
AcDbEntity
  8
b_armpart_001_
100
AcDbLine
 10
-41.318303156
 20
2.736023520
 30
0.000000000
 11
-41.318303156
 21
2.736023520
 31
2.000000000
  0
LINE
  5
BA4
330
A02
100
AcDbEntity
  8
b_armpart_001_
100
AcDbLine
 10
-38.929523156
 20
2.736023520
 30
0.000000000
 11
-41.318303156
 21
2.736023520
 31
0.000000000
  0
LINE
  5
BA5
330
A02
100
AcDbEntity
  8
b_armpart_001_
100
AcDbLine
 10
-38.929523156
 20
2.736023520
 30
2.000000000
 11
-41.318303156
 21
2.736023520
 31
2.000000000
  0
LINE
  5
BA6
330
A02
100
AcDbEntity
  8
b_armpart_001_
100
AcDbLine
 10
-41.318303156
 20
2.736023520
 30
0.000000000
 11
-41.318303156
 21
2.736023520
 31
2.000000000
  0
LINE
  5
BA7
330
A02
100
AcDbEntity
  8
b_armpart_001_
100
AcDbLine
 10
-42.792128156
 20
1.262198520
 30
0.000000000
 11
-42.792128156
 21
1.262198520
 31
2.000000000
  0
ARC
  5
BA8
330
A02
100
AcDbEntity
  8
b_armpart_001_
100
AcDbCircle
 10
-41.318303156
 20
1.262198520
 30
0.000000000
 40
1.473825000
100
AcDbArc
 50
90.000000000
 51
180.000000000
  0
ARC
  5
BA9
330
A02
100
AcDbEntity
  8
b_armpart_001_
100
AcDbCircle
 10
-41.318303156
 20
1.262198520
 30
2.000000000
 40
1.473825000
100
AcDbArc
 50
90.000000000
 51
180.000000000
  0
LINE
  5
BAA
330
A02
100
AcDbEntity
  8
b_armpart_001_
100
AcDbLine
 10
-42.792128156
 20
1.262198520
 30
0.000000000
 11
-42.792128156
 21
1.262198520
 31
2.000000000
  0
LINE
  5
BAB
330
A02
100
AcDbEntity
  8
b_armpart_001_
100
AcDbLine
 10
-42.792128156
 20
-45.729046480
 30
0.000000000
 11
-42.792128156
 21
-45.729046480
 31
2.000000000
  0
LINE
  5
BAC
330
A02
100
AcDbEntity
  8
b_armpart_001_
100
AcDbLine
 10
-42.792128156
 20
1.262198520
 30
0.000000000
 11
-42.792128156
 21
-45.729046480
 31
0.000000000
  0
LINE
  5
BAD
330
A02
100
AcDbEntity
  8
b_armpart_001_
100
AcDbLine
 10
-42.792128156
 20
1.262198520
 30
2.000000000
 11
-42.792128156
 21
-45.729046480
 31
2.000000000
  0
LINE
  5
BAE
330
A02
100
AcDbEntity
  8
b_armpart_001_
100
AcDbLine
 10
-42.792128156
 20
-45.729046480
 30
0.000000000
 11
-42.792128156
 21
-45.729046480
 31
2.000000000
  0
LINE
  5
BAF
330
A02
100
AcDbEntity
  8
b_armpart_001_
100
AcDbLine
 10
-41.257198156
 20
-47.263976480
 30
0.000000000
 11
-41.257198156
 21
-47.263976480
 31
2.000000000
  0
ARC
  5
BB0
330
A02
100
AcDbEntity
  8
b_armpart_001_
100
AcDbCircle
 10
-41.257198156
 20
-45.729046480
 30
0.000000000
 40
1.534930000
100
AcDbArc
 50
180.000000000
 51
-90.000000000
  0
ARC
  5
BB1
330
A02
100
AcDbEntity
  8
b_armpart_001_
100
AcDbCircle
 10
-41.257198156
 20
-45.729046480
 30
2.000000000
 40
1.534930000
100
AcDbArc
 50
180.000000000
 51
-90.000000000
  0
LINE
  5
BB2
330
A02
100
AcDbEntity
  8
b_armpart_001_
100
AcDbLine
 10
-41.257198156
 20
-47.263976480
 30
0.000000000
 11
-41.257198156
 21
-47.263976480
 31
2.000000000
  0
LINE
  5
BB3
330
A02
100
AcDbEntity
  8
b_armpart_001_
100
AcDbLine
 10
-38.920624156
 20
-47.263976480
 30
0.000000000
 11
-38.920624156
 21
-47.263976480
 31
2.000000000
  0
LINE
  5
BB4
330
A02
100
AcDbEntity
  8
b_armpart_001_
100
AcDbLine
 10
-41.257198156
 20
-47.263976480
 30
0.000000000
 11
-38.920624156
 21
-47.263976480
 31
0.000000000
  0
LINE
  5
BB5
330
A02
100
AcDbEntity
  8
b_armpart_001_
100
AcDbLine
 10
-41.257198156
 20
-47.263976480
 30
2.000000000
 11
-38.920624156
 21
-47.263976480
 31
2.000000000
  0
LINE
  5
BB6
330
A02
100
AcDbEntity
  8
b_armpart_001_
100
AcDbLine
 10
-38.920624156
 20
-47.263976480
 30
0.000000000
 11
-38.920624156
 21
-47.263976480
 31
2.000000000
  0
LINE
  5
BB7
330
A02
100
AcDbEntity
  8
b_armpart_001_
100
AcDbLine
 10
-37.792128156
 20
-46.135480480
 30
0.000000000
 11
-37.792128156
 21
-46.135480480
 31
2.000000000
  0
ARC
  5
BB8
330
A02
100
AcDbEntity
  8
b_armpart_001_
100
AcDbCircle
 10
-38.920624156
 20
-46.135480480
 30
0.000000000
 40
1.128496000
100
AcDbArc
 50
-90.000000000
 51
0.000000000
  0
ARC
  5
BB9
330
A02
100
AcDbEntity
  8
b_armpart_001_
100
AcDbCircle
 10
-38.920624156
 20
-46.135480480
 30
2.000000000
 40
1.128496000
100
AcDbArc
 50
-90.000000000
 51
0.000000000
  0
LINE
  5
BBA
330
A02
100
AcDbEntity
  8
b_armpart_001_
100
AcDbLine
 10
29.708251851
 20
-29.763976480
 30
0.000000000
 11
29.708251851
 21
-29.763976480
 31
2.000000000
  0
LINE
  5
BBB
330
A02
100
AcDbEntity
  8
b_armpart_001_
100
AcDbLine
 10
-10.291748149
 20
-29.763976480
 30
0.000000000
 11
-10.291748149
 21
-29.763976480
 31
2.000000000
  0
LINE
  5
BBC
330
A02
100
AcDbEntity
  8
b_armpart_001_
100
AcDbLine
 10
29.708251851
 20
-29.763976480
 30
0.000000000
 11
-10.291748149
 21
-29.763976480
 31
0.000000000
  0
LINE
  5
BBD
330
A02
100
AcDbEntity
  8
b_armpart_001_
100
AcDbLine
 10
29.708251851
 20
-29.763976480
 30
2.000000000
 11
-10.291748149
 21
-29.763976480
 31
2.000000000
  0
LINE
  5
BBE
330
A02
100
AcDbEntity
  8
b_armpart_001_
100
AcDbLine
 10
-10.291748149
 20
-29.763976480
 30
0.000000000
 11
-10.291748149
 21
-29.763976480
 31
2.000000000
  0
LINE
  5
BBF
330
A02
100
AcDbEntity
  8
b_armpart_001_
100
AcDbLine
 10
-10.291748149
 20
-49.763976480
 30
0.000000000
 11
-10.291748149
 21
-49.763976480
 31
2.000000000
  0
LINE
  5
BC0
330
A02
100
AcDbEntity
  8
b_armpart_001_
100
AcDbLine
 10
-10.291748149
 20
-29.763976480
 30
0.000000000
 11
-10.291748149
 21
-49.763976480
 31
0.000000000
  0
LINE
  5
BC1
330
A02
100
AcDbEntity
  8
b_armpart_001_
100
AcDbLine
 10
-10.291748149
 20
-29.763976480
 30
2.000000000
 11
-10.291748149
 21
-49.763976480
 31
2.000000000
  0
LINE
  5
BC2
330
A02
100
AcDbEntity
  8
b_armpart_001_
100
AcDbLine
 10
-10.291748149
 20
-49.763976480
 30
0.000000000
 11
-10.291748149
 21
-49.763976480
 31
2.000000000
  0
LINE
  5
BC3
330
A02
100
AcDbEntity
  8
b_armpart_001_
100
AcDbLine
 10
29.708251851
 20
-49.763976480
 30
0.000000000
 11
29.708251851
 21
-49.763976480
 31
2.000000000
  0
LINE
  5
BC4
330
A02
100
AcDbEntity
  8
b_armpart_001_
100
AcDbLine
 10
-10.291748149
 20
-49.763976480
 30
0.000000000
 11
29.708251851
 21
-49.763976480
 31
0.000000000
  0
LINE
  5
BC5
330
A02
100
AcDbEntity
  8
b_armpart_001_
100
AcDbLine
 10
-10.291748149
 20
-49.763976480
 30
2.000000000
 11
29.708251851
 21
-49.763976480
 31
2.000000000
  0
LINE
  5
BC6
330
A02
100
AcDbEntity
  8
b_armpart_001_
100
AcDbLine
 10
29.708251851
 20
-49.763976480
 30
0.000000000
 11
29.708251851
 21
-49.763976480
 31
2.000000000
  0
LINE
  5
BC7
330
A02
100
AcDbEntity
  8
b_armpart_001_
100
AcDbLine
 10
29.708251851
 20
-29.763976480
 30
0.000000000
 11
29.708251851
 21
-29.763976480
 31
2.000000000
  0
LINE
  5
BC8
330
A02
100
AcDbEntity
  8
b_armpart_001_
100
AcDbLine
 10
29.708251851
 20
-49.763976480
 30
0.000000000
 11
29.708251851
 21
-29.763976480
 31
0.000000000
  0
LINE
  5
BC9
330
A02
100
AcDbEntity
  8
b_armpart_001_
100
AcDbLine
 10
29.708251851
 20
-49.763976480
 30
2.000000000
 11
29.708251851
 21
-29.763976480
 31
2.000000000
  0
LINE
  5
BCA
330
A02
100
AcDbEntity
  8
b_armpart_001_
100
AcDbLine
 10
-30.292128156
 20
65.236403527
 30
0.000000000
 11
-30.292128156
 21
65.236403527
 31
2.000000000
  0
LINE
  5
BCB
330
A02
100
AcDbEntity
  8
b_armpart_001_
100
AcDbLine
 10
-50.292128156
 20
65.236403527
 30
0.000000000
 11
-50.292128156
 21
65.236403527
 31
2.000000000
  0
LINE
  5
BCC
330
A02
100
AcDbEntity
  8
b_armpart_001_
100
AcDbLine
 10
-30.292128156
 20
65.236403527
 30
0.000000000
 11
-50.292128156
 21
65.236403527
 31
0.000000000
  0
LINE
  5
BCD
330
A02
100
AcDbEntity
  8
b_armpart_001_
100
AcDbLine
 10
-30.292128156
 20
65.236403527
 30
2.000000000
 11
-50.292128156
 21
65.236403527
 31
2.000000000
  0
LINE
  5
BCE
330
A02
100
AcDbEntity
  8
b_armpart_001_
100
AcDbLine
 10
-50.292128156
 20
65.236403527
 30
0.000000000
 11
-50.292128156
 21
65.236403527
 31
2.000000000
  0
LINE
  5
BCF
330
A02
100
AcDbEntity
  8
b_armpart_001_
100
AcDbLine
 10
-50.292128156
 20
25.236403527
 30
0.000000000
 11
-50.292128156
 21
25.236403527
 31
2.000000000
  0
LINE
  5
BD0
330
A02
100
AcDbEntity
  8
b_armpart_001_
100
AcDbLine
 10
-50.292128156
 20
65.236403527
 30
0.000000000
 11
-50.292128156
 21
25.236403527
 31
0.000000000
  0
LINE
  5
BD1
330
A02
100
AcDbEntity
  8
b_armpart_001_
100
AcDbLine
 10
-50.292128156
 20
65.236403527
 30
2.000000000
 11
-50.292128156
 21
25.236403527
 31
2.000000000
  0
LINE
  5
BD2
330
A02
100
AcDbEntity
  8
b_armpart_001_
100
AcDbLine
 10
-50.292128156
 20
25.236403527
 30
0.000000000
 11
-50.292128156
 21
25.236403527
 31
2.000000000
  0
LINE
  5
BD3
330
A02
100
AcDbEntity
  8
b_armpart_001_
100
AcDbLine
 10
-30.292128156
 20
25.236403527
 30
0.000000000
 11
-30.292128156
 21
25.236403527
 31
2.000000000
  0
LINE
  5
BD4
330
A02
100
AcDbEntity
  8
b_armpart_001_
100
AcDbLine
 10
-50.292128156
 20
25.236403527
 30
0.000000000
 11
-30.292128156
 21
25.236403527
 31
0.000000000
  0
LINE
  5
BD5
330
A02
100
AcDbEntity
  8
b_armpart_001_
100
AcDbLine
 10
-50.292128156
 20
25.236403527
 30
2.000000000
 11
-30.292128156
 21
25.236403527
 31
2.000000000
  0
LINE
  5
BD6
330
A02
100
AcDbEntity
  8
b_armpart_001_
100
AcDbLine
 10
-30.292128156
 20
25.236403527
 30
0.000000000
 11
-30.292128156
 21
25.236403527
 31
2.000000000
  0
LINE
  5
BD7
330
A02
100
AcDbEntity
  8
b_armpart_001_
100
AcDbLine
 10
-30.292128156
 20
65.236403527
 30
0.000000000
 11
-30.292128156
 21
65.236403527
 31
2.000000000
  0
LINE
  5
BD8
330
A02
100
AcDbEntity
  8
b_armpart_001_
100
AcDbLine
 10
-30.292128156
 20
25.236403527
 30
0.000000000
 11
-30.292128156
 21
65.236403527
 31
0.000000000
  0
LINE
  5
BD9
330
A02
100
AcDbEntity
  8
b_armpart_001_
100
AcDbLine
 10
-30.292128156
 20
25.236403527
 30
2.000000000
 11
-30.292128156
 21
65.236403527
 31
2.000000000
  0
LINE
  5
BDA
330
A02
100
AcDbEntity
  8
b_armpart_001_
100
AcDbLine
 10
-55.292128156
 20
-49.545612480
 30
0.000000000
 11
-55.292128156
 21
70.243032520
 31
0.000000000
  0
ARC
  5
BDB
330
A02
100
AcDbEntity
  8
b_armpart_001_
100
AcDbCircle
 10
-50.299137156
 20
70.243032520
 30
0.000000000
 40
4.992991000
100
AcDbArc
 50
90.000000000
 51
180.000000000
  0
LINE
  5
BDC
330
A02
100
AcDbEntity
  8
b_armpart_001_
100
AcDbLine
 10
-50.299137156
 20
75.236023520
 30
0.000000000
 11
-30.333879156
 21
75.236023520
 31
0.000000000
  0
ARC
  5
BDD
330
A02
100
AcDbEntity
  8
b_armpart_001_
100
AcDbCircle
 10
-30.333879156
 20
70.194272520
 30
0.000000000
 40
5.041751000
100
AcDbArc
 50
0.000000000
 51
90.000000000
  0
LINE
  5
BDE
330
A02
100
AcDbEntity
  8
b_armpart_001_
100
AcDbLine
 10
-25.292128156
 20
70.194272520
 30
0.000000000
 11
-25.292128156
 21
-19.908774480
 31
0.000000000
  0
ARC
  5
BDF
330
A02
100
AcDbEntity
  8
b_armpart_001_
100
AcDbCircle
 10
-20.436926156
 20
-19.908774480
 30
0.000000000
 40
4.855202000
100
AcDbArc
 50
180.000000000
 51
-90.000000000
  0
LINE
  5
BE0
330
A02
100
AcDbEntity
  8
b_armpart_001_
100
AcDbLine
 10
-20.436926156
 20
-24.763976480
 30
0.000000000
 11
34.296752844
 21
-24.763976480
 31
0.000000000
  0
ARC
  5
BE1
330
A02
100
AcDbEntity
  8
b_armpart_001_
100
AcDbCircle
 10
34.296752844
 20
-30.175095480
 30
0.000000000
 40
5.411119000
100
AcDbArc
 50
0.000000000
 51
90.000000000
  0
LINE
  5
BE2
330
A02
100
AcDbEntity
  8
b_armpart_001_
100
AcDbLine
 10
39.707871844
 20
-30.175095480
 30
0.000000000
 11
39.707871844
 21
-49.097936480
 31
0.000000000
  0
ARC
  5
BE3
330
A02
100
AcDbEntity
  8
b_armpart_001_
100
AcDbCircle
 10
34.041831844
 20
-49.097936480
 30
0.000000000
 40
5.666040000
100
AcDbArc
 50
-90.000000000
 51
0.000000000
  0
LINE
  5
BE4
330
A02
100
AcDbEntity
  8
b_armpart_001_
100
AcDbLine
 10
34.041831844
 20
-54.763976480
 30
0.000000000
 11
-50.073764156
 21
-54.763976480
 31
0.000000000
  0
ARC
  5
BE5
330
A02
100
AcDbEntity
  8
b_armpart_001_
100
AcDbCircle
 10
-50.073764156
 20
-49.545612480
 30
0.000000000
 40
5.218364000
100
AcDbArc
 50
180.000000000
 51
-90.000000000
  0
LINE
  5
BE6
330
A02
100
AcDbEntity
  8
b_armpart_001_
100
AcDbLine
 10
-37.792128156
 20
-46.135480480
 30
0.000000000
 11
-37.792128156
 21
1.598628520
 31
0.000000000
  0
ARC
  5
BE7
330
A02
100
AcDbEntity
  8
b_armpart_001_
100
AcDbCircle
 10
-38.929523156
 20
1.598628520
 30
0.000000000
 40
1.137395000
100
AcDbArc
 50
0.000000000
 51
90.000000000
  0
LINE
  5
BE8
330
A02
100
AcDbEntity
  8
b_armpart_001_
100
AcDbLine
 10
-38.929523156
 20
2.736023520
 30
0.000000000
 11
-41.318303156
 21
2.736023520
 31
0.000000000
  0
ARC
  5
BE9
330
A02
100
AcDbEntity
  8
b_armpart_001_
100
AcDbCircle
 10
-41.318303156
 20
1.262198520
 30
0.000000000
 40
1.473825000
100
AcDbArc
 50
90.000000000
 51
180.000000000
  0
LINE
  5
BEA
330
A02
100
AcDbEntity
  8
b_armpart_001_
100
AcDbLine
 10
-42.792128156
 20
1.262198520
 30
0.000000000
 11
-42.792128156
 21
-45.729046480
 31
0.000000000
  0
ARC
  5
BEB
330
A02
100
AcDbEntity
  8
b_armpart_001_
100
AcDbCircle
 10
-41.257198156
 20
-45.729046480
 30
0.000000000
 40
1.534930000
100
AcDbArc
 50
180.000000000
 51
-90.000000000
  0
LINE
  5
BEC
330
A02
100
AcDbEntity
  8
b_armpart_001_
100
AcDbLine
 10
-41.257198156
 20
-47.263976480
 30
0.000000000
 11
-38.920624156
 21
-47.263976480
 31
0.000000000
  0
ARC
  5
BED
330
A02
100
AcDbEntity
  8
b_armpart_001_
100
AcDbCircle
 10
-38.920624156
 20
-46.135480480
 30
0.000000000
 40
1.128496000
100
AcDbArc
 50
-90.000000000
 51
0.000000000
  0
LINE
  5
BEE
330
A02
100
AcDbEntity
  8
b_armpart_001_
100
AcDbLine
 10
29.708251851
 20
-29.763976480
 30
0.000000000
 11
-10.291748149
 21
-29.763976480
 31
0.000000000
  0
LINE
  5
BEF
330
A02
100
AcDbEntity
  8
b_armpart_001_
100
AcDbLine
 10
-10.291748149
 20
-29.763976480
 30
0.000000000
 11
-10.291748149
 21
-49.763976480
 31
0.000000000
  0
LINE
  5
BF0
330
A02
100
AcDbEntity
  8
b_armpart_001_
100
AcDbLine
 10
-10.291748149
 20
-49.763976480
 30
0.000000000
 11
29.708251851
 21
-49.763976480
 31
0.000000000
  0
LINE
  5
BF1
330
A02
100
AcDbEntity
  8
b_armpart_001_
100
AcDbLine
 10
29.708251851
 20
-49.763976480
 30
0.000000000
 11
29.708251851
 21
-29.763976480
 31
0.000000000
  0
LINE
  5
BF2
330
A02
100
AcDbEntity
  8
b_armpart_001_
100
AcDbLine
 10
-30.292128156
 20
65.236403527
 30
0.000000000
 11
-50.292128156
 21
65.236403527
 31
0.000000000
  0
LINE
  5
BF3
330
A02
100
AcDbEntity
  8
b_armpart_001_
100
AcDbLine
 10
-50.292128156
 20
65.236403527
 30
0.000000000
 11
-50.292128156
 21
25.236403527
 31
0.000000000
  0
LINE
  5
BF4
330
A02
100
AcDbEntity
  8
b_armpart_001_
100
AcDbLine
 10
-50.292128156
 20
25.236403527
 30
0.000000000
 11
-30.292128156
 21
25.236403527
 31
0.000000000
  0
LINE
  5
BF5
330
A02
100
AcDbEntity
  8
b_armpart_001_
100
AcDbLine
 10
-30.292128156
 20
25.236403527
 30
0.000000000
 11
-30.292128156
 21
65.236403527
 31
0.000000000
  0
LINE
  5
BF6
330
A02
100
AcDbEntity
  8
b_armpart_001_
100
AcDbLine
 10
-55.292128156
 20
-49.545612480
 30
2.000000000
 11
-55.292128156
 21
70.243032520
 31
2.000000000
  0
ARC
  5
BF7
330
A02
100
AcDbEntity
  8
b_armpart_001_
100
AcDbCircle
 10
-50.299137156
 20
70.243032520
 30
2.000000000
 40
4.992991000
100
AcDbArc
 50
90.000000000
 51
180.000000000
  0
LINE
  5
BF8
330
A02
100
AcDbEntity
  8
b_armpart_001_
100
AcDbLine
 10
-50.299137156
 20
75.236023520
 30
2.000000000
 11
-30.333879156
 21
75.236023520
 31
2.000000000
  0
ARC
  5
BF9
330
A02
100
AcDbEntity
  8
b_armpart_001_
100
AcDbCircle
 10
-30.333879156
 20
70.194272520
 30
2.000000000
 40
5.041751000
100
AcDbArc
 50
0.000000000
 51
90.000000000
  0
LINE
  5
BFA
330
A02
100
AcDbEntity
  8
b_armpart_001_
100
AcDbLine
 10
-25.292128156
 20
70.194272520
 30
2.000000000
 11
-25.292128156
 21
-19.908774480
 31
2.000000000
  0
ARC
  5
BFB
330
A02
100
AcDbEntity
  8
b_armpart_001_
100
AcDbCircle
 10
-20.436926156
 20
-19.908774480
 30
2.000000000
 40
4.855202000
100
AcDbArc
 50
180.000000000
 51
-90.000000000
  0
LINE
  5
BFC
330
A02
100
AcDbEntity
  8
b_armpart_001_
100
AcDbLine
 10
-20.436926156
 20
-24.763976480
 30
2.000000000
 11
34.296752844
 21
-24.763976480
 31
2.000000000
  0
ARC
  5
BFD
330
A02
100
AcDbEntity
  8
b_armpart_001_
100
AcDbCircle
 10
34.296752844
 20
-30.175095480
 30
2.000000000
 40
5.411119000
100
AcDbArc
 50
0.000000000
 51
90.000000000
  0
LINE
  5
BFE
330
A02
100
AcDbEntity
  8
b_armpart_001_
100
AcDbLine
 10
39.707871844
 20
-30.175095480
 30
2.000000000
 11
39.707871844
 21
-49.097936480
 31
2.000000000
  0
ARC
  5
BFF
330
A02
100
AcDbEntity
  8
b_armpart_001_
100
AcDbCircle
 10
34.041831844
 20
-49.097936480
 30
2.000000000
 40
5.666040000
100
AcDbArc
 50
-90.000000000
 51
0.000000000
  0
LINE
  5
C00
330
A02
100
AcDbEntity
  8
b_armpart_001_
100
AcDbLine
 10
34.041831844
 20
-54.763976480
 30
2.000000000
 11
-50.073764156
 21
-54.763976480
 31
2.000000000
  0
ARC
  5
C01
330
A02
100
AcDbEntity
  8
b_armpart_001_
100
AcDbCircle
 10
-50.073764156
 20
-49.545612480
 30
2.000000000
 40
5.218364000
100
AcDbArc
 50
180.000000000
 51
-90.000000000
  0
LINE
  5
C02
330
A02
100
AcDbEntity
  8
b_armpart_001_
100
AcDbLine
 10
-37.792128156
 20
-46.135480480
 30
2.000000000
 11
-37.792128156
 21
1.598628520
 31
2.000000000
  0
ARC
  5
C03
330
A02
100
AcDbEntity
  8
b_armpart_001_
100
AcDbCircle
 10
-38.929523156
 20
1.598628520
 30
2.000000000
 40
1.137395000
100
AcDbArc
 50
0.000000000
 51
90.000000000
  0
LINE
  5
C04
330
A02
100
AcDbEntity
  8
b_armpart_001_
100
AcDbLine
 10
-38.929523156
 20
2.736023520
 30
2.000000000
 11
-41.318303156
 21
2.736023520
 31
2.000000000
  0
ARC
  5
C05
330
A02
100
AcDbEntity
  8
b_armpart_001_
100
AcDbCircle
 10
-41.318303156
 20
1.262198520
 30
2.000000000
 40
1.473825000
100
AcDbArc
 50
90.000000000
 51
180.000000000
  0
LINE
  5
C06
330
A02
100
AcDbEntity
  8
b_armpart_001_
100
AcDbLine
 10
-42.792128156
 20
1.262198520
 30
2.000000000
 11
-42.792128156
 21
-45.729046480
 31
2.000000000
  0
ARC
  5
C07
330
A02
100
AcDbEntity
  8
b_armpart_001_
100
AcDbCircle
 10
-41.257198156
 20
-45.729046480
 30
2.000000000
 40
1.534930000
100
AcDbArc
 50
180.000000000
 51
-90.000000000
  0
LINE
  5
C08
330
A02
100
AcDbEntity
  8
b_armpart_001_
100
AcDbLine
 10
-41.257198156
 20
-47.263976480
 30
2.000000000
 11
-38.920624156
 21
-47.263976480
 31
2.000000000
  0
ARC
  5
C09
330
A02
100
AcDbEntity
  8
b_armpart_001_
100
AcDbCircle
 10
-38.920624156
 20
-46.135480480
 30
2.000000000
 40
1.128496000
100
AcDbArc
 50
-90.000000000
 51
0.000000000
  0
LINE
  5
C0A
330
A02
100
AcDbEntity
  8
b_armpart_001_
100
AcDbLine
 10
29.708251851
 20
-29.763976480
 30
2.000000000
 11
-10.291748149
 21
-29.763976480
 31
2.000000000
  0
LINE
  5
C0B
330
A02
100
AcDbEntity
  8
b_armpart_001_
100
AcDbLine
 10
-10.291748149
 20
-29.763976480
 30
2.000000000
 11
-10.291748149
 21
-49.763976480
 31
2.000000000
  0
LINE
  5
C0C
330
A02
100
AcDbEntity
  8
b_armpart_001_
100
AcDbLine
 10
-10.291748149
 20
-49.763976480
 30
2.000000000
 11
29.708251851
 21
-49.763976480
 31
2.000000000
  0
LINE
  5
C0D
330
A02
100
AcDbEntity
  8
b_armpart_001_
100
AcDbLine
 10
29.708251851
 20
-49.763976480
 30
2.000000000
 11
29.708251851
 21
-29.763976480
 31
2.000000000
  0
LINE
  5
C0E
330
A02
100
AcDbEntity
  8
b_armpart_001_
100
AcDbLine
 10
-30.292128156
 20
65.236403527
 30
2.000000000
 11
-50.292128156
 21
65.236403527
 31
2.000000000
  0
LINE
  5
C0F
330
A02
100
AcDbEntity
  8
b_armpart_001_
100
AcDbLine
 10
-50.292128156
 20
65.236403527
 30
2.000000000
 11
-50.292128156
 21
25.236403527
 31
2.000000000
  0
LINE
  5
C10
330
A02
100
AcDbEntity
  8
b_armpart_001_
100
AcDbLine
 10
-50.292128156
 20
25.236403527
 30
2.000000000
 11
-30.292128156
 21
25.236403527
 31
2.000000000
  0
LINE
  5
C11
330
A02
100
AcDbEntity
  8
b_armpart_001_
100
AcDbLine
 10
-30.292128156
 20
25.236403527
 30
2.000000000
 11
-30.292128156
 21
65.236403527
 31
2.000000000
  0
LINE
  5
C12
330
A02
100
AcDbEntity
  8
b_armpart_1_02_001_
100
AcDbLine
 10
9.842900779
 20
76.661868988
 30
1.000053406
 11
9.842900779
 21
76.661868988
 31
3.000053406
  0
LINE
  5
C13
330
A02
100
AcDbEntity
  8
b_armpart_1_02_001_
100
AcDbLine
 10
9.842900779
 20
-18.179188012
 30
1.000053406
 11
9.842900779
 21
-18.179188012
 31
3.000053406
  0
LINE
  5
C14
330
A02
100
AcDbEntity
  8
b_armpart_1_02_001_
100
AcDbLine
 10
9.842900779
 20
76.661868988
 30
1.000053406
 11
9.842900779
 21
-18.179188012
 31
1.000053406
  0
LINE
  5
C15
330
A02
100
AcDbEntity
  8
b_armpart_1_02_001_
100
AcDbLine
 10
9.842900779
 20
76.661868988
 30
3.000053406
 11
9.842900779
 21
-18.179188012
 31
3.000053406
  0
LINE
  5
C16
330
A02
100
AcDbEntity
  8
b_armpart_1_02_001_
100
AcDbLine
 10
9.842900779
 20
-18.179188012
 30
1.000053406
 11
9.842900779
 21
-18.179188012
 31
3.000053406
  0
LINE
  5
C17
330
A02
100
AcDbEntity
  8
b_armpart_1_02_001_
100
AcDbLine
 10
12.609061779
 20
-20.945349012
 30
1.000053406
 11
12.609061779
 21
-20.945349012
 31
3.000053406
  0
ARC
  5
C18
330
A02
100
AcDbEntity
  8
b_armpart_1_02_001_
100
AcDbCircle
 10
12.609061779
 20
-18.179188012
 30
1.000053406
 40
2.766161000
100
AcDbArc
 50
180.000000000
 51
-90.000000000
  0
ARC
  5
C19
330
A02
100
AcDbEntity
  8
b_armpart_1_02_001_
100
AcDbCircle
 10
12.609061779
 20
-18.179188012
 30
3.000053406
 40
2.766161000
100
AcDbArc
 50
180.000000000
 51
-90.000000000
  0
LINE
  5
C1A
330
A02
100
AcDbEntity
  8
b_armpart_1_02_001_
100
AcDbLine
 10
12.609061779
 20
-20.945349012
 30
1.000053406
 11
12.609061779
 21
-20.945349012
 31
3.000053406
  0
LINE
  5
C1B
330
A02
100
AcDbEntity
  8
b_armpart_1_02_001_
100
AcDbLine
 10
36.563041779
 20
-20.945349012
 30
1.000053406
 11
36.563041779
 21
-20.945349012
 31
3.000053406
  0
LINE
  5
C1C
330
A02
100
AcDbEntity
  8
b_armpart_1_02_001_
100
AcDbLine
 10
12.609061779
 20
-20.945349012
 30
1.000053406
 11
36.563041779
 21
-20.945349012
 31
1.000053406
  0
LINE
  5
C1D
330
A02
100
AcDbEntity
  8
b_armpart_1_02_001_
100
AcDbLine
 10
12.609061779
 20
-20.945349012
 30
3.000053406
 11
36.563041779
 21
-20.945349012
 31
3.000053406
  0
LINE
  5
C1E
330
A02
100
AcDbEntity
  8
b_armpart_1_02_001_
100
AcDbLine
 10
36.563041779
 20
-20.945349012
 30
1.000053406
 11
36.563041779
 21
-20.945349012
 31
3.000053406
  0
LINE
  5
C1F
330
A02
100
AcDbEntity
  8
b_armpart_1_02_001_
100
AcDbLine
 10
39.842900779
 20
-17.665490012
 30
1.000053406
 11
39.842900779
 21
-17.665490012
 31
3.000053406
  0
ARC
  5
C20
330
A02
100
AcDbEntity
  8
b_armpart_1_02_001_
100
AcDbCircle
 10
36.563041779
 20
-17.665490012
 30
1.000053406
 40
3.279859000
100
AcDbArc
 50
-90.000000000
 51
0.000000000
  0
ARC
  5
C21
330
A02
100
AcDbEntity
  8
b_armpart_1_02_001_
100
AcDbCircle
 10
36.563041779
 20
-17.665490012
 30
3.000053406
 40
3.279859000
100
AcDbArc
 50
-90.000000000
 51
0.000000000
  0
LINE
  5
C22
330
A02
100
AcDbEntity
  8
b_armpart_1_02_001_
100
AcDbLine
 10
39.842900779
 20
-17.665490012
 30
1.000053406
 11
39.842900779
 21
-17.665490012
 31
3.000053406
  0
LINE
  5
C23
330
A02
100
AcDbEntity
  8
b_armpart_1_02_001_
100
AcDbLine
 10
39.842900779
 20
103.861916988
 30
1.000053406
 11
39.842900779
 21
103.861916988
 31
3.000053406
  0
LINE
  5
C24
330
A02
100
AcDbEntity
  8
b_armpart_1_02_001_
100
AcDbLine
 10
39.842900779
 20
-17.665490012
 30
1.000053406
 11
39.842900779
 21
103.861916988
 31
1.000053406
  0
LINE
  5
C25
330
A02
100
AcDbEntity
  8
b_armpart_1_02_001_
100
AcDbLine
 10
39.842900779
 20
-17.665490012
 30
3.000053406
 11
39.842900779
 21
103.861916988
 31
3.000053406
  0
LINE
  5
C26
330
A02
100
AcDbEntity
  8
b_armpart_1_02_001_
100
AcDbLine
 10
39.842900779
 20
103.861916988
 30
1.000053406
 11
39.842900779
 21
103.861916988
 31
3.000053406
  0
LINE
  5
C27
330
A02
100
AcDbEntity
  8
b_armpart_1_02_001_
100
AcDbLine
 10
34.650166779
 20
109.054650988
 30
1.000053406
 11
34.650166779
 21
109.054650988
 31
3.000053406
  0
ARC
  5
C28
330
A02
100
AcDbEntity
  8
b_armpart_1_02_001_
100
AcDbCircle
 10
34.650166779
 20
103.861916988
 30
1.000053406
 40
5.192734000
100
AcDbArc
 50
0.000000000
 51
90.000000000
  0
ARC
  5
C29
330
A02
100
AcDbEntity
  8
b_armpart_1_02_001_
100
AcDbCircle
 10
34.650166779
 20
103.861916988
 30
3.000053406
 40
5.192734000
100
AcDbArc
 50
0.000000000
 51
90.000000000
  0
LINE
  5
C2A
330
A02
100
AcDbEntity
  8
b_armpart_1_02_001_
100
AcDbLine
 10
34.650166779
 20
109.054650988
 30
1.000053406
 11
34.650166779
 21
109.054650988
 31
3.000053406
  0
LINE
  5
C2B
330
A02
100
AcDbEntity
  8
b_armpart_1_02_001_
100
AcDbLine
 10
-49.913347221
 20
109.054650988
 30
1.000053406
 11
-49.913347221
 21
109.054650988
 31
3.000053406
  0
LINE
  5
C2C
330
A02
100
AcDbEntity
  8
b_armpart_1_02_001_
100
AcDbLine
 10
34.650166779
 20
109.054650988
 30
1.000053406
 11
-49.913347221
 21
109.054650988
 31
1.000053406
  0
LINE
  5
C2D
330
A02
100
AcDbEntity
  8
b_armpart_1_02_001_
100
AcDbLine
 10
34.650166779
 20
109.054650988
 30
3.000053406
 11
-49.913347221
 21
109.054650988
 31
3.000053406
  0
LINE
  5
C2E
330
A02
100
AcDbEntity
  8
b_armpart_1_02_001_
100
AcDbLine
 10
-49.913347221
 20
109.054650988
 30
1.000053406
 11
-49.913347221
 21
109.054650988
 31
3.000053406
  0
LINE
  5
C2F
330
A02
100
AcDbEntity
  8
b_armpart_1_02_001_
100
AcDbLine
 10
-55.157099221
 20
103.810898988
 30
1.000053406
 11
-55.157099221
 21
103.810898988
 31
3.000053406
  0
ARC
  5
C30
330
A02
100
AcDbEntity
  8
b_armpart_1_02_001_
100
AcDbCircle
 10
-49.913347221
 20
103.810898988
 30
1.000053406
 40
5.243752000
100
AcDbArc
 50
90.000000000
 51
180.000000000
  0
ARC
  5
C31
330
A02
100
AcDbEntity
  8
b_armpart_1_02_001_
100
AcDbCircle
 10
-49.913347221
 20
103.810898988
 30
3.000053406
 40
5.243752000
100
AcDbArc
 50
90.000000000
 51
180.000000000
  0
LINE
  5
C32
330
A02
100
AcDbEntity
  8
b_armpart_1_02_001_
100
AcDbLine
 10
-55.157099221
 20
103.810898988
 30
1.000053406
 11
-55.157099221
 21
103.810898988
 31
3.000053406
  0
LINE
  5
C33
330
A02
100
AcDbEntity
  8
b_armpart_1_02_001_
100
AcDbLine
 10
-55.157099221
 20
85.012851988
 30
1.000053406
 11
-55.157099221
 21
85.012851988
 31
3.000053406
  0
LINE
  5
C34
330
A02
100
AcDbEntity
  8
b_armpart_1_02_001_
100
AcDbLine
 10
-55.157099221
 20
103.810898988
 30
1.000053406
 11
-55.157099221
 21
85.012851988
 31
1.000053406
  0
LINE
  5
C35
330
A02
100
AcDbEntity
  8
b_armpart_1_02_001_
100
AcDbLine
 10
-55.157099221
 20
103.810898988
 30
3.000053406
 11
-55.157099221
 21
85.012851988
 31
3.000053406
  0
LINE
  5
C36
330
A02
100
AcDbEntity
  8
b_armpart_1_02_001_
100
AcDbLine
 10
-55.157099221
 20
85.012851988
 30
1.000053406
 11
-55.157099221
 21
85.012851988
 31
3.000053406
  0
LINE
  5
C37
330
A02
100
AcDbEntity
  8
b_armpart_1_02_001_
100
AcDbLine
 10
-49.198898221
 20
79.054650988
 30
1.000053406
 11
-49.198898221
 21
79.054650988
 31
3.000053406
  0
ARC
  5
C38
330
A02
100
AcDbEntity
  8
b_armpart_1_02_001_
100
AcDbCircle
 10
-49.198898221
 20
85.012851988
 30
1.000053406
 40
5.958201000
100
AcDbArc
 50
180.000000000
 51
-90.000000000
  0
ARC
  5
C39
330
A02
100
AcDbEntity
  8
b_armpart_1_02_001_
100
AcDbCircle
 10
-49.198898221
 20
85.012851988
 30
3.000053406
 40
5.958201000
100
AcDbArc
 50
180.000000000
 51
-90.000000000
  0
LINE
  5
C3A
330
A02
100
AcDbEntity
  8
b_armpart_1_02_001_
100
AcDbLine
 10
-49.198898221
 20
79.054650988
 30
1.000053406
 11
-49.198898221
 21
79.054650988
 31
3.000053406
  0
LINE
  5
C3B
330
A02
100
AcDbEntity
  8
b_armpart_1_02_001_
100
AcDbLine
 10
7.450118779
 20
79.054650988
 30
1.000053406
 11
7.450118779
 21
79.054650988
 31
3.000053406
  0
LINE
  5
C3C
330
A02
100
AcDbEntity
  8
b_armpart_1_02_001_
100
AcDbLine
 10
-49.198898221
 20
79.054650988
 30
1.000053406
 11
7.450118779
 21
79.054650988
 31
1.000053406
  0
LINE
  5
C3D
330
A02
100
AcDbEntity
  8
b_armpart_1_02_001_
100
AcDbLine
 10
-49.198898221
 20
79.054650988
 30
3.000053406
 11
7.450118779
 21
79.054650988
 31
3.000053406
  0
LINE
  5
C3E
330
A02
100
AcDbEntity
  8
b_armpart_1_02_001_
100
AcDbLine
 10
9.842900779
 20
76.661868988
 30
1.000053406
 11
9.842900779
 21
76.661868988
 31
3.000053406
  0
LINE
  5
C3F
330
A02
100
AcDbEntity
  8
b_armpart_1_02_001_
100
AcDbLine
 10
7.450118779
 20
79.054650988
 30
1.000053406
 11
7.450118779
 21
79.054650988
 31
3.000053406
  0
ARC
  5
C40
330
A02
100
AcDbEntity
  8
b_armpart_1_02_001_
100
AcDbCircle
 10
7.450118779
 20
76.661868988
 30
1.000053406
 40
2.392782000
100
AcDbArc
 50
0.000000000
 51
90.000000000
  0
ARC
  5
C41
330
A02
100
AcDbEntity
  8
b_armpart_1_02_001_
100
AcDbCircle
 10
7.450118779
 20
76.661868988
 30
3.000053406
 40
2.392782000
100
AcDbArc
 50
0.000000000
 51
90.000000000
  0
LINE
  5
C42
330
A02
100
AcDbEntity
  8
b_armpart_1_02_001_
100
AcDbLine
 10
25.679778779
 20
101.554650988
 30
1.000053406
 11
25.679778779
 21
101.554650988
 31
3.000053406
  0
LINE
  5
C43
330
A02
100
AcDbEntity
  8
b_armpart_1_02_001_
100
AcDbLine
 10
24.211013779
 20
101.554650988
 30
1.000053406
 11
24.211013779
 21
101.554650988
 31
3.000053406
  0
LINE
  5
C44
330
A02
100
AcDbEntity
  8
b_armpart_1_02_001_
100
AcDbLine
 10
25.679778779
 20
101.554650988
 30
1.000053406
 11
24.211013779
 21
101.554650988
 31
1.000053406
  0
LINE
  5
C45
330
A02
100
AcDbEntity
  8
b_armpart_1_02_001_
100
AcDbLine
 10
25.679778779
 20
101.554650988
 30
3.000053406
 11
24.211013779
 21
101.554650988
 31
3.000053406
  0
LINE
  5
C46
330
A02
100
AcDbEntity
  8
b_armpart_1_02_001_
100
AcDbLine
 10
24.211013779
 20
101.554650988
 30
1.000053406
 11
24.211013779
 21
101.554650988
 31
3.000053406
  0
LINE
  5
C47
330
A02
100
AcDbEntity
  8
b_armpart_1_02_001_
100
AcDbLine
 10
22.342900779
 20
99.686537988
 30
1.000053406
 11
22.342900779
 21
99.686537988
 31
3.000053406
  0
ARC
  5
C48
330
A02
100
AcDbEntity
  8
b_armpart_1_02_001_
100
AcDbCircle
 10
24.211013779
 20
99.686537988
 30
1.000053406
 40
1.868113000
100
AcDbArc
 50
90.000000000
 51
180.000000000
  0
ARC
  5
C49
330
A02
100
AcDbEntity
  8
b_armpart_1_02_001_
100
AcDbCircle
 10
24.211013779
 20
99.686537988
 30
3.000053406
 40
1.868113000
100
AcDbArc
 50
90.000000000
 51
180.000000000
  0
LINE
  5
C4A
330
A02
100
AcDbEntity
  8
b_armpart_1_02_001_
100
AcDbLine
 10
22.342900779
 20
99.686537988
 30
1.000053406
 11
22.342900779
 21
99.686537988
 31
3.000053406
  0
LINE
  5
C4B
330
A02
100
AcDbEntity
  8
b_armpart_1_02_001_
100
AcDbLine
 10
22.342900779
 20
52.662000988
 30
1.000053406
 11
22.342900779
 21
52.662000988
 31
3.000053406
  0
LINE
  5
C4C
330
A02
100
AcDbEntity
  8
b_armpart_1_02_001_
100
AcDbLine
 10
22.342900779
 20
99.686537988
 30
1.000053406
 11
22.342900779
 21
52.662000988
 31
1.000053406
  0
LINE
  5
C4D
330
A02
100
AcDbEntity
  8
b_armpart_1_02_001_
100
AcDbLine
 10
22.342900779
 20
99.686537988
 30
3.000053406
 11
22.342900779
 21
52.662000988
 31
3.000053406
  0
LINE
  5
C4E
330
A02
100
AcDbEntity
  8
b_armpart_1_02_001_
100
AcDbLine
 10
22.342900779
 20
52.662000988
 30
1.000053406
 11
22.342900779
 21
52.662000988
 31
3.000053406
  0
LINE
  5
C4F
330
A02
100
AcDbEntity
  8
b_armpart_1_02_001_
100
AcDbLine
 10
23.450250779
 20
51.554650988
 30
1.000053406
 11
23.450250779
 21
51.554650988
 31
3.000053406
  0
ARC
  5
C50
330
A02
100
AcDbEntity
  8
b_armpart_1_02_001_
100
AcDbCircle
 10
23.450250779
 20
52.662000988
 30
1.000053406
 40
1.107350000
100
AcDbArc
 50
180.000000000
 51
-90.000000000
  0
ARC
  5
C51
330
A02
100
AcDbEntity
  8
b_armpart_1_02_001_
100
AcDbCircle
 10
23.450250779
 20
52.662000988
 30
3.000053406
 40
1.107350000
100
AcDbArc
 50
180.000000000
 51
-90.000000000
  0
LINE
  5
C52
330
A02
100
AcDbEntity
  8
b_armpart_1_02_001_
100
AcDbLine
 10
23.450250779
 20
51.554650988
 30
1.000053406
 11
23.450250779
 21
51.554650988
 31
3.000053406
  0
LINE
  5
C53
330
A02
100
AcDbEntity
  8
b_armpart_1_02_001_
100
AcDbLine
 10
26.073215779
 20
51.554650988
 30
1.000053406
 11
26.073215779
 21
51.554650988
 31
3.000053406
  0
LINE
  5
C54
330
A02
100
AcDbEntity
  8
b_armpart_1_02_001_
100
AcDbLine
 10
23.450250779
 20
51.554650988
 30
1.000053406
 11
26.073215779
 21
51.554650988
 31
1.000053406
  0
LINE
  5
C55
330
A02
100
AcDbEntity
  8
b_armpart_1_02_001_
100
AcDbLine
 10
23.450250779
 20
51.554650988
 30
3.000053406
 11
26.073215779
 21
51.554650988
 31
3.000053406
  0
LINE
  5
C56
330
A02
100
AcDbEntity
  8
b_armpart_1_02_001_
100
AcDbLine
 10
26.073215779
 20
51.554650988
 30
1.000053406
 11
26.073215779
 21
51.554650988
 31
3.000053406
  0
LINE
  5
C57
330
A02
100
AcDbEntity
  8
b_armpart_1_02_001_
100
AcDbLine
 10
27.342900779
 20
52.824335988
 30
1.000053406
 11
27.342900779
 21
52.824335988
 31
3.000053406
  0
ARC
  5
C58
330
A02
100
AcDbEntity
  8
b_armpart_1_02_001_
100
AcDbCircle
 10
26.073215779
 20
52.824335988
 30
1.000053406
 40
1.269685000
100
AcDbArc
 50
-90.000000000
 51
0.000000000
  0
ARC
  5
C59
330
A02
100
AcDbEntity
  8
b_armpart_1_02_001_
100
AcDbCircle
 10
26.073215779
 20
52.824335988
 30
3.000053406
 40
1.269685000
100
AcDbArc
 50
-90.000000000
 51
0.000000000
  0
LINE
  5
C5A
330
A02
100
AcDbEntity
  8
b_armpart_1_02_001_
100
AcDbLine
 10
27.342900779
 20
52.824335988
 30
1.000053406
 11
27.342900779
 21
52.824335988
 31
3.000053406
  0
LINE
  5
C5B
330
A02
100
AcDbEntity
  8
b_armpart_1_02_001_
100
AcDbLine
 10
27.342900779
 20
99.891528988
 30
1.000053406
 11
27.342900779
 21
99.891528988
 31
3.000053406
  0
LINE
  5
C5C
330
A02
100
AcDbEntity
  8
b_armpart_1_02_001_
100
AcDbLine
 10
27.342900779
 20
52.824335988
 30
1.000053406
 11
27.342900779
 21
99.891528988
 31
1.000053406
  0
LINE
  5
C5D
330
A02
100
AcDbEntity
  8
b_armpart_1_02_001_
100
AcDbLine
 10
27.342900779
 20
52.824335988
 30
3.000053406
 11
27.342900779
 21
99.891528988
 31
3.000053406
  0
LINE
  5
C5E
330
A02
100
AcDbEntity
  8
b_armpart_1_02_001_
100
AcDbLine
 10
27.342900779
 20
99.891528988
 30
1.000053406
 11
27.342900779
 21
99.891528988
 31
3.000053406
  0
LINE
  5
C5F
330
A02
100
AcDbEntity
  8
b_armpart_1_02_001_
100
AcDbLine
 10
25.679778779
 20
101.554650988
 30
1.000053406
 11
25.679778779
 21
101.554650988
 31
3.000053406
  0
ARC
  5
C60
330
A02
100
AcDbEntity
  8
b_armpart_1_02_001_
100
AcDbCircle
 10
25.679778779
 20
99.891528988
 30
1.000053406
 40
1.663122000
100
AcDbArc
 50
0.000000000
 51
90.000000000
  0
ARC
  5
C61
330
A02
100
AcDbEntity
  8
b_armpart_1_02_001_
100
AcDbCircle
 10
25.679778779
 20
99.891528988
 30
3.000053406
 40
1.663122000
100
AcDbArc
 50
0.000000000
 51
90.000000000
  0
LINE
  5
C62
330
A02
100
AcDbEntity
  8
b_armpart_1_02_001_
100
AcDbLine
 10
-5.157479228
 20
104.054650988
 30
1.000053406
 11
-5.157479228
 21
104.054650988
 31
3.000053406
  0
LINE
  5
C63
330
A02
100
AcDbEntity
  8
b_armpart_1_02_001_
100
AcDbLine
 10
-45.157479228
 20
104.054650988
 30
1.000053406
 11
-45.157479228
 21
104.054650988
 31
3.000053406
  0
LINE
  5
C64
330
A02
100
AcDbEntity
  8
b_armpart_1_02_001_
100
AcDbLine
 10
-5.157479228
 20
104.054650988
 30
1.000053406
 11
-45.157479228
 21
104.054650988
 31
1.000053406
  0
LINE
  5
C65
330
A02
100
AcDbEntity
  8
b_armpart_1_02_001_
100
AcDbLine
 10
-5.157479228
 20
104.054650988
 30
3.000053406
 11
-45.157479228
 21
104.054650988
 31
3.000053406
  0
LINE
  5
C66
330
A02
100
AcDbEntity
  8
b_armpart_1_02_001_
100
AcDbLine
 10
-45.157479228
 20
104.054650988
 30
1.000053406
 11
-45.157479228
 21
104.054650988
 31
3.000053406
  0
LINE
  5
C67
330
A02
100
AcDbEntity
  8
b_armpart_1_02_001_
100
AcDbLine
 10
-45.157479228
 20
84.054650988
 30
1.000053406
 11
-45.157479228
 21
84.054650988
 31
3.000053406
  0
LINE
  5
C68
330
A02
100
AcDbEntity
  8
b_armpart_1_02_001_
100
AcDbLine
 10
-45.157479228
 20
104.054650988
 30
1.000053406
 11
-45.157479228
 21
84.054650988
 31
1.000053406
  0
LINE
  5
C69
330
A02
100
AcDbEntity
  8
b_armpart_1_02_001_
100
AcDbLine
 10
-45.157479228
 20
104.054650988
 30
3.000053406
 11
-45.157479228
 21
84.054650988
 31
3.000053406
  0
LINE
  5
C6A
330
A02
100
AcDbEntity
  8
b_armpart_1_02_001_
100
AcDbLine
 10
-45.157479228
 20
84.054650988
 30
1.000053406
 11
-45.157479228
 21
84.054650988
 31
3.000053406
  0
LINE
  5
C6B
330
A02
100
AcDbEntity
  8
b_armpart_1_02_001_
100
AcDbLine
 10
-5.157479228
 20
84.054650988
 30
1.000053406
 11
-5.157479228
 21
84.054650988
 31
3.000053406
  0
LINE
  5
C6C
330
A02
100
AcDbEntity
  8
b_armpart_1_02_001_
100
AcDbLine
 10
-45.157479228
 20
84.054650988
 30
1.000053406
 11
-5.157479228
 21
84.054650988
 31
1.000053406
  0
LINE
  5
C6D
330
A02
100
AcDbEntity
  8
b_armpart_1_02_001_
100
AcDbLine
 10
-45.157479228
 20
84.054650988
 30
3.000053406
 11
-5.157479228
 21
84.054650988
 31
3.000053406
  0
LINE
  5
C6E
330
A02
100
AcDbEntity
  8
b_armpart_1_02_001_
100
AcDbLine
 10
-5.157479228
 20
84.054650988
 30
1.000053406
 11
-5.157479228
 21
84.054650988
 31
3.000053406
  0
LINE
  5
C6F
330
A02
100
AcDbEntity
  8
b_armpart_1_02_001_
100
AcDbLine
 10
-5.157479228
 20
104.054650988
 30
1.000053406
 11
-5.157479228
 21
104.054650988
 31
3.000053406
  0
LINE
  5
C70
330
A02
100
AcDbEntity
  8
b_armpart_1_02_001_
100
AcDbLine
 10
-5.157479228
 20
84.054650988
 30
1.000053406
 11
-5.157479228
 21
104.054650988
 31
1.000053406
  0
LINE
  5
C71
330
A02
100
AcDbEntity
  8
b_armpart_1_02_001_
100
AcDbLine
 10
-5.157479228
 20
84.054650988
 30
3.000053406
 11
-5.157479228
 21
104.054650988
 31
3.000053406
  0
LINE
  5
C72
330
A02
100
AcDbEntity
  8
b_armpart_1_02_001_
100
AcDbLine
 10
34.842900779
 20
29.054270981
 30
1.000053406
 11
34.842900779
 21
29.054270981
 31
3.000053406
  0
LINE
  5
C73
330
A02
100
AcDbEntity
  8
b_armpart_1_02_001_
100
AcDbLine
 10
14.842900779
 20
29.054270981
 30
1.000053406
 11
14.842900779
 21
29.054270981
 31
3.000053406
  0
LINE
  5
C74
330
A02
100
AcDbEntity
  8
b_armpart_1_02_001_
100
AcDbLine
 10
34.842900779
 20
29.054270981
 30
1.000053406
 11
14.842900779
 21
29.054270981
 31
1.000053406
  0
LINE
  5
C75
330
A02
100
AcDbEntity
  8
b_armpart_1_02_001_
100
AcDbLine
 10
34.842900779
 20
29.054270981
 30
3.000053406
 11
14.842900779
 21
29.054270981
 31
3.000053406
  0
LINE
  5
C76
330
A02
100
AcDbEntity
  8
b_armpart_1_02_001_
100
AcDbLine
 10
14.842900779
 20
29.054270981
 30
1.000053406
 11
14.842900779
 21
29.054270981
 31
3.000053406
  0
LINE
  5
C77
330
A02
100
AcDbEntity
  8
b_armpart_1_02_001_
100
AcDbLine
 10
14.842900779
 20
-10.945729019
 30
1.000053406
 11
14.842900779
 21
-10.945729019
 31
3.000053406
  0
LINE
  5
C78
330
A02
100
AcDbEntity
  8
b_armpart_1_02_001_
100
AcDbLine
 10
14.842900779
 20
29.054270981
 30
1.000053406
 11
14.842900779
 21
-10.945729019
 31
1.000053406
  0
LINE
  5
C79
330
A02
100
AcDbEntity
  8
b_armpart_1_02_001_
100
AcDbLine
 10
14.842900779
 20
29.054270981
 30
3.000053406
 11
14.842900779
 21
-10.945729019
 31
3.000053406
  0
LINE
  5
C7A
330
A02
100
AcDbEntity
  8
b_armpart_1_02_001_
100
AcDbLine
 10
14.842900779
 20
-10.945729019
 30
1.000053406
 11
14.842900779
 21
-10.945729019
 31
3.000053406
  0
LINE
  5
C7B
330
A02
100
AcDbEntity
  8
b_armpart_1_02_001_
100
AcDbLine
 10
34.842900779
 20
-10.945729019
 30
1.000053406
 11
34.842900779
 21
-10.945729019
 31
3.000053406
  0
LINE
  5
C7C
330
A02
100
AcDbEntity
  8
b_armpart_1_02_001_
100
AcDbLine
 10
14.842900779
 20
-10.945729019
 30
1.000053406
 11
34.842900779
 21
-10.945729019
 31
1.000053406
  0
LINE
  5
C7D
330
A02
100
AcDbEntity
  8
b_armpart_1_02_001_
100
AcDbLine
 10
14.842900779
 20
-10.945729019
 30
3.000053406
 11
34.842900779
 21
-10.945729019
 31
3.000053406
  0
LINE
  5
C7E
330
A02
100
AcDbEntity
  8
b_armpart_1_02_001_
100
AcDbLine
 10
34.842900779
 20
-10.945729019
 30
1.000053406
 11
34.842900779
 21
-10.945729019
 31
3.000053406
  0
LINE
  5
C7F
330
A02
100
AcDbEntity
  8
b_armpart_1_02_001_
100
AcDbLine
 10
34.842900779
 20
29.054270981
 30
1.000053406
 11
34.842900779
 21
29.054270981
 31
3.000053406
  0
LINE
  5
C80
330
A02
100
AcDbEntity
  8
b_armpart_1_02_001_
100
AcDbLine
 10
34.842900779
 20
-10.945729019
 30
1.000053406
 11
34.842900779
 21
29.054270981
 31
1.000053406
  0
LINE
  5
C81
330
A02
100
AcDbEntity
  8
b_armpart_1_02_001_
100
AcDbLine
 10
34.842900779
 20
-10.945729019
 30
3.000053406
 11
34.842900779
 21
29.054270981
 31
3.000053406
  0
LINE
  5
C82
330
A02
100
AcDbEntity
  8
b_armpart_1_02_001_
100
AcDbLine
 10
9.842900779
 20
76.661868988
 30
1.000053406
 11
9.842900779
 21
-18.179188012
 31
1.000053406
  0
ARC
  5
C83
330
A02
100
AcDbEntity
  8
b_armpart_1_02_001_
100
AcDbCircle
 10
12.609061779
 20
-18.179188012
 30
1.000053406
 40
2.766161000
100
AcDbArc
 50
180.000000000
 51
-90.000000000
  0
LINE
  5
C84
330
A02
100
AcDbEntity
  8
b_armpart_1_02_001_
100
AcDbLine
 10
12.609061779
 20
-20.945349012
 30
1.000053406
 11
36.563041779
 21
-20.945349012
 31
1.000053406
  0
ARC
  5
C85
330
A02
100
AcDbEntity
  8
b_armpart_1_02_001_
100
AcDbCircle
 10
36.563041779
 20
-17.665490012
 30
1.000053406
 40
3.279859000
100
AcDbArc
 50
-90.000000000
 51
0.000000000
  0
LINE
  5
C86
330
A02
100
AcDbEntity
  8
b_armpart_1_02_001_
100
AcDbLine
 10
39.842900779
 20
-17.665490012
 30
1.000053406
 11
39.842900779
 21
103.861916988
 31
1.000053406
  0
ARC
  5
C87
330
A02
100
AcDbEntity
  8
b_armpart_1_02_001_
100
AcDbCircle
 10
34.650166779
 20
103.861916988
 30
1.000053406
 40
5.192734000
100
AcDbArc
 50
0.000000000
 51
90.000000000
  0
LINE
  5
C88
330
A02
100
AcDbEntity
  8
b_armpart_1_02_001_
100
AcDbLine
 10
34.650166779
 20
109.054650988
 30
1.000053406
 11
-49.913347221
 21
109.054650988
 31
1.000053406
  0
ARC
  5
C89
330
A02
100
AcDbEntity
  8
b_armpart_1_02_001_
100
AcDbCircle
 10
-49.913347221
 20
103.810898988
 30
1.000053406
 40
5.243752000
100
AcDbArc
 50
90.000000000
 51
180.000000000
  0
LINE
  5
C8A
330
A02
100
AcDbEntity
  8
b_armpart_1_02_001_
100
AcDbLine
 10
-55.157099221
 20
103.810898988
 30
1.000053406
 11
-55.157099221
 21
85.012851988
 31
1.000053406
  0
ARC
  5
C8B
330
A02
100
AcDbEntity
  8
b_armpart_1_02_001_
100
AcDbCircle
 10
-49.198898221
 20
85.012851988
 30
1.000053406
 40
5.958201000
100
AcDbArc
 50
180.000000000
 51
-90.000000000
  0
LINE
  5
C8C
330
A02
100
AcDbEntity
  8
b_armpart_1_02_001_
100
AcDbLine
 10
-49.198898221
 20
79.054650988
 30
1.000053406
 11
7.450118779
 21
79.054650988
 31
1.000053406
  0
ARC
  5
C8D
330
A02
100
AcDbEntity
  8
b_armpart_1_02_001_
100
AcDbCircle
 10
7.450118779
 20
76.661868988
 30
1.000053406
 40
2.392782000
100
AcDbArc
 50
0.000000000
 51
90.000000000
  0
LINE
  5
C8E
330
A02
100
AcDbEntity
  8
b_armpart_1_02_001_
100
AcDbLine
 10
25.679778779
 20
101.554650988
 30
1.000053406
 11
24.211013779
 21
101.554650988
 31
1.000053406
  0
ARC
  5
C8F
330
A02
100
AcDbEntity
  8
b_armpart_1_02_001_
100
AcDbCircle
 10
24.211013779
 20
99.686537988
 30
1.000053406
 40
1.868113000
100
AcDbArc
 50
90.000000000
 51
180.000000000
  0
LINE
  5
C90
330
A02
100
AcDbEntity
  8
b_armpart_1_02_001_
100
AcDbLine
 10
22.342900779
 20
99.686537988
 30
1.000053406
 11
22.342900779
 21
52.662000988
 31
1.000053406
  0
ARC
  5
C91
330
A02
100
AcDbEntity
  8
b_armpart_1_02_001_
100
AcDbCircle
 10
23.450250779
 20
52.662000988
 30
1.000053406
 40
1.107350000
100
AcDbArc
 50
180.000000000
 51
-90.000000000
  0
LINE
  5
C92
330
A02
100
AcDbEntity
  8
b_armpart_1_02_001_
100
AcDbLine
 10
23.450250779
 20
51.554650988
 30
1.000053406
 11
26.073215779
 21
51.554650988
 31
1.000053406
  0
ARC
  5
C93
330
A02
100
AcDbEntity
  8
b_armpart_1_02_001_
100
AcDbCircle
 10
26.073215779
 20
52.824335988
 30
1.000053406
 40
1.269685000
100
AcDbArc
 50
-90.000000000
 51
0.000000000
  0
LINE
  5
C94
330
A02
100
AcDbEntity
  8
b_armpart_1_02_001_
100
AcDbLine
 10
27.342900779
 20
52.824335988
 30
1.000053406
 11
27.342900779
 21
99.891528988
 31
1.000053406
  0
ARC
  5
C95
330
A02
100
AcDbEntity
  8
b_armpart_1_02_001_
100
AcDbCircle
 10
25.679778779
 20
99.891528988
 30
1.000053406
 40
1.663122000
100
AcDbArc
 50
0.000000000
 51
90.000000000
  0
LINE
  5
C96
330
A02
100
AcDbEntity
  8
b_armpart_1_02_001_
100
AcDbLine
 10
-5.157479228
 20
104.054650988
 30
1.000053406
 11
-45.157479228
 21
104.054650988
 31
1.000053406
  0
LINE
  5
C97
330
A02
100
AcDbEntity
  8
b_armpart_1_02_001_
100
AcDbLine
 10
-45.157479228
 20
104.054650988
 30
1.000053406
 11
-45.157479228
 21
84.054650988
 31
1.000053406
  0
LINE
  5
C98
330
A02
100
AcDbEntity
  8
b_armpart_1_02_001_
100
AcDbLine
 10
-45.157479228
 20
84.054650988
 30
1.000053406
 11
-5.157479228
 21
84.054650988
 31
1.000053406
  0
LINE
  5
C99
330
A02
100
AcDbEntity
  8
b_armpart_1_02_001_
100
AcDbLine
 10
-5.157479228
 20
84.054650988
 30
1.000053406
 11
-5.157479228
 21
104.054650988
 31
1.000053406
  0
LINE
  5
C9A
330
A02
100
AcDbEntity
  8
b_armpart_1_02_001_
100
AcDbLine
 10
34.842900779
 20
29.054270981
 30
1.000053406
 11
14.842900779
 21
29.054270981
 31
1.000053406
  0
LINE
  5
C9B
330
A02
100
AcDbEntity
  8
b_armpart_1_02_001_
100
AcDbLine
 10
14.842900779
 20
29.054270981
 30
1.000053406
 11
14.842900779
 21
-10.945729019
 31
1.000053406
  0
LINE
  5
C9C
330
A02
100
AcDbEntity
  8
b_armpart_1_02_001_
100
AcDbLine
 10
14.842900779
 20
-10.945729019
 30
1.000053406
 11
34.842900779
 21
-10.945729019
 31
1.000053406
  0
LINE
  5
C9D
330
A02
100
AcDbEntity
  8
b_armpart_1_02_001_
100
AcDbLine
 10
34.842900779
 20
-10.945729019
 30
1.000053406
 11
34.842900779
 21
29.054270981
 31
1.000053406
  0
LINE
  5
C9E
330
A02
100
AcDbEntity
  8
b_armpart_1_02_001_
100
AcDbLine
 10
9.842900779
 20
76.661868988
 30
3.000053406
 11
9.842900779
 21
-18.179188012
 31
3.000053406
  0
ARC
  5
C9F
330
A02
100
AcDbEntity
  8
b_armpart_1_02_001_
100
AcDbCircle
 10
12.609061779
 20
-18.179188012
 30
3.000053406
 40
2.766161000
100
AcDbArc
 50
180.000000000
 51
-90.000000000
  0
LINE
  5
CA0
330
A02
100
AcDbEntity
  8
b_armpart_1_02_001_
100
AcDbLine
 10
12.609061779
 20
-20.945349012
 30
3.000053406
 11
36.563041779
 21
-20.945349012
 31
3.000053406
  0
ARC
  5
CA1
330
A02
100
AcDbEntity
  8
b_armpart_1_02_001_
100
AcDbCircle
 10
36.563041779
 20
-17.665490012
 30
3.000053406
 40
3.279859000
100
AcDbArc
 50
-90.000000000
 51
0.000000000
  0
LINE
  5
CA2
330
A02
100
AcDbEntity
  8
b_armpart_1_02_001_
100
AcDbLine
 10
39.842900779
 20
-17.665490012
 30
3.000053406
 11
39.842900779
 21
103.861916988
 31
3.000053406
  0
ARC
  5
CA3
330
A02
100
AcDbEntity
  8
b_armpart_1_02_001_
100
AcDbCircle
 10
34.650166779
 20
103.861916988
 30
3.000053406
 40
5.192734000
100
AcDbArc
 50
0.000000000
 51
90.000000000
  0
LINE
  5
CA4
330
A02
100
AcDbEntity
  8
b_armpart_1_02_001_
100
AcDbLine
 10
34.650166779
 20
109.054650988
 30
3.000053406
 11
-49.913347221
 21
109.054650988
 31
3.000053406
  0
ARC
  5
CA5
330
A02
100
AcDbEntity
  8
b_armpart_1_02_001_
100
AcDbCircle
 10
-49.913347221
 20
103.810898988
 30
3.000053406
 40
5.243752000
100
AcDbArc
 50
90.000000000
 51
180.000000000
  0
LINE
  5
CA6
330
A02
100
AcDbEntity
  8
b_armpart_1_02_001_
100
AcDbLine
 10
-55.157099221
 20
103.810898988
 30
3.000053406
 11
-55.157099221
 21
85.012851988
 31
3.000053406
  0
ARC
  5
CA7
330
A02
100
AcDbEntity
  8
b_armpart_1_02_001_
100
AcDbCircle
 10
-49.198898221
 20
85.012851988
 30
3.000053406
 40
5.958201000
100
AcDbArc
 50
180.000000000
 51
-90.000000000
  0
LINE
  5
CA8
330
A02
100
AcDbEntity
  8
b_armpart_1_02_001_
100
AcDbLine
 10
-49.198898221
 20
79.054650988
 30
3.000053406
 11
7.450118779
 21
79.054650988
 31
3.000053406
  0
ARC
  5
CA9
330
A02
100
AcDbEntity
  8
b_armpart_1_02_001_
100
AcDbCircle
 10
7.450118779
 20
76.661868988
 30
3.000053406
 40
2.392782000
100
AcDbArc
 50
0.000000000
 51
90.000000000
  0
LINE
  5
CAA
330
A02
100
AcDbEntity
  8
b_armpart_1_02_001_
100
AcDbLine
 10
25.679778779
 20
101.554650988
 30
3.000053406
 11
24.211013779
 21
101.554650988
 31
3.000053406
  0
ARC
  5
CAB
330
A02
100
AcDbEntity
  8
b_armpart_1_02_001_
100
AcDbCircle
 10
24.211013779
 20
99.686537988
 30
3.000053406
 40
1.868113000
100
AcDbArc
 50
90.000000000
 51
180.000000000
  0
LINE
  5
CAC
330
A02
100
AcDbEntity
  8
b_armpart_1_02_001_
100
AcDbLine
 10
22.342900779
 20
99.686537988
 30
3.000053406
 11
22.342900779
 21
52.662000988
 31
3.000053406
  0
ARC
  5
CAD
330
A02
100
AcDbEntity
  8
b_armpart_1_02_001_
100
AcDbCircle
 10
23.450250779
 20
52.662000988
 30
3.000053406
 40
1.107350000
100
AcDbArc
 50
180.000000000
 51
-90.000000000
  0
LINE
  5
CAE
330
A02
100
AcDbEntity
  8
b_armpart_1_02_001_
100
AcDbLine
 10
23.450250779
 20
51.554650988
 30
3.000053406
 11
26.073215779
 21
51.554650988
 31
3.000053406
  0
ARC
  5
CAF
330
A02
100
AcDbEntity
  8
b_armpart_1_02_001_
100
AcDbCircle
 10
26.073215779
 20
52.824335988
 30
3.000053406
 40
1.269685000
100
AcDbArc
 50
-90.000000000
 51
0.000000000
  0
LINE
  5
CB0
330
A02
100
AcDbEntity
  8
b_armpart_1_02_001_
100
AcDbLine
 10
27.342900779
 20
52.824335988
 30
3.000053406
 11
27.342900779
 21
99.891528988
 31
3.000053406
  0
ARC
  5
CB1
330
A02
100
AcDbEntity
  8
b_armpart_1_02_001_
100
AcDbCircle
 10
25.679778779
 20
99.891528988
 30
3.000053406
 40
1.663122000
100
AcDbArc
 50
0.000000000
 51
90.000000000
  0
LINE
  5
CB2
330
A02
100
AcDbEntity
  8
b_armpart_1_02_001_
100
AcDbLine
 10
-5.157479228
 20
104.054650988
 30
3.000053406
 11
-45.157479228
 21
104.054650988
 31
3.000053406
  0
LINE
  5
CB3
330
A02
100
AcDbEntity
  8
b_armpart_1_02_001_
100
AcDbLine
 10
-45.157479228
 20
104.054650988
 30
3.000053406
 11
-45.157479228
 21
84.054650988
 31
3.000053406
  0
LINE
  5
CB4
330
A02
100
AcDbEntity
  8
b_armpart_1_02_001_
100
AcDbLine
 10
-45.157479228
 20
84.054650988
 30
3.000053406
 11
-5.157479228
 21
84.054650988
 31
3.000053406
  0
LINE
  5
CB5
330
A02
100
AcDbEntity
  8
b_armpart_1_02_001_
100
AcDbLine
 10
-5.157479228
 20
84.054650988
 30
3.000053406
 11
-5.157479228
 21
104.054650988
 31
3.000053406
  0
LINE
  5
CB6
330
A02
100
AcDbEntity
  8
b_armpart_1_02_001_
100
AcDbLine
 10
34.842900779
 20
29.054270981
 30
3.000053406
 11
14.842900779
 21
29.054270981
 31
3.000053406
  0
LINE
  5
CB7
330
A02
100
AcDbEntity
  8
b_armpart_1_02_001_
100
AcDbLine
 10
14.842900779
 20
29.054270981
 30
3.000053406
 11
14.842900779
 21
-10.945729019
 31
3.000053406
  0
LINE
  5
CB8
330
A02
100
AcDbEntity
  8
b_armpart_1_02_001_
100
AcDbLine
 10
14.842900779
 20
-10.945729019
 30
3.000053406
 11
34.842900779
 21
-10.945729019
 31
3.000053406
  0
LINE
  5
CB9
330
A02
100
AcDbEntity
  8
b_armpart_1_02_001_
100
AcDbLine
 10
34.842900779
 20
-10.945729019
 30
3.000053406
 11
34.842900779
 21
29.054270981
 31
3.000053406
  0
ENDSEC
  0
SECTION
  2
OBJECTS
  0
DICTIONARY
  5
F000
330
0
100
AcDbDictionary
  3
ACAD_GROUP
350
F001
  0
DICTIONARY
  5
F001
330
F000
100
AcDbDictionary
  0
ENDSEC
  0
EOF