999
FreeCAD v1.0 39109 (Git)
  0
SECTION
  2
HEADER
  9
$ACADVER
  1
AC1014
  9
$ACADMAINTVER
 70
     9
  9
$DWGCODEPAGE
  3
ANSI_1252
  9
$TEXTSTYLE
  7
STANDARD
  9
$DIMSTYLE
  2
STANDARD
  9
$DIMTXSTY
  7
STANDARD
  9
$CMLSTYLE
  2
STANDARD
  9
$LUNITS
 70
2
  9
$INSUNITS
 70
4
  9
$PEXTMAX
 10
50
 20
50
 30
50
  9
$PEXTMIN
 10
0
 20
0
 30
0
  9
$HANDSEED
  5
FFFF
  0
ENDSEC
  0
SECTION
  2
CLASSES
  0
CLASS
  1
ACDBDICTIONARYWDFLT
  2
AcDbDictionaryWithDefault
  3
ObjectDBX Classes
 90
        0
280
     0
281
     0
  0
CLASS
  1
XRECORD
  2
AcDbXrecord
  3
ObjectDBX Classes
 90
        0
280
     0
281
     0
  0
CLASS
  1
LWPOLYLINE
  2
AcDbPolyline
  3
ObjectDBX Classes
 90
        0
280
     0
281
     1
  0
ENDSEC
  0
SECTION
  2
TABLES
  0
TABLE
  2
VPORT
  5
20
330
0
100
AcDbSymbolTable
 70
     1
  0
VPORT
  5
21
330
20
100
AcDbSymbolTableRecord
100
AcDbViewportTableRecord
  2
*ACTIVE
 70
     0
  0
ENDTAB
  0
TABLE
  2
LTYPE
  5
22
330
0
100
AcDbSymbolTable
 70
     1
  0
LTYPE
  5
23
330
21
100
AcDbSymbolTableRecord
100
AcDbLinetypeTableRecord
  2
BYBLOCK
 70
     0
  3

 72
    65
 73
     0
 40
0.0
  0
LTYPE
  5
24
330
21
100
AcDbSymbolTableRecord
100
AcDbLinetypeTableRecord
  2
BYLAYER
 70
     0
  3

 72
    65
 73
     0
 40
0.0
  0
LTYPE
  5
25
330
21
100
AcDbSymbolTableRecord
100
AcDbLinetypeTableRecord
  2
CONTINUOUS
 70
     0
  3
Solid line
 72
    65
 73
     0
 40
0.0
  0
ENDTAB
  0
TABLE
  2
LAYER
  5
A80
330
0
100
AcDbSymbolTable
 70
3
  0
LAYER
  5
A81
330
A80
100
AcDbSymbolTableRecord
100
AcDbLayerTableRecord
  2
0
 70
   0
 62
   7
  6
CONTINUOUS
  0
LAYER
  5
A82
330
A80
100
AcDbSymbolTableRecord
100
AcDbLayerTableRecord
  2
none
 70
    0
 62
    7
  6
CONTINUOUS
  0
LAYER
  5
A83
330
A80
100
AcDbSymbolTableRecord
100
AcDbLayerTableRecord
  2
Pad
 70
    0
 62
    7
  6
CONTINUOUS
  0
ENDTAB
  0
TABLE
  2
STYLE
  5
70
330
0
100
AcDbSymbolTable
 70
     2
  0
STYLE
  5
71
330
70
100
AcDbSymbolTableRecord
100
AcDbTextStyleTableRecord
  2
STANDARD
 70
     0
 40
0.0
 41
1.0
 50
0.0
 71
     0
 42
2.5
  3
arial.ttf
  4

  0
STYLE
  5
72
330
70
100
AcDbSymbolTableRecord
100
AcDbTextStyleTableRecord
  2
ANNOTATIVE
 70
     0
 40
0.0
 41
1.0
 50
0.0
 71
     0
 42
2.5
  3
arial.ttf
  4

  0
ENDTAB
  0
TABLE
  2
VIEW
  5
73
330
0
100
AcDbSymbolTable
 70
     0
  0
ENDTAB
  0
TABLE
  2
UCS
  5
74
330
0
100
AcDbSymbolTable
 70
     0
  0
ENDTAB
  0
TABLE
  2
APPID
  5
75
330
0
100
AcDbSymbolTable
 70
     2
  0
APPID
  5
76
330
75
100
AcDbSymbolTableRecord
100
AcDbRegAppTableRecord
  2
ACAD
 70
     0
  0
APPID
  5
77
330
75
100
AcDbSymbolTableRecord
100
AcDbRegAppTableRecord
  2
ACADANNOTATIVE
 70
     0
  0
ENDTAB
  0
TABLE
  2
DIMSTYLE
  5
78
330
0
100
AcDbSymbolTable
 70
     2
  0
DIMSTYLE
105
79
330
78
100
AcDbSymbolTableRecord
100
AcDbDimStyleTableRecord
  2
STANDARD
 70
     0
  3

  4

  5

  6

  7

 40
0.0
 41
2.5
 42
0.625
 43
3.75
 44
1.25
 45
0.0
 46
0.0
 47
0.0
 48
0.0
140
2.5
141
2.5
142
0.0
143
0.03937007874016
144
1.0
145
0.0
146
1.0
147
0.625
 71
     0
 72
     0
 73
     0
 74
     0
 75
     0
 76
     0
 77
     1
 78
     8
170
     0
171
     3
172
     1
173
     0
174
     0
175
     0
176
     0
177
     0
178
     0
270
     2
271
     2
272
     2
273
     2
274
     3
340
71
275
     0
280
     0
281
     0
282
     0
283
     0
284
     8
285
     0
286
     0
287
     3
288
     0
  0
ENDTAB
  0
TABLE
  2
BLOCK_RECORD
  5
A01
330
0
100
AcDbSymbolTable
  70
5
  0
BLOCK_RECORD
  5
A02
330
A01
100
AcDbSymbolTableRecord
100
AcDbBlockTableRecord
  2
*MODEL_SPACE
  0
BLOCK_RECORD
  5
A03
330
A01
100
AcDbSymbolTableRecord
100
AcDbBlockTableRecord
  2
*PAPER_SPACE
  0
ENDTAB
  0
ENDSEC
  0
SECTION
  2
BLOCKS
  0
BLOCK
  5
A04
330
A02
100
AcDbEntity
  8
0
100
AcDbBlockBegin
  2
*MODEL_SPACE
 70
   0
 10
0
 20
0
 30
0
  3
*MODEL_SPACE
  1
 
  0
ENDBLK
  5
A05
330
A02
100
AcDbEntity
  8
0
100
AcDbBlockEnd
  0
BLOCK
  5
A06
330
A03
100
AcDbEntity
 67
1
  8
0
100
AcDbBlockBegin
  2
*PAPER_SPACE
 70
   0
 10
0
 20
0
 30
0
  3
*PAPER_SPACE
  1
 
  0
ENDBLK
  5
A07
330
A03
100
AcDbEntity
 67
    1
  8
0
100
AcDbBlockEnd
  0
ENDSEC
  0
SECTION
  2
ENTITIES
  0
LINE
  5
A08
330
A02
100
AcDbEntity
  8
Pad
100
AcDbLine
 10
-204.222224618
 20
127.794709923
 30
0.000000000
 11
-204.222224618
 21
127.794709923
 31
2.000000000
  0
LINE
  5
A09
330
A02
100
AcDbEntity
  8
Pad
100
AcDbLine
 10
-176.130763797
 20
176.450547325
 30
0.000000000
 11
-176.130763797
 21
176.450547325
 31
2.000000000
  0
LINE
  5
A0A
330
A02
100
AcDbEntity
  8
Pad
100
AcDbLine
 10
-204.222224618
 20
127.794709923
 30
0.000000000
 11
-176.130763797
 21
176.450547325
 31
0.000000000
  0
LINE
  5
A0B
330
A02
100
AcDbEntity
  8
Pad
100
AcDbLine
 10
-204.222224618
 20
127.794709923
 30
2.000000000
 11
-176.130763797
 21
176.450547325
 31
2.000000000
  0
LINE
  5
A0C
330
A02
100
AcDbEntity
  8
Pad
100
AcDbLine
 10
-173.385796990
 20
178.035354650
 30
0.000000000
 11
-173.385796990
 21
178.035354650
 31
2.000000000
  0
LINE
  5
A0D
330
A02
100
AcDbEntity
  8
Pad
100
AcDbLine
 10
-176.130763797
 20
176.450547325
 30
0.000000000
 11
-176.130763797
 21
176.450547325
 31
2.000000000
  0
ARC
  5
A0E
330
A02
100
AcDbEntity
  8
Pad
100
AcDbCircle
 10
-173.385796990
 20
174.865740000
 30
0.000000000
 40
3.169614650
100
AcDbArc
 50
90.000000000
 51
150.000000000
  0
ARC
  5
A0F
330
A02
100
AcDbEntity
  8
Pad
100
AcDbCircle
 10
-173.385796990
 20
174.865740000
 30
2.000000000
 40
3.169614650
100
AcDbArc
 50
90.000000000
 51
150.000000000
  0
LINE
  5
A10
330
A02
100
AcDbEntity
  8
Pad
100
AcDbLine
 10
-173.385796990
 20
178.035354650
 30
0.000000000
 11
-173.385796990
 21
178.035354650
 31
2.000000000
  0
LINE
  5
A11
330
A02
100
AcDbEntity
  8
Pad
100
AcDbLine
 10
-117.250118187
 20
178.035354650
 30
0.000000000
 11
-117.250118187
 21
178.035354650
 31
2.000000000
  0
LINE
  5
A12
330
A02
100
AcDbEntity
  8
Pad
100
AcDbLine
 10
-173.385796990
 20
178.035354650
 30
0.000000000
 11
-117.250118187
 21
178.035354650
 31
0.000000000
  0
LINE
  5
A13
330
A02
100
AcDbEntity
  8
Pad
100
AcDbLine
 10
-173.385796990
 20
178.035354650
 30
2.000000000
 11
-117.250118187
 21
178.035354650
 31
2.000000000
  0
LINE
  5
A14
330
A02
100
AcDbEntity
  8
Pad
100
AcDbLine
 10
-114.198603198
 20
176.273561650
 30
0.000000000
 11
-114.198603198
 21
176.273561650
 31
2.000000000
  0
LINE
  5
A15
330
A02
100
AcDbEntity
  8
Pad
100
AcDbLine
 10
-117.250118187
 20
178.035354650
 30
0.000000000
 11
-117.250118187
 21
178.035354650
 31
2.000000000
  0
ARC
  5
A16
330
A02
100
AcDbEntity
  8
Pad
100
AcDbCircle
 10
-117.250118187
 20
174.511768650
 30
0.000000000
 40
3.523586000
100
AcDbArc
 50
30.000000000
 51
90.000000000
  0
ARC
  5
A17
330
A02
100
AcDbEntity
  8
Pad
100
AcDbCircle
 10
-117.250118187
 20
174.511768650
 30
2.000000000
 40
3.523586000
100
AcDbArc
 50
30.000000000
 51
90.000000000
  0
LINE
  5
A18
330
A02
100
AcDbEntity
  8
Pad
100
AcDbLine
 10
-114.198603198
 20
176.273561650
 30
0.000000000
 11
-114.198603198
 21
176.273561650
 31
2.000000000
  0
LINE
  5
A19
330
A02
100
AcDbEntity
  8
Pad
100
AcDbLine
 10
-86.130614653
 20
127.658379423
 30
0.000000000
 11
-86.130614653
 21
127.658379423
 31
2.000000000
  0
LINE
  5
A1A
330
A02
100
AcDbEntity
  8
Pad
100
AcDbLine
 10
-114.198603198
 20
176.273561650
 30
0.000000000
 11
-86.130614653
 21
127.658379423
 31
0.000000000
  0
LINE
  5
A1B
330
A02
100
AcDbEntity
  8
Pad
100
AcDbLine
 10
-114.198603198
 20
176.273561650
 30
2.000000000
 11
-86.130614653
 21
127.658379423
 31
2.000000000
  0
LINE
  5
A1C
330
A02
100
AcDbEntity
  8
Pad
100
AcDbLine
 10
-86.130614653
 20
124.489281423
 30
0.000000000
 11
-86.130614653
 21
124.489281423
 31
2.000000000
  0
LINE
  5
A1D
330
A02
100
AcDbEntity
  8
Pad
100
AcDbLine
 10
-86.130614653
 20
127.658379423
 30
0.000000000
 11
-86.130614653
 21
127.658379423
 31
2.000000000
  0
ARC
  5
A1E
330
A02
100
AcDbEntity
  8
Pad
100
AcDbCircle
 10
-88.875134028
 20
126.073830423
 30
0.000000000
 40
3.169098000
100
AcDbArc
 50
-30.000000000
 51
30.000000000
  0
ARC
  5
A1F
330
A02
100
AcDbEntity
  8
Pad
100
AcDbCircle
 10
-88.875134028
 20
126.073830423
 30
2.000000000
 40
3.169098000
100
AcDbArc
 50
-30.000000000
 51
30.000000000
  0
LINE
  5
A20
330
A02
100
AcDbEntity
  8
Pad
100
AcDbLine
 10
-86.130614653
 20
124.489281423
 30
0.000000000
 11
-86.130614653
 21
124.489281423
 31
2.000000000
  0
LINE
  5
A21
330
A02
100
AcDbEntity
  8
Pad
100
AcDbLine
 10
-89.636148910
 20
118.417517982
 30
0.000000000
 11
-89.636148910
 21
118.417517982
 31
2.000000000
  0
LINE
  5
A22
330
A02
100
AcDbEntity
  8
Pad
100
AcDbLine
 10
-86.130614653
 20
124.489281423
 30
0.000000000
 11
-89.636148910
 21
118.417517982
 31
0.000000000
  0
LINE
  5
A23
330
A02
100
AcDbEntity
  8
Pad
100
AcDbLine
 10
-86.130614653
 20
124.489281423
 30
2.000000000
 11
-89.636148910
 21
118.417517982
 31
2.000000000
  0
LINE
  5
A24
330
A02
100
AcDbEntity
  8
Pad
100
AcDbLine
 10
-89.636148910
 20
118.417517982
 30
0.000000000
 11
-89.636148910
 21
118.417517982
 31
2.000000000
  0
LINE
  5
A25
330
A02
100
AcDbEntity
  8
Pad
100
AcDbLine
 10
-90.215774861
 20
116.254324482
 30
0.000000000
 11
-90.215774861
 21
116.254324482
 31
2.000000000
  0
ARC
  5
A26
330
A02
100
AcDbEntity
  8
Pad
100
AcDbCircle
 10
-85.889387861
 20
116.254324482
 30
0.000000000
 40
4.326387000
100
AcDbArc
 50
150.000000000
 51
180.000000000
  0
ARC
  5
A27
330
A02
100
AcDbEntity
  8
Pad
100
AcDbCircle
 10
-85.889387861
 20
116.254324482
 30
2.000000000
 40
4.326387000
100
AcDbArc
 50
150.000000000
 51
180.000000000
  0
LINE
  5
A28
330
A02
100
AcDbEntity
  8
Pad
100
AcDbLine
 10
-90.215774861
 20
116.254324482
 30
0.000000000
 11
-90.215774861
 21
116.254324482
 31
2.000000000
  0
LINE
  5
A29
330
A02
100
AcDbEntity
  8
Pad
100
AcDbLine
 10
-90.215774861
 20
12.504577385
 30
0.000000000
 11
-90.215774861
 21
12.504577385
 31
2.000000000
  0
LINE
  5
A2A
330
A02
100
AcDbEntity
  8
Pad
100
AcDbLine
 10
-90.215774861
 20
116.254324482
 30
0.000000000
 11
-90.215774861
 21
12.504577385
 31
0.000000000
  0
LINE
  5
A2B
330
A02
100
AcDbEntity
  8
Pad
100
AcDbLine
 10
-90.215774861
 20
116.254324482
 30
2.000000000
 11
-90.215774861
 21
12.504577385
 31
2.000000000
  0
LINE
  5
A2C
330
A02
100
AcDbEntity
  8
Pad
100
AcDbLine
 10
-95.306775861
 20
7.413576385
 30
0.000000000
 11
-95.306775861
 21
7.413576385
 31
2.000000000
  0
LINE
  5
A2D
330
A02
100
AcDbEntity
  8
Pad
100
AcDbLine
 10
-90.215774861
 20
12.504577385
 30
0.000000000
 11
-90.215774861
 21
12.504577385
 31
2.000000000
  0
ARC
  5
A2E
330
A02
100
AcDbEntity
  8
Pad
100
AcDbCircle
 10
-95.306775861
 20
12.504577385
 30
0.000000000
 40
5.091001000
100
AcDbArc
 50
-90.000000000
 51
-0.000000000
  0
ARC
  5
A2F
330
A02
100
AcDbEntity
  8
Pad
100
AcDbCircle
 10
-95.306775861
 20
12.504577385
 30
2.000000000
 40
5.091001000
100
AcDbArc
 50
-90.000000000
 51
-0.000000000
  0
LINE
  5
A30
330
A02
100
AcDbEntity
  8
Pad
100
AcDbLine
 10
-95.306775861
 20
7.413576385
 30
0.000000000
 11
-95.306775861
 21
7.413576385
 31
2.000000000
  0
LINE
  5
A31
330
A02
100
AcDbEntity
  8
Pad
100
AcDbLine
 10
-195.331512861
 20
7.413576385
 30
0.000000000
 11
-195.331512861
 21
7.413576385
 31
2.000000000
  0
LINE
  5
A32
330
A02
100
AcDbEntity
  8
Pad
100
AcDbLine
 10
-95.306775861
 20
7.413576385
 30
0.000000000
 11
-195.331512861
 21
7.413576385
 31
0.000000000
  0
LINE
  5
A33
330
A02
100
AcDbEntity
  8
Pad
100
AcDbLine
 10
-95.306775861
 20
7.413576385
 30
2.000000000
 11
-195.331512861
 21
7.413576385
 31
2.000000000
  0
LINE
  5
A34
330
A02
100
AcDbEntity
  8
Pad
100
AcDbLine
 10
-200.215774861
 20
12.297838385
 30
0.000000000
 11
-200.215774861
 21
12.297838385
 31
2.000000000
  0
LINE
  5
A35
330
A02
100
AcDbEntity
  8
Pad
100
AcDbLine
 10
-195.331512861
 20
7.413576385
 30
0.000000000
 11
-195.331512861
 21
7.413576385
 31
2.000000000
  0
ARC
  5
A36
330
A02
100
AcDbEntity
  8
Pad
100
AcDbCircle
 10
-195.331512861
 20
12.297838385
 30
0.000000000
 40
4.884262000
100
AcDbArc
 50
180.000000000
 51
-90.000000000
  0
ARC
  5
A37
330
A02
100
AcDbEntity
  8
Pad
100
AcDbCircle
 10
-195.331512861
 20
12.297838385
 30
2.000000000
 40
4.884262000
100
AcDbArc
 50
180.000000000
 51
-90.000000000
  0
LINE
  5
A38
330
A02
100
AcDbEntity
  8
Pad
100
AcDbLine
 10
-200.215774861
 20
12.297838385
 30
0.000000000
 11
-200.215774861
 21
12.297838385
 31
2.000000000
  0
LINE
  5
A39
330
A02
100
AcDbEntity
  8
Pad
100
AcDbLine
 10
-200.215774861
 20
116.027605704
 30
0.000000000
 11
-200.215774861
 21
116.027605704
 31
2.000000000
  0
LINE
  5
A3A
330
A02
100
AcDbEntity
  8
Pad
100
AcDbLine
 10
-200.215774861
 20
12.297838385
 30
0.000000000
 11
-200.215774861
 21
116.027605704
 31
0.000000000
  0
LINE
  5
A3B
330
A02
100
AcDbEntity
  8
Pad
100
AcDbLine
 10
-200.215774861
 20
12.297838385
 30
2.000000000
 11
-200.215774861
 21
116.027605704
 31
2.000000000
  0
LINE
  5
A3C
330
A02
100
AcDbEntity
  8
Pad
100
AcDbLine
 10
-200.215774861
 20
116.027605704
 30
0.000000000
 11
-200.215774861
 21
116.027605704
 31
2.000000000
  0
LINE
  5
A3D
330
A02
100
AcDbEntity
  8
Pad
100
AcDbLine
 10
-200.908760202
 20
118.613862204
 30
0.000000000
 11
-200.908760202
 21
118.613862204
 31
2.000000000
  0
ARC
  5
A3E
330
A02
100
AcDbEntity
  8
Pad
100
AcDbCircle
 10
-205.388287861
 20
116.027605704
 30
0.000000000
 40
5.172513000
100
AcDbArc
 50
0.000000000
 51
30.000000000
  0
ARC
  5
A3F
330
A02
100
AcDbEntity
  8
Pad
100
AcDbCircle
 10
-205.388287861
 20
116.027605704
 30
2.000000000
 40
5.172513000
100
AcDbArc
 50
0.000000000
 51
30.000000000
  0
LINE
  5
A40
330
A02
100
AcDbEntity
  8
Pad
100
AcDbLine
 10
-200.908760202
 20
118.613862204
 30
0.000000000
 11
-200.908760202
 21
118.613862204
 31
2.000000000
  0
LINE
  5
A41
330
A02
100
AcDbEntity
  8
Pad
100
AcDbLine
 10
-204.222224618
 20
124.352950923
 30
0.000000000
 11
-204.222224618
 21
124.352950923
 31
2.000000000
  0
LINE
  5
A42
330
A02
100
AcDbEntity
  8
Pad
100
AcDbLine
 10
-200.908760202
 20
118.613862204
 30
0.000000000
 11
-204.222224618
 21
124.352950923
 31
0.000000000
  0
LINE
  5
A43
330
A02
100
AcDbEntity
  8
Pad
100
AcDbLine
 10
-200.908760202
 20
118.613862204
 30
2.000000000
 11
-204.222224618
 21
124.352950923
 31
2.000000000
  0
LINE
  5
A44
330
A02
100
AcDbEntity
  8
Pad
100
AcDbLine
 10
-204.222224618
 20
127.794709923
 30
0.000000000
 11
-204.222224618
 21
127.794709923
 31
2.000000000
  0
LINE
  5
A45
330
A02
100
AcDbEntity
  8
Pad
100
AcDbLine
 10
-204.222224618
 20
124.352950923
 30
0.000000000
 11
-204.222224618
 21
124.352950923
 31
2.000000000
  0
ARC
  5
A46
330
A02
100
AcDbEntity
  8
Pad
100
AcDbCircle
 10
-201.241573891
 20
126.073830423
 30
0.000000000
 40
3.441759000
100
AcDbArc
 50
150.000000000
 51
-150.000000000
  0
ARC
  5
A47
330
A02
100
AcDbEntity
  8
Pad
100
AcDbCircle
 10
-201.241573891
 20
126.073830423
 30
2.000000000
 40
3.441759000
100
AcDbArc
 50
150.000000000
 51
-150.000000000
  0
LINE
  5
A48
330
A02
100
AcDbEntity
  8
Pad
100
AcDbLine
 10
-87.375134028
 20
126.073830423
 30
0.000000000
 11
-87.375134028
 21
126.073830423
 31
2.000000000
  0
LINE
  5
A49
330
A02
100
AcDbEntity
  8
Pad
100
AcDbLine
 10
-87.375134028
 20
126.073830423
 30
0.000000000
 11
-87.375134028
 21
126.073830423
 31
2.000000000
  0
CIRCLE
  5
A4A
330
A02
100
AcDbEntity
  8
Pad
100
AcDbCircle
 10
-88.875134028
 20
126.073830423
 30
0.000000000
 40
1.500000000
  0
CIRCLE
  5
A4B
330
A02
100
AcDbEntity
  8
Pad
100
AcDbCircle
 10
-88.875134028
 20
126.073830423
 30
2.000000000
 40
1.500000000
  0
LINE
  5
A4C
330
A02
100
AcDbEntity
  8
Pad
100
AcDbLine
 10
-115.750118187
 20
174.511768650
 30
0.000000000
 11
-115.750118187
 21
174.511768650
 31
2.000000000
  0
LINE
  5
A4D
330
A02
100
AcDbEntity
  8
Pad
100
AcDbLine
 10
-115.750118187
 20
174.511768650
 30
0.000000000
 11
-115.750118187
 21
174.511768650
 31
2.000000000
  0
CIRCLE
  5
A4E
330
A02
100
AcDbEntity
  8
Pad
100
AcDbCircle
 10
-117.250118187
 20
174.511768650
 30
0.000000000
 40
1.500000000
  0
CIRCLE
  5
A4F
330
A02
100
AcDbEntity
  8
Pad
100
AcDbCircle
 10
-117.250118187
 20
174.511768650
 30
2.000000000
 40
1.500000000
  0
LINE
  5
A50
330
A02
100
AcDbEntity
  8
Pad
100
AcDbLine
 10
-199.741573891
 20
126.073830423
 30
0.000000000
 11
-199.741573891
 21
126.073830423
 31
2.000000000
  0
LINE
  5
A51
330
A02
100
AcDbEntity
  8
Pad
100
AcDbLine
 10
-199.741573891
 20
126.073830423
 30
0.000000000
 11
-199.741573891
 21
126.073830423
 31
2.000000000
  0
CIRCLE
  5
A52
330
A02
100
AcDbEntity
  8
Pad
100
AcDbCircle
 10
-201.241573891
 20
126.073830423
 30
0.000000000
 40
1.500000000
  0
CIRCLE
  5
A53
330
A02
100
AcDbEntity
  8
Pad
100
AcDbCircle
 10
-201.241573891
 20
126.073830423
 30
2.000000000
 40
1.500000000
  0
LINE
  5
A54
330
A02
100
AcDbEntity
  8
Pad
100
AcDbLine
 10
-171.885796990
 20
174.865740000
 30
0.000000000
 11
-171.885796990
 21
174.865740000
 31
2.000000000
  0
LINE
  5
A55
330
A02
100
AcDbEntity
  8
Pad
100
AcDbLine
 10
-171.885796990
 20
174.865740000
 30
0.000000000
 11
-171.885796990
 21
174.865740000
 31
2.000000000
  0
CIRCLE
  5
A56
330
A02
100
AcDbEntity
  8
Pad
100
AcDbCircle
 10
-173.385796990
 20
174.865740000
 30
0.000000000
 40
1.500000000
  0
CIRCLE
  5
A57
330
A02
100
AcDbEntity
  8
Pad
100
AcDbCircle
 10
-173.385796990
 20
174.865740000
 30
2.000000000
 40
1.500000000
  0
LINE
  5
A58
330
A02
100
AcDbEntity
  8
Pad
100
AcDbLine
 10
-204.222224618
 20
127.794709923
 30
0.000000000
 11
-176.130763797
 21
176.450547325
 31
0.000000000
  0
ARC
  5
A59
330
A02
100
AcDbEntity
  8
Pad
100
AcDbCircle
 10
-173.385796990
 20
174.865740000
 30
0.000000000
 40
3.169614650
100
AcDbArc
 50
90.000000000
 51
150.000000000
  0
LINE
  5
A5A
330
A02
100
AcDbEntity
  8
Pad
100
AcDbLine
 10
-173.385796990
 20
178.035354650
 30
0.000000000
 11
-117.250118187
 21
178.035354650
 31
0.000000000
  0
ARC
  5
A5B
330
A02
100
AcDbEntity
  8
Pad
100
AcDbCircle
 10
-117.250118187
 20
174.511768650
 30
0.000000000
 40
3.523586000
100
AcDbArc
 50
30.000000000
 51
90.000000000
  0
LINE
  5
A5C
330
A02
100
AcDbEntity
  8
Pad
100
AcDbLine
 10
-114.198603198
 20
176.273561650
 30
0.000000000
 11
-86.130614653
 21
127.658379423
 31
0.000000000
  0
ARC
  5
A5D
330
A02
100
AcDbEntity
  8
Pad
100
AcDbCircle
 10
-88.875134028
 20
126.073830423
 30
0.000000000
 40
3.169098000
100
AcDbArc
 50
-30.000000000
 51
30.000000000
  0
LINE
  5
A5E
330
A02
100
AcDbEntity
  8
Pad
100
AcDbLine
 10
-86.130614653
 20
124.489281423
 30
0.000000000
 11
-89.636148910
 21
118.417517982
 31
0.000000000
  0
ARC
  5
A5F
330
A02
100
AcDbEntity
  8
Pad
100
AcDbCircle
 10
-85.889387861
 20
116.254324482
 30
0.000000000
 40
4.326387000
100
AcDbArc
 50
150.000000000
 51
180.000000000
  0
LINE
  5
A60
330
A02
100
AcDbEntity
  8
Pad
100
AcDbLine
 10
-90.215774861
 20
116.254324482
 30
0.000000000
 11
-90.215774861
 21
12.504577385
 31
0.000000000
  0
ARC
  5
A61
330
A02
100
AcDbEntity
  8
Pad
100
AcDbCircle
 10
-95.306775861
 20
12.504577385
 30
0.000000000
 40
5.091001000
100
AcDbArc
 50
-90.000000000
 51
-0.000000000
  0
LINE
  5
A62
330
A02
100
AcDbEntity
  8
Pad
100
AcDbLine
 10
-95.306775861
 20
7.413576385
 30
0.000000000
 11
-195.331512861
 21
7.413576385
 31
0.000000000
  0
ARC
  5
A63
330
A02
100
AcDbEntity
  8
Pad
100
AcDbCircle
 10
-195.331512861
 20
12.297838385
 30
0.000000000
 40
4.884262000
100
AcDbArc
 50
180.000000000
 51
-90.000000000
  0
LINE
  5
A64
330
A02
100
AcDbEntity
  8
Pad
100
AcDbLine
 10
-200.215774861
 20
12.297838385
 30
0.000000000
 11
-200.215774861
 21
116.027605704
 31
0.000000000
  0
ARC
  5
A65
330
A02
100
AcDbEntity
  8
Pad
100
AcDbCircle
 10
-205.388287861
 20
116.027605704
 30
0.000000000
 40
5.172513000
100
AcDbArc
 50
0.000000000
 51
30.000000000
  0
LINE
  5
A66
330
A02
100
AcDbEntity
  8
Pad
100
AcDbLine
 10
-200.908760202
 20
118.613862204
 30
0.000000000
 11
-204.222224618
 21
124.352950923
 31
0.000000000
  0
ARC
  5
A67
330
A02
100
AcDbEntity
  8
Pad
100
AcDbCircle
 10
-201.241573891
 20
126.073830423
 30
0.000000000
 40
3.441759000
100
AcDbArc
 50
150.000000000
 51
-150.000000000
  0
CIRCLE
  5
A68
330
A02
100
AcDbEntity
  8
Pad
100
AcDbCircle
 10
-88.875134028
 20
126.073830423
 30
0.000000000
 40
1.500000000
  0
CIRCLE
  5
A69
330
A02
100
AcDbEntity
  8
Pad
100
AcDbCircle
 10
-117.250118187
 20
174.511768650
 30
0.000000000
 40
1.500000000
  0
CIRCLE
  5
A6A
330
A02
100
AcDbEntity
  8
Pad
100
AcDbCircle
 10
-201.241573891
 20
126.073830423
 30
0.000000000
 40
1.500000000
  0
CIRCLE
  5
A6B
330
A02
100
AcDbEntity
  8
Pad
100
AcDbCircle
 10
-173.385796990
 20
174.865740000
 30
0.000000000
 40
1.500000000
  0
LINE
  5
A6C
330
A02
100
AcDbEntity
  8
Pad
100
AcDbLine
 10
-204.222224618
 20
127.794709923
 30
2.000000000
 11
-176.130763797
 21
176.450547325
 31
2.000000000
  0
ARC
  5
A6D
330
A02
100
AcDbEntity
  8
Pad
100
AcDbCircle
 10
-173.385796990
 20
174.865740000
 30
2.000000000
 40
3.169614650
100
AcDbArc
 50
90.000000000
 51
150.000000000
  0
LINE
  5
A6E
330
A02
100
AcDbEntity
  8
Pad
100
AcDbLine
 10
-173.385796990
 20
178.035354650
 30
2.000000000
 11
-117.250118187
 21
178.035354650
 31
2.000000000
  0
ARC
  5
A6F
330
A02
100
AcDbEntity
  8
Pad
100
AcDbCircle
 10
-117.250118187
 20
174.511768650
 30
2.000000000
 40
3.523586000
100
AcDbArc
 50
30.000000000
 51
90.000000000
  0
LINE
  5
A70
330
A02
100
AcDbEntity
  8
Pad
100
AcDbLine
 10
-114.198603198
 20
176.273561650
 30
2.000000000
 11
-86.130614653
 21
127.658379423
 31
2.000000000
  0
ARC
  5
A71
330
A02
100
AcDbEntity
  8
Pad
100
AcDbCircle
 10
-88.875134028
 20
126.073830423
 30
2.000000000
 40
3.169098000
100
AcDbArc
 50
-30.000000000
 51
30.000000000
  0
LINE
  5
A72
330
A02
100
AcDbEntity
  8
Pad
100
AcDbLine
 10
-86.130614653
 20
124.489281423
 30
2.000000000
 11
-89.636148910
 21
118.417517982
 31
2.000000000
  0
ARC
  5
A73
330
A02
100
AcDbEntity
  8
Pad
100
AcDbCircle
 10
-85.889387861
 20
116.254324482
 30
2.000000000
 40
4.326387000
100
AcDbArc
 50
150.000000000
 51
180.000000000
  0
LINE
  5
A74
330
A02
100
AcDbEntity
  8
Pad
100
AcDbLine
 10
-90.215774861
 20
116.254324482
 30
2.000000000
 11
-90.215774861
 21
12.504577385
 31
2.000000000
  0
ARC
  5
A75
330
A02
100
AcDbEntity
  8
Pad
100
AcDbCircle
 10
-95.306775861
 20
12.504577385
 30
2.000000000
 40
5.091001000
100
AcDbArc
 50
-90.000000000
 51
-0.000000000
  0
LINE
  5
A76
330
A02
100
AcDbEntity
  8
Pad
100
AcDbLine
 10
-95.306775861
 20
7.413576385
 30
2.000000000
 11
-195.331512861
 21
7.413576385
 31
2.000000000
  0
ARC
  5
A77
330
A02
100
AcDbEntity
  8
Pad
100
AcDbCircle
 10
-195.331512861
 20
12.297838385
 30
2.000000000
 40
4.884262000
100
AcDbArc
 50
180.000000000
 51
-90.000000000
  0
LINE
  5
A78
330
A02
100
AcDbEntity
  8
Pad
100
AcDbLine
 10
-200.215774861
 20
12.297838385
 30
2.000000000
 11
-200.215774861
 21
116.027605704
 31
2.000000000
  0
ARC
  5
A79
330
A02
100
AcDbEntity
  8
Pad
100
AcDbCircle
 10
-205.388287861
 20
116.027605704
 30
2.000000000
 40
5.172513000
100
AcDbArc
 50
0.000000000
 51
30.000000000
  0
LINE
  5
A7A
330
A02
100
AcDbEntity
  8
Pad
100
AcDbLine
 10
-200.908760202
 20
118.613862204
 30
2.000000000
 11
-204.222224618
 21
124.352950923
 31
2.000000000
  0
ARC
  5
A7B
330
A02
100
AcDbEntity
  8
Pad
100
AcDbCircle
 10
-201.241573891
 20
126.073830423
 30
2.000000000
 40
3.441759000
100
AcDbArc
 50
150.000000000
 51
-150.000000000
  0
CIRCLE
  5
A7C
330
A02
100
AcDbEntity
  8
Pad
100
AcDbCircle
 10
-88.875134028
 20
126.073830423
 30
2.000000000
 40
1.500000000
  0
CIRCLE
  5
A7D
330
A02
100
AcDbEntity
  8
Pad
100
AcDbCircle
 10
-117.250118187
 20
174.511768650
 30
2.000000000
 40
1.500000000
  0
CIRCLE
  5
A7E
330
A02
100
AcDbEntity
  8
Pad
100
AcDbCircle
 10
-201.241573891
 20
126.073830423
 30
2.000000000
 40
1.500000000
  0
CIRCLE
  5
A7F
330
A02
100
AcDbEntity
  8
Pad
100
AcDbCircle
 10
-173.385796990
 20
174.865740000
 30
2.000000000
 40
1.500000000
  0
ENDSEC
  0
SECTION
  2
OBJECTS
  0
DICTIONARY
  5
F000
330
0
100
AcDbDictionary
  3
ACAD_GROUP
350
F001
  0
DICTIONARY
  5
F001
330
F000
100
AcDbDictionary
  0
ENDSEC
  0
EOF